<svg xmlns="http://www.w3.org/2000/svg" xmlns:xlink="http://www.w3.org/1999/xlink" xmlns:fi="http://pattern.flaticon.com/" x="0" y="0" width="900" height="1600" viewBox="0 0 900 1600"><rect x="0px" y="0px" width="100%" height="100%" opacity="1" fill="#ffffff"/><defs><g transform="matrix(0.1489361673593521 0 0 0.1489361673593521 110 273)" id="L1_20"><path d="M317.496,346.251L210.158,453.589C218.315,454.51,226.601,455,235,455   c7.242,0,14.401-0.362,21.466-1.049l131.977-131.977c6.433-6.434,6.433-16.901,0-23.334c-3.117-3.116-7.26-4.833-11.667-4.833   s-8.551,1.716-11.667,4.833l-26.398,26.398c-2.929,2.929-7.678,2.929-10.606,0l-10.607,10.607   C320.425,338.573,320.425,343.322,317.496,346.251z" fill="#e7453f"/><path d="M228.165,371.943l20.564-20.564c3.704-3.704,3.704-9.731,0-13.435   c-1.794-1.794-4.18-2.783-6.718-2.783c-2.537,0-4.923,0.988-6.717,2.783l-46.55,46.549c-1.794,1.794-2.782,4.18-2.782,6.718   s0.988,4.923,2.782,6.717c1.794,1.795,4.18,2.783,6.718,2.783c2.537,0,4.923-0.988,6.717-2.783l4.773-4.772   c2.929-2.928,7.678-2.928,10.607,0l10.607-10.606C225.235,379.62,225.235,374.872,228.165,371.943z" fill="#f5b5b2"/><path d="M289.801,124.337l-14.614,14.614c-1.464,1.464-3.384,2.197-5.303,2.197s-3.839-0.732-5.303-2.197   c0,0-10.607,10.607-10.607,10.607c2.929,2.929,2.929,7.678,0,10.606l-67.411,67.411c-3.704,3.704-3.704,9.731,0,13.435   c1.794,1.794,4.18,2.783,6.718,2.783s4.923-0.988,6.718-2.783l43.847-43.847c1.998-1.999,4.95-2.705,7.635-1.825   c2.686,0.878,4.65,3.192,5.081,5.985c1.106,7.175,4.409,13.685,9.551,18.828c13.257,13.257,34.826,13.257,48.083,0l105.122-105.122   c-15.635-23.939-35.802-44.656-59.276-60.932l-49.028,49.028c-1.464,1.464-3.384,2.197-5.303,2.197s-3.839-0.732-5.303-2.197   c0,0-10.607,10.607-10.607,10.607C292.73,116.66,292.73,121.408,289.801,124.337z" fill="#03e6ff"/><path d="M164.778,139.793l21.086-21.086c10.337-10.337,10.337-27.157,0-37.494s-27.157-10.337-37.494,0   L16.049,213.534C15.362,220.599,15,227.758,15,235c0,16.856,1.912,33.274,5.519,49.052l123.046-123.046   c2.928-2.928,7.674-2.928,10.603-0.003l10.607-10.607C161.849,147.467,161.85,142.721,164.778,139.793z" fill="#ffcb59"/><path d="M427.307,128.253L324.802,230.757c-9.255,9.255-21.56,14.352-34.648,14.352   s-25.393-5.097-34.648-14.352c-4.158-4.158-7.482-8.938-9.881-14.161l-35.02,35.02c-4.776,4.776-11.05,7.165-17.324,7.165   s-12.548-2.388-17.324-7.165c-9.552-9.552-9.552-25.095,0-34.648l67.411-67.411c2.929-2.929,7.678-2.929,10.606,0l10.607-10.607   c-2.929-2.929-2.929-7.677,0-10.606l14.614-14.614c2.929-2.929,7.678-2.93,10.606,0l10.607-10.607   c-2.929-2.929-2.929-7.678,0-10.606l46.724-46.724C314.274,26.247,275.929,15,235,15C129.683,15,41.43,89.392,19.987,188.384   L137.764,70.606c7.841-7.841,18.265-12.159,29.354-12.159s21.513,4.318,29.354,12.159c16.185,16.185,16.186,42.521,0,58.707   l-21.086,21.086c-2.929,2.929-7.678,2.929-10.606,0c-0.003-0.003-10.61,10.604-10.61,10.604c2.932,2.931,2.932,7.68,0.003,10.609   L25.037,300.747c23.813,75.881,87.711,134.18,166.766,149.984L306.89,335.645c2.929-2.929,7.678-2.929,10.606,0l10.607-10.607   c-2.929-2.929-2.929-7.678,0-10.606l26.398-26.398c5.95-5.95,13.86-9.226,22.274-9.226s16.324,3.276,22.274,9.226   c12.282,12.282,12.282,32.266,0,44.547L281.617,450.013C380.608,428.57,455,340.317,455,235   C455,196.287,444.936,159.886,427.307,128.253z M259.336,361.985l-20.565,20.564c-2.929,2.929-7.678,2.93-10.606,0l-10.607,10.606   c2.929,2.929,2.929,7.678,0,10.607l-4.772,4.772c-4.627,4.627-10.78,7.176-17.324,7.176c-6.544,0-12.697-2.549-17.324-7.176   c-9.553-9.552-9.553-25.095,0-34.648l46.55-46.549c4.627-4.627,10.779-7.176,17.324-7.176s12.697,2.549,17.324,7.176   C268.888,336.89,268.888,352.433,259.336,361.985z" fill="#ffffff"/><path d="M401.17,68.83C356.785,24.444,297.771,0,235,0S113.215,24.444,68.83,68.83   C24.444,113.215,0,172.229,0,235s24.444,121.785,68.83,166.17C113.215,445.556,172.229,470,235,470s121.785-24.444,166.17-68.83   C445.556,356.785,470,297.771,470,235S445.556,113.215,401.17,68.83z M281.617,450.013l117.432-117.432   c12.282-12.282,12.282-32.266,0-44.547c-5.95-5.95-13.86-9.226-22.274-9.226s-16.324,3.276-22.274,9.226l-26.398,26.398   c-2.929,2.929-2.929,7.678,0,10.606c2.929,2.929,7.678,2.929,10.606,0l26.398-26.398c3.117-3.116,7.26-4.833,11.667-4.833   s8.551,1.716,11.667,4.833c6.433,6.434,6.433,16.901,0,23.334L256.466,453.951C249.401,454.638,242.242,455,235,455   c-8.399,0-16.685-0.49-24.842-1.411l107.338-107.338c2.929-2.929,2.929-7.678,0-10.606c-2.929-2.929-7.678-2.929-10.606,0   L191.803,450.731c-79.056-15.803-142.954-74.102-166.766-149.984l129.134-129.135c2.929-2.929,2.929-7.678,0-10.606   c-2.932-2.928-7.679-2.928-10.606,0L20.519,284.052C16.912,268.274,15,251.856,15,235c0-7.242,0.362-14.401,1.049-21.466   L148.371,81.213c10.337-10.337,27.157-10.337,37.494,0s10.337,27.156,0,37.494l-21.086,21.086   c-2.928,2.928-2.929,7.674-0.003,10.603c2.932,2.932,7.681,2.932,10.609,0.003l21.086-21.086c16.186-16.186,16.185-42.521,0-58.707   c-7.841-7.841-18.265-12.159-29.354-12.159s-21.513,4.318-29.354,12.159L19.987,188.384C41.43,89.392,129.683,15,235,15   c40.929,0,79.274,11.247,112.132,30.794l-46.724,46.724c-2.929,2.929-2.929,7.678,0,10.606c1.464,1.464,3.384,2.197,5.303,2.197   s3.839-0.732,5.303-2.197l49.028-49.028c23.474,16.276,43.641,36.993,59.276,60.932L314.196,220.151   c-13.257,13.257-34.826,13.257-48.083,0c-5.143-5.143-8.445-11.653-9.551-18.828c-0.431-2.792-2.395-5.106-5.081-5.985   c-2.685-0.88-5.638-0.174-7.635,1.825l-43.847,43.847c-1.794,1.794-4.18,2.783-6.718,2.783s-4.923-0.988-6.718-2.783   c-3.704-3.704-3.704-9.731,0-13.435l67.411-67.411c2.929-2.929,2.929-7.678,0-10.606c-2.929-2.929-7.678-2.929-10.607,0   l-67.411,67.411c-9.552,9.553-9.552,25.096,0,34.648c4.776,4.776,11.05,7.165,17.324,7.165s12.548-2.388,17.324-7.165l35.02-35.02   c2.399,5.222,5.723,10.002,9.881,14.161c9.255,9.255,21.56,14.352,34.648,14.352s25.393-5.097,34.648-14.352l102.504-102.504   C444.936,159.886,455,196.287,455,235C455,340.317,380.608,428.57,281.617,450.013z" fill="#3d2a20"/><path d="M269.884,141.148c1.919,0,3.839-0.732,5.303-2.197l14.614-14.614c2.929-2.929,2.929-7.678,0-10.606   c-2.929-2.93-7.678-2.929-10.607,0l-14.614,14.614c-2.929,2.929-2.929,7.678,0,10.606   C266.045,140.417,267.964,141.148,269.884,141.148z" fill="#3d2a20"/><path d="M242.011,320.161c-6.544,0-12.697,2.549-17.324,7.176l-46.55,46.549   c-9.552,9.553-9.552,25.096,0,34.648c4.627,4.627,10.78,7.176,17.324,7.176c6.544,0,12.697-2.549,17.324-7.176l4.772-4.772   c2.929-2.929,2.929-7.678,0-10.607c-2.929-2.929-7.678-2.928-10.607,0l-4.773,4.772c-1.794,1.794-4.18,2.783-6.717,2.783   c-2.538,0-4.923-0.988-6.718-2.783c-1.794-1.794-2.782-4.179-2.782-6.717s0.988-4.923,2.782-6.718l46.55-46.549   c1.794-1.794,4.18-2.783,6.717-2.783c2.538,0,4.923,0.988,6.718,2.783c3.704,3.704,3.704,9.731,0,13.435l-20.564,20.564   c-2.929,2.929-2.929,7.677,0,10.606c2.929,2.93,7.677,2.929,10.606,0l20.565-20.564c9.552-9.553,9.552-25.096,0-34.648   C254.708,322.71,248.556,320.161,242.011,320.161z" fill="#3d2a20"/></g><g transform="matrix(0.1171875 0 0 0.1171875 139 132)" id="L1_22"><path d="m256 392c-33.084 0-60 26.916-60 60s26.916 60 60 60 60-26.916 60-60-26.916-60-60-60zm0 90c-16.542 0-30-13.458-30-30s13.458-30 30-30 30 13.458 30 30-13.458 30-30 30z"/><path d="m256 0c-86.019 0-156 69.981-156 156v15h120v-15c0-19.851 16.149-36 36-36s36 16.149 36 36c0 10.578-4.643 20.59-12.74 27.471l-83.26 70.787v107.742h120v-52.258l40.976-34.837c34.968-29.714 55.024-73.052 55.024-118.905 0-86.019-69.981-156-156-156zm81.547 252.047-51.547 43.824v36.129h-60v-63.871l72.688-61.8c14.815-12.589 23.312-30.933 23.312-50.329 0-36.393-29.607-66-66-66-31.235 0-57.471 21.81-64.281 51h-60.832c7.441-62.431 60.712-111 125.113-111 69.477 0 126 56.523 126 126 0 37.034-16.201 72.04-44.453 96.047z"/></g><g transform="matrix(0.1171875 0 0 0.1171875 235 192)" id="L1_23"><g><path d="m118.33 136.8h-92.358c-10.202 0-18.471-8.27-18.471-18.471v-92.358c0-10.201 8.27-18.471 18.471-18.471h92.357c10.202 0 18.471 8.27 18.471 18.471v92.357c.001 10.202-8.269 18.472-18.47 18.472z" fill="#df75a5"/><path d="m119.883 7.5c.195 2.565.294 5.157.294 7.772 0 55.853-45.278 101.131-101.131 101.131-3.905 0-7.755-.229-11.545-.66v2.507c0 10.202 8.27 18.471 18.471 18.471h92.357c10.201 0 18.471-8.27 18.471-18.471v-92.357c.001-9.677-7.444-17.603-16.917-18.393z" fill="#dd5790"/></g><g><path d="m118.33 298.426h-92.358c-10.202 0-18.471-8.27-18.471-18.471v-92.357c0-10.202 8.27-18.471 18.471-18.471h92.357c10.202 0 18.471 8.27 18.471 18.471v92.357c.001 10.201-8.269 18.471-18.47 18.471z" fill="#ffe07d"/><path d="m119.883 169.165c.195 2.565.294 5.157.294 7.772 0 55.853-45.278 101.131-101.131 101.131-3.905 0-7.755-.229-11.545-.66v2.507c0 10.202 8.27 18.471 18.471 18.471h92.357c10.201 0 18.471-8.27 18.471-18.471v-92.357c.001-9.678-7.444-17.603-16.917-18.393z" fill="#ffd064"/></g><g><g><path d="m399.154 136.8h-92.357c-10.202 0-18.471-8.27-18.471-18.471v-92.358c0-10.202 8.27-18.471 18.471-18.471h92.357c10.202 0 18.471 8.27 18.471 18.471v92.357c0 10.202-8.27 18.472-18.471 18.472z" fill="#b3e59f"/><path d="m400.707 7.578c.195 2.565.294 5.157.294 7.772 0 55.853-45.278 101.131-101.131 101.131-3.905 0-7.755-.229-11.545-.66v2.507c0 10.202 8.27 18.471 18.471 18.471h92.357c10.201 0 18.471-8.27 18.471-18.471v-92.357c.001-9.677-7.444-17.602-16.917-18.393z" fill="#95d6a4"/></g><g><path d="m399.154 298.426h-92.357c-10.202 0-18.471-8.27-18.471-18.471v-92.357c0-10.202 8.27-18.471 18.471-18.471h92.357c10.202 0 18.471 8.27 18.471 18.471v92.357c0 10.201-8.27 18.471-18.471 18.471z" fill="#90d8f9"/><path d="m400.707 169.204c.195 2.565.294 5.157.294 7.772 0 55.853-45.278 101.131-101.131 101.131-3.905 0-7.755-.229-11.545-.66v2.507c0 10.202 8.27 18.471 18.471 18.471h92.357c10.201 0 18.471-8.27 18.471-18.471v-92.357c.001-9.677-7.444-17.603-16.917-18.393z" fill="#75cef9"/></g></g><g><path d="m91.13 495.129 12.913 9.369h182.404l-10.913-35.326-2.004-36.621c-.18-3.299-.765-6.563-1.74-9.719l-31.486-101.916c-3.234-10.467-14.127-16.867-24.702-14.007-11.102 3.002-17.413 14.577-14.047 25.471l-6.119-19.805c-3.234-10.467-14.126-16.867-24.702-14.007-11.102 3.002-17.413 14.577-14.047 25.471l-5.82-18.84c-3.234-10.467-14.127-16.867-24.702-14.007-11.102 3.002-17.413 14.577-14.047 25.471l-20.133-65.167c-3.234-10.467-14.127-16.867-24.702-14.007-11.102 3.002-17.413 14.577-14.047 25.471l35.781 115.818c-3.294-10.661-14.606-16.633-25.266-13.339-10.661 3.294-16.633 14.606-13.339 25.266l25.842 83.646c2.58 8.353 7.8 15.644 14.876 20.778z" fill="#ffddce"/><path d="m165.501 504.498h120.946l-10.913-35.326-2.004-36.621c-.18-3.299-.765-6.563-1.74-9.719l-20.235-65.499c-7.816 43.744-29.016 106.115-86.054 147.165z" fill="#ffcbbe"/></g><g><path d="m25.971 144.299h92.36c14.319 0 25.97-11.65 25.97-25.97v-92.359c-.001-14.32-11.651-25.97-25.97-25.97h-51.12c-4.143 0-7.5 3.358-7.5 7.5s3.357 7.5 7.5 7.5h51.12c6.049 0 10.97 4.921 10.97 10.97v92.36c0 6.049-4.921 10.97-10.97 10.97h-92.36c-6.049 0-10.97-4.921-10.97-10.97v-92.36c0-6.049 4.921-10.97 10.97-10.97h6.24c4.143 0 7.5-3.358 7.5-7.5s-3.358-7.5-7.5-7.5h-6.24c-14.32 0-25.97 11.65-25.97 25.97v92.36c0 14.319 11.65 25.969 25.97 25.969z"/><path d="m43.96 111.484c3.87 1.473 8.204-.468 9.679-4.339l4.206-11.044h28.651l4.16 11.022c1.133 3.003 3.987 4.854 7.018 4.854.88 0 1.775-.156 2.647-.485 3.875-1.462 5.831-5.79 4.368-9.665l-24.056-63.742c-.025-.068-.052-.136-.08-.204-1.388-3.375-4.642-5.556-8.291-5.556-.003 0-.006 0-.009 0-3.652.003-6.906 2.19-8.289 5.571-.023.056-.046.113-.067.17l-24.276 63.74c-1.475 3.871.469 8.204 4.339 9.678zm28.276-53.169 8.599 22.786h-17.277z"/><path d="m169.126 47.325h54.549c4.143 0 7.5-3.358 7.5-7.5s-3.357-7.5-7.5-7.5h-54.549c-4.143 0-7.5 3.358-7.5 7.5s3.358 7.5 7.5 7.5z"/><path d="m169.126 79.65h34.346c4.143 0 7.5-3.358 7.5-7.5s-3.357-7.5-7.5-7.5h-34.346c-4.143 0-7.5 3.358-7.5 7.5s3.358 7.5 7.5 7.5z"/><path d="m169.126 111.975h34.346c4.143 0 7.5-3.358 7.5-7.5s-3.357-7.5-7.5-7.5h-34.346c-4.143 0-7.5 3.358-7.5 7.5s3.358 7.5 7.5 7.5z"/><path d="m169.126 208.95h54.549c4.143 0 7.5-3.358 7.5-7.5s-3.357-7.5-7.5-7.5h-54.549c-4.143 0-7.5 3.358-7.5 7.5s3.358 7.5 7.5 7.5z"/><path d="m169.126 241.275h34.346c4.143 0 7.5-3.358 7.5-7.5s-3.357-7.5-7.5-7.5h-34.346c-4.143 0-7.5 3.358-7.5 7.5s3.358 7.5 7.5 7.5z"/><path d="m169.126 273.601h34.346c4.143 0 7.5-3.358 7.5-7.5s-3.357-7.5-7.5-7.5h-34.346c-4.143 0-7.5 3.358-7.5 7.5s3.358 7.5 7.5 7.5z"/><path d="m306.797 144.3h92.357c14.321 0 25.972-11.651 25.972-25.972v-92.356c-.001-14.321-11.651-25.972-25.972-25.972h-92.357c-14.321 0-25.972 11.651-25.972 25.972v92.357c0 14.32 11.65 25.971 25.972 25.971zm-10.972-118.328c0-6.05 4.922-10.972 10.972-10.972h92.357c6.05 0 10.972 4.922 10.972 10.972v92.357c0 6.05-4.922 10.972-10.972 10.972h-92.357c-6.05 0-10.972-4.922-10.972-10.972z"/><path d="m358.956 111.975c8.76 0 16.619-2.876 22.729-8.317 1.197-1.067 2.336-2.241 3.383-3.491 2.661-3.174 2.244-7.905-.931-10.565-3.174-2.66-7.905-2.244-10.565.93-.581.693-1.207 1.34-1.863 1.924-3.367 2.999-7.657 4.519-12.753 4.519-13.688 0-24.825-11.137-24.825-24.825s11.137-24.825 24.825-24.825c4.976 0 9.773 1.464 13.875 4.235 3.432 2.318 8.094 1.416 10.413-2.017 2.318-3.432 1.416-8.094-2.017-10.413-6.591-4.452-14.292-6.806-22.271-6.806-21.96 0-39.825 17.866-39.825 39.825s17.865 39.826 39.825 39.826z"/><path d="m399.15 161.629h-46.17c-4.143 0-7.5 3.358-7.5 7.5s3.357 7.5 7.5 7.5h46.17c6.054 0 10.979 4.921 10.979 10.97v92.36c0 6.049-4.926 10.97-10.979 10.97h-92.35c-6.049 0-10.97-4.921-10.97-10.97v-92.36c0-6.049 4.921-10.97 10.97-10.97h11.181c4.143 0 7.5-3.358 7.5-7.5s-3.357-7.5-7.5-7.5h-11.181c-14.319 0-25.97 11.65-25.97 25.97v92.36c0 14.32 11.65 25.97 25.97 25.97h92.35c14.325 0 25.979-11.65 25.979-25.97v-92.36c0-14.319-11.654-25.97-25.979-25.97z"/><path d="m323.266 265.05c.067 2.327.603 4.711 2.348 6.373 1.404 1.395 3.304 2.177 5.283 2.177h.028c.554-.002 13.605-.053 18.817-.143 19.088-.334 32.941-17.023 32.941-39.682 0-23.821-13.506-39.825-33.607-39.825h-18.31c-1.991 0-3.901.792-5.309 2.202-1.406 1.41-2.195 3.321-2.191 5.312v.051.002zm25.811-56.1c13.72 0 18.607 12.824 18.607 24.825 0 12.128-5.629 24.464-18.203 24.684-2.541.044-7.126.08-11.109.104-.024-7.646-.059-19.162-.059-24.859 0-4.758-.02-16.802-.033-24.754z"/><path d="m449.95 47.325h54.549c4.143 0 7.5-3.358 7.5-7.5s-3.357-7.5-7.5-7.5h-54.549c-4.143 0-7.5 3.358-7.5 7.5s3.358 7.5 7.5 7.5z"/><path d="m449.95 79.65h34.346c4.143 0 7.5-3.358 7.5-7.5s-3.357-7.5-7.5-7.5h-34.346c-4.143 0-7.5 3.358-7.5 7.5s3.358 7.5 7.5 7.5z"/><path d="m449.95 111.975h34.346c4.143 0 7.5-3.358 7.5-7.5s-3.357-7.5-7.5-7.5h-34.346c-4.143 0-7.5 3.358-7.5 7.5s3.358 7.5 7.5 7.5z"/><path d="m504.499 193.95h-54.549c-4.143 0-7.5 3.358-7.5 7.5s3.357 7.5 7.5 7.5h54.549c4.143 0 7.5-3.358 7.5-7.5s-3.357-7.5-7.5-7.5z"/><path d="m484.296 226.275h-34.346c-4.143 0-7.5 3.358-7.5 7.5s3.357 7.5 7.5 7.5h34.346c4.143 0 7.5-3.358 7.5-7.5s-3.357-7.5-7.5-7.5z"/><path d="m484.296 258.601h-34.346c-4.143 0-7.5 3.358-7.5 7.5s3.357 7.5 7.5 7.5h34.346c4.143 0 7.5-3.358 7.5-7.5 0-4.143-3.357-7.5-7.5-7.5z"/><path d="m259.396 357.304-11.931-38.608c-4.426-14.338-19.601-22.873-33.823-19.028-4.773 1.29-9.006 3.754-12.389 7.15-5.658-12.357-19.239-19.071-32.48-15.491-4.829 1.305-9.103 3.81-12.505 7.265-2.807-5.648-7.306-10.037-12.65-12.702.45-1.927.682-3.914.682-5.933v-92.36c0-14.32-11.65-25.97-25.97-25.97h-92.36c-14.319 0-25.97 11.65-25.97 25.97v92.36c0 14.32 11.65 25.97 25.97 25.97h32.695l15.918 51.529c-4.299-.772-8.753-.51-13.048.815-11.685 3.612-19.535 14.248-19.535 26.466 0 2.738.417 5.487 1.244 8.183l25.843 83.658c3.091 9.968 9.188 18.482 17.641 24.631l12.91 9.36c1.33.964 2.87 1.428 4.396 1.428 2.321 0 4.611-1.075 6.078-3.098 2.431-3.353 1.684-8.043-1.67-10.475l-12.9-9.353c-5.809-4.225-10.002-10.081-12.126-16.928l-25.836-83.635c-2.132-6.602 1.725-13.943 8.382-15.904 6.477-2.149 14.02 1.821 15.889 8.387l14.29 46.254-4.552 8.622c-1.935 3.663-.533 8.2 3.13 10.134 1.117.59 2.314.869 3.495.869 2.692 0 5.295-1.454 6.64-3.999l6.003-11.37c.929-1.759 1.12-3.815.533-5.716l-50.984-165.043c-4.226-16.574 18.733-23.298 24.409-7.039l38.624 125.014c3.293 9.417 16.94 5.115 14.332-4.428l-18.487-59.839c-.006-.018-.014-.035-.019-.053-1.007-3.309-.643-6.799 1.03-9.834 1.678-3.045 4.457-5.224 7.817-6.132 6.516-1.755 13.512 2.275 15.585 8.997l18.348 59.362c3.293 9.417 16.94 5.115 14.332-4.428 0 0-12.514-40.516-12.52-40.538-1.028-3.326-.67-6.836 1.009-9.883 1.677-3.043 4.455-5.221 7.823-6.131 6.521-1.759 13.509 2.271 15.586 8.981l12.377 40.072c2.793 9.376 17.328 4.798 14.332-4.428l-6.287-20.352c-.994-3.299-.629-6.776 1.038-9.801 1.679-3.045 4.457-5.223 7.823-6.133 6.522-1.766 13.505 2.263 15.577 8.974l11.931 38.61c1.223 3.957 5.418 6.178 9.38 4.951 3.956-1.223 6.173-5.422 4.95-9.38zm-188.196-133.601c-1.345 0-3.846.007-6.594.017h-4.685v-14.77h11.279c4.067 0 7.376 3.309 7.376 7.376 0 4.068-3.309 7.377-7.376 7.377zm40.806 67.205-12.664-41.001c.001-.02.005-.04.006-.06.021-.407.032-.817.032-1.229 0-8.009-3.804-15.141-9.696-19.699 2.454-3.59 3.892-7.927 3.892-12.594 0-12.338-10.038-22.376-22.376-22.376h-18.779c-4.143 0-7.5 3.358-7.5 7.5v64.649c0 2.002.801 3.921 2.224 5.33.355.351.741.663 1.152.933l5.736 18.567h-28.062c-6.049 0-10.97-4.921-10.97-10.97v-92.36c0-6.049 4.921-10.97 10.97-10.97h92.36c6.049 0 10.97 4.921 10.97 10.97v92.36c0 1.084-.162 2.144-.466 3.158-1.539.144-3.087.416-4.63.832-4.685 1.266-8.848 3.663-12.199 6.96z"/><path d="m282.978 467.836-1.959-35.686c-.215-3.935-.911-7.817-2.063-11.525l-9.23-29.88c-1.223-3.957-5.419-6.173-9.38-4.952-3.957 1.223-6.175 5.422-4.952 9.38l9.234 29.892c.791 2.542 1.266 5.201 1.414 7.905l2.01 36.61c.033.611.142 1.217.322 1.802l10.91 35.33c.994 3.221 3.961 5.289 7.163 5.289.733 0 1.479-.108 2.216-.336 3.958-1.222 6.176-5.421 4.953-9.379z"/></g></g><g transform="matrix(0.1171875 0 0 0.1171875 69.00000137329107 41.00000274658214)" id="L1_24"><path d="m384.339 401.347 5.257-16.976v-363.313c0-5.211-4.224-9.436-9.435-9.436h-248.302c-5.211 0-9.435 4.224-9.435 9.436v363.313l5.257 16.976z" fill="#407093"/><path d="m122.424 384.371v65.395c0 5.211 4.224 9.436 9.435 9.436h248.301c5.211 0 9.435-4.224 9.435-9.436v-65.395z" fill="#dae7ef"/><path d="m380.161 11.623h-25.364v389.725h29.543l5.257-16.976v-363.314c-.001-5.211-4.225-9.435-9.436-9.435z" fill="#2b4d66"/><path d="m354.797 384.371v30.596c0 5.211-4.224 9.436-9.435 9.436h-222.938v25.364c0 5.211 4.224 9.436 9.435 9.436h248.301c5.211 0 9.435-4.224 9.435-9.436v-65.395h-34.798z" fill="#c1d5e4"/><path d="m380.16 467.087h-248.301c-9.551 0-17.321-7.77-17.321-17.321v-428.708c0-9.551 7.77-17.321 17.321-17.321h248.301c9.551 0 17.321 7.77 17.321 17.321v428.708c0 9.551-7.77 17.321-17.321 17.321zm-248.301-447.579c-.855 0-1.55.695-1.55 1.55v428.708c0 .855.695 1.55 1.55 1.55h248.301c.855 0 1.55-.695 1.55-1.55v-428.708c0-.855-.695-1.55-1.55-1.55z" fill="#98b9d3"/><path d="m509.242 405.167c-.335-2.106-.799-4.19-1.343-6.251l-31.147-117.963c-2.34-8.863-6.653-17.082-12.617-24.043-3.803-4.439-6.946-9.402-9.332-14.738l-49.757-111.249c-1.663-3.718-4.35-6.641-7.565-8.635v108.108l5.594 17.876c.959 3.065 1.445 6.259 1.439 9.471l-.084 52.396c-.021 12.76-10.37 23.093-23.13 23.093h-.116c-7.337-.067-14.244-3.468-18.771-9.243-8.056-10.278-20.001-25.552-20.001-25.552-6.737-8.678-17.531-14.082-28.527-14.105-8.069-.1-16.225 2.436-23.077 7.794-4.886 3.821-5.749 10.878-1.928 15.764l49.963 63.888c2.812 3.596 4.217 8.047 4.229 12.612.052 19.47 13.598 36.308 32.617 40.521l21.712 4.81c2.16.478 3.697 2.394 3.697 4.606v64.588c0 5.163 4.185 9.348 9.348 9.348l92.204-.186c5.163 0 9.348-4.185 9.348-9.348v-58.692c.002-11.68-.92-23.339-2.756-34.87z" fill="#eaac9d"/><circle cx="179" cy="92" r="20" fill="#dd5790"/><circle cx="332" cy="92" r="20" fill="#dd5790"/><circle cx="179" cy="162" r="20" fill="#dd5790"/><circle cx="254" cy="231" r="20" fill="#dd5790"/><path d="m247.784 76.432-13.434 23.269c-3.189 5.523.797 12.426 7.174 12.426h26.869c6.377 0 10.363-6.903 7.174-12.426l-13.434-23.269c-3.189-5.523-11.16-5.523-14.349 0z" fill="#f6e266"/><path d="m324.839 146.527-13.434 23.269c-3.189 5.523.797 12.426 7.174 12.426h26.869c6.377 0 10.363-6.903 7.174-12.426l-13.434-23.269c-3.189-5.523-11.16-5.523-14.349 0z" fill="#f6e266"/><path d="m172.015 216.621-13.434 23.269c-3.189 5.523.797 12.426 7.174 12.426h26.869c6.377 0 10.363-6.903 7.174-12.426l-13.434-23.269c-3.189-5.522-11.161-5.522-14.349 0z" fill="#f6e266"/><path d="m281.441 432.964h-50.862c-4.355 0-7.885-3.53-7.885-7.885s3.53-7.885 7.885-7.885h50.862c4.355 0 7.885 3.53 7.885 7.885s-3.53 7.885-7.885 7.885z" fill="#407093"/><path d="m352.029 252.317h-40.032c-2.761 0-5-2.239-5-5v-24.072c0-2.761 2.239-5 5-5h40.032c2.761 0 5 2.239 5 5v24.072c0 2.761-2.238 5-5 5z" fill="#61a2f9"/><path d="m274.985 179.552h-40.032c-2.761 0-5-2.239-5-5v-24.072c0-2.761 2.239-5 5-5h40.032c2.761 0 5 2.239 5 5v24.072c0 2.762-2.239 5-5 5z" fill="#61a2f9"/><path d="m509.242 405.167c-.335-2.106-.799-4.19-1.343-6.251l-31.147-117.963c-2.34-8.863-6.653-17.082-12.617-24.043-3.803-4.439-6.946-9.402-9.332-14.738l-49.757-111.249c-1.663-3.718-4.35-6.641-7.565-8.635v42.158l34.764 77.725c2.386 5.335 5.529 10.299 9.332 14.738 5.964 6.961 10.277 15.18 12.617 24.043l31.147 117.963c.544 2.062 1.008 4.145 1.343 6.251 1.836 11.531 2.758 23.19 2.758 34.87v58.692c0 5.163-4.185 9.348-9.348 9.348l-70.513.142c.286.026.574.044.867.044l92.204-.186c5.163 0 9.348-4.185 9.348-9.348v-58.692c0-11.679-.922-23.338-2.758-34.869z" fill="#df9380"/><path d="m221.19 292.125c-6.851-5.358-15.007-7.893-23.076-7.794-10.995.023-21.79 5.428-28.527 14.105 0 0-11.945 15.275-20.001 25.552-4.527 5.775-11.433 9.175-18.771 9.243h-.116c-12.76 0-23.11-10.333-23.13-23.093l-.084-52.396c-.005-3.212.48-6.406 1.44-9.471l5.614-17.938v-108.056c-3.223 1.995-5.918 4.921-7.584 8.647l-49.758 111.248c-2.386 5.335-5.529 10.299-9.332 14.738-5.964 6.961-10.277 15.18-12.617 24.043l-31.147 117.963c-.544 2.062-1.008 4.145-1.343 6.251-1.835 11.531-2.758 23.19-2.758 34.87v58.692c0 5.163 4.185 9.348 9.348 9.348l92.204.186c5.163 0 9.348-4.185 9.348-9.348v-64.588c0-2.212 1.537-4.128 3.697-4.606l21.712-4.81c19.018-4.213 32.565-21.052 32.617-40.521.012-4.565 1.417-9.017 4.229-12.612l49.963-63.888c3.821-4.887 2.958-11.944-1.928-15.765z" fill="#eaac9d"/><path d="m221.19 292.125c-3.481-2.722-7.299-4.712-11.271-6.001-.395 1.102-.962 2.163-1.722 3.136l-49.963 63.888c-2.812 3.596-4.217 8.048-4.229 12.613-.052 19.47-13.599 36.309-32.617 40.522l-28.134 7.279c-2.16.478-3.697 2.394-3.697 4.606v90.071l11.995.024c5.163 0 9.348-4.185 9.348-9.348v-64.588c0-2.212 1.537-4.128 3.697-4.606l21.712-4.81c19.018-4.213 32.566-21.052 32.617-40.522.012-4.565 1.417-9.017 4.229-12.613l49.963-63.888c3.821-4.885 2.958-11.942-1.928-15.763z" fill="#df9380"/></g><g transform="matrix(0.1171875 0 0 0.1171875 284.00000248909 60)" id="L1_25"><path d="m26.209 352.143 397.519 93.412c31.184-29.31 54.697-66.69 67.185-108.813l-5.374-155.555c-34.778-92.984-124.421-159.191-229.539-159.191-135.311 0-245.002 109.691-245.002 245.002 0 29.941 5.38 58.624 15.211 85.145z" fill="#49b1f7"/><path d="m255.432 269.805c0-5.762 0-4.036 0-7.767-10.046 8.981-27.275 20.424-41.463 20.768-.634-.015-1.276-.06-1.921-.119-1.438 16.351-6.924 46.617-27.515 67.208 0 0-.159.027-.423.08 5.765 4.215 11.878 7.935 18.324 11.087 7.747 3.787 16.632 3.787 24.377 0 24.163-11.815 43.822-31.384 56.854-56.591.511-.989 1.01-2.003 1.514-3.008-16.683-8.271-29.747-18.838-29.747-31.658z" fill="#ffaa7b"/><path d="m213.969 282.806c-14.189-.343-31.417-11.786-41.463-20.768v7.767c0 12.55-12.524 22.941-28.703 31.133.589 1.184 1.177 2.372 1.778 3.534 9.654 18.675 22.954 34.244 39.021 45.87 1.185-.326 1.932-.447 1.932-.447 20.543-20.543 26.051-50.715 27.505-67.092-.024 0-.047.003-.07.003z" fill="#fc9460"/><path d="m223.273 496.899c-5.807 3.136-12.802 3.136-18.609 0l-82.138-44.351v19.916c38.401 24.998 84.236 39.536 133.474 39.536 31.417 0 61.449-5.921 89.051-16.696 0-24.557 0-47.065 0-64.161z" fill="#d3dcfb"/><path d="m124.525 453.628-41.639-22.484v9.221c12.596 12.578 26.559 23.787 41.639 33.397 0-6.048 0-12.749 0-20.134z" fill="#a9b7ea"/><path d="m295.792 344.767c-14.798 19.182-33.409 34.522-54.924 45.043-16.677 8.154-35.809 8.155-52.489.001h.001c-8.061-3.942-15.714-8.56-22.912-13.804.169 1.203.391 2.446.712 3.76 0 0-18.292 3.451-9.807 22.55 0 0-33.848.433-33.848 48.933v3.298l82.138 44.351c5.807 3.136 12.803 3.136 18.609 0l121.778-65.756c0-8.406 0-15.607 0-21.206 0-10.216 2.368-19.562 6.231-28.023-14.982-15.155-33.702-28.333-55.489-39.147z" fill="#deeeff"/><path d="m124.525 455.628c0-1.433 0-2.892 0-4.378 0-48.5 33.848-48.933 33.848-48.933-8.486-19.099 9.807-22.55 9.807-22.55-.182-.743-.331-1.463-.463-2.17-12.923-9.064-24.438-20.095-34.265-32.832-22.228 11.032-41.258 24.528-56.39 40.07 3.619 8.219 5.824 17.255 5.824 27.103v21.207z" fill="#d3dcfb"/><path d="m295.792 344.767c-14.798 19.182-33.409 34.522-54.924 45.043-16.677 8.154-35.809 8.155-52.489.001h.001c-8.061-3.942-15.714-8.56-22.912-13.804.169 1.203.391 2.446.712 3.76 0 0-17.073 3.225-10.571 20.673 7.952 5.476 16.312 10.376 25.051 14.65 21.602 10.559 46.376 10.558 67.972-.002 27.425-13.411 51.166-32.938 70.03-57.375-7.182-4.625-14.815-8.947-22.87-12.946z" fill="#88ce65"/><path d="m133.452 344.766c-8.045 3.993-15.664 8.312-22.837 12.931 13.544 17.548 29.613 32.548 47.744 44.588-8.448-19.069 9.82-22.516 9.82-22.516-.182-.743-.331-1.463-.463-2.17-12.922-9.065-24.437-20.096-34.264-32.833z" fill="#6faf46"/><path d="m350.363 385.994c8.467-20.165 25.569-35.464 40.283-45.611-13.109-11.174-27.262-15.335-35.214-16.862 0 0-18.956-3.46-40.362-10.293-.979 2.005-1.971 3.989-2.98 5.941-5.166 9.992-11.193 19.271-17.982 27.77 22.062 10.749 41.039 23.9 56.255 39.055z" fill="#6faf46"/><path d="m77.946 386.928c15.371-15.55 34.675-29.02 57.19-39.99-6.788-8.499-12.816-17.779-17.982-27.77-1.07-2.069-2.118-4.176-3.154-6.305-21.865 7.074-41.495 10.658-41.495 10.658-7.953 1.527-22.106 5.688-35.214 16.862 14.939 10.302 32.329 25.921 40.655 46.545z" fill="#62992e"/><path d="m283.84 300.788c-.501 1.001-.998 2.011-1.507 2.996-12.882 24.918-32.309 44.26-56.18 55.932-7.326 3.582-15.733 3.582-23.06 0-6.227-3.045-12.143-6.624-17.728-10.675-.276.285-.55.573-.832.854 0 0-23.625 3.738-18.703 28.234 6.905 4.92 14.215 9.277 21.89 13.03 17.1 8.358 36.711 8.358 53.807-.001 30.675-15 55.536-39.655 71.896-71.3 1.048-2.027 2.076-4.089 3.092-6.173-10.893-3.419-22.516-7.722-32.675-12.897z" fill="#deeeff"/><path d="m146.913 303.784c-.599-1.16-1.186-2.345-1.774-3.526-10.05 5.232-21.644 9.59-32.579 13.068 1.071 2.206 2.155 4.389 3.262 6.532 12.723 24.61 30.606 44.967 52.349 59.869-6.308-25.944 18.362-29.831 18.362-29.831.003-.003.005-.005.008-.008-16.354-11.566-29.871-27.231-39.628-46.104z" fill="#d3dcfb"/><path d="m389.08 339.082c-20.56 14.084-46.029 38.301-46.029 71.856v85.127c13.162-5.005 25.78-11.11 37.744-18.206 0-22.297 0-41.083 0-52.684 0-24.06 14.48-43.068 30.417-56.707-.523-1.295-1.061-2.513-1.617-3.625-5.687-11.374-12.977-19.686-20.515-25.761z" fill="#88ce65"/><path d="m378.795 479.041c16.26-9.436 31.33-20.692 44.941-33.483-2.175-32.603-6.289-62.693-13.044-78.337-16.509 13.717-31.897 33.151-31.897 57.954z" fill="#deeeff"/><path d="m38.858 339.082c-4.39 3.539-8.694 7.843-12.649 13.062 12.734 34.354 32.955 65.067 58.677 90.176 0-12.841 0-23.638 0-31.381 0-33.557-25.469-57.773-46.028-71.857z" fill="#6faf46"/><path d="m213.969 0c-.67.011-1.368.036-2.077.069-1.818 1.623-37.519 34.362-.874 71.008 13.715 13.715 12.529 47.934 5.491 85.866h95.035c.087-.918.163-1.837.259-2.754 13.541-128.381-65.567-153.682-97.834-154.189z" fill="#9589e8"/><path d="m213.018 71.077c-37.591-37.591.951-71.077.951-71.077-32.267.507-111.375 25.808-97.834 154.188.097.917.172 1.836.259 2.754h102.114c7.038-37.932 8.225-72.15-5.49-85.865z" fill="#7e6dd1"/><path d="m306.88 302.608c-3.527 31.061-17.66 53.912-17.206 87.125.081 5.925-8.297 8.077-11.441 2.946-11.964-19.526-26.51-52.057-26.582-94.677 8.115-6.057 36.03-23.619 55.229 4.606z" fill="#9589e8"/><path d="m251.665 300.251c-.153-11.187.677-23.078 2.829-35.633 6.787-6.254 12.631-13.469 17.339-21.527 8.16-13.964 14.859-30.341 19.985-48.838.606 14.26 3.404 32.712 10.153 56.35 6.251 21.894 6.667 39.385 4.55 54.909-20.769-34.928-54.571-5.51-54.856-5.261z" fill="#7e6dd1"/><path d="m133.515 182.557s-4.987-31.561.757-50.357c-5.212-3.474-15.281-5.17-19.809-.743-9.272 9.064-2.478 22.752.773 31.398.998 2.655 1.642 5.34 1.933 8.03.633 5.845 3.802 14.4 16.942 14.198-.198-.841-.402-1.67-.596-2.526z" fill="#fc9460"/><path d="m313.471 131.457c-4.529-4.427-14.598-2.731-19.809.743 5.744 18.796.757 50.357.757 50.357-.194.856-.397 1.685-.596 2.527 13.141.202 16.31-8.353 16.942-14.198.291-2.69.935-5.375 1.933-8.03 3.252-8.647 10.045-22.335.773-31.399z" fill="#ffaa7b"/><path d="m121.049 302.608c3.526 31.061 17.66 53.912 17.206 87.125-.081 5.925 8.297 8.077 11.441 2.946 11.964-19.526 26.51-52.057 26.582-94.677-8.115-6.057-36.03-23.619-55.229 4.606z" fill="#9589e8"/><path d="m176.264 300.251c.153-11.187-.677-23.078-2.829-35.633-6.787-6.254-12.631-13.469-17.339-21.527-8.16-13.964-14.859-30.341-19.985-48.838-.606 14.26-3.404 32.712-10.153 56.35-6.251 21.894-6.667 39.385-4.55 54.909 20.769-34.928 54.571-5.51 54.856-5.261z" fill="#7e6dd1"/><path d="m289.339 122.421c-1.893-2.134-2.935-4.627-3.012-7.209-.293-9.828-2.775-33.882-19.445-44.983-11.825-7.874-28.448-7.792-49.408.246-2.262.867-4.753.867-7.014 0-.21-.081-.413-.148-.623-.227-13.814 12.257-16.023 34.023-16.301 43.343-.079 2.653-1.148 5.212-3.094 7.403-10.72 12.081-8.372 47.375-5.871 61.906 5.539 24.449 13.562 45.767 23.844 63.364 7.452 12.753 17.647 23.475 29.951 31.635 13.919-8.214 25.364-19.62 33.472-33.497 10.011-17.13 17.823-37.889 23.228-61.742 2.34-14.875 4.832-48.341-5.727-60.239z" fill="#ffc7ab"/><path d="m209.259 244.401c-10.012-17.135-17.825-37.893-23.218-61.7-2.436-14.149-4.722-48.517 5.717-60.28 1.895-2.134 2.936-4.626 3.013-7.209.286-9.586 2.661-32.702 18.247-44.136-.868-.085-1.729-.284-2.558-.602-20.96-8.035-37.584-8.118-49.407-.247-16.67 11.101-19.152 35.157-19.445 44.984-.077 2.583-1.118 5.075-3.013 7.209-10.439 11.763-8.153 46.131-5.717 60.28 5.394 23.807 13.206 44.565 23.218 61.7 10.164 17.395 25.557 30.924 44.513 39.125 8.491 3.672 18.227 3.673 26.716 0 4.63-2.003 9.043-4.329 13.224-6.946-12.937-8.099-23.609-19.032-31.29-32.178z" fill="#ffaa7b"/><path d="m463.175 136.188c-31.835-50.317-81.489-88.234-140.096-104.884-2.457 13.619-3.022 31.352 4.586 47.737 15.186 32.709 37.67 77.93 77.178 77.93 26.304 0 43.664-4.768 58.332-20.783z" fill="#73c3f9"/><path d="m86.213 191.101c-18.857-28.394-20.337-60.001-18.454-80.911-35.434 42.49-56.761 97.155-56.761 156.808 0 13.661 1.132 27.057 3.284 40.109 82.814 6.883 101.234-71.884 71.931-116.006z" fill="#73c3f9"/><path d="m353.974 198.933c1.558.686 3.116 1.333 4.675 1.962 0-10.754-8.615-19.555-19.368-19.725-2.153-.034-4.303.046-6.44.238-10.068.904-17.698 9.511-17.698 19.619v2.039c11.112-8.131 25.961-9.805 38.831-4.133z" fill="#a9b7ea"/><path d="m485.538 181.188c-.524-.005-1.048-.025-1.573-.017-10.753.17-19.368 8.971-19.368 19.725 1.453-.586 2.903-1.186 4.347-1.819 6.943-3.042 14.435-3.991 21.62-2.993-1.52-5.036-3.196-10.003-5.026-14.896z" fill="#d3dcfb"/><path d="m500.992 267.739-5.472-52.43.007-.002c-1.516-7.058-3.329-14.005-5.439-20.823-7.04-.89-14.354.083-21.144 3.057-8.871 3.886-17.913 6.881-27.076 8.955v22.253c0 16.677-13.569 30.246-30.246 30.246-.775 0-1.541-.039-2.301-.096.276.403.559.807.851 1.214-1.938 2.647-3.762 7.688.299 12.102v8.031c-1.579 1.505-7.213 7.438-7.511 15.699-.205 5.688 2.174 11.194 7.063 16.381h47.236c9.125.177 17.697 4.409 23.387 11.544l10.266 12.874c6.487-21.882 10.011-45.035 10.083-69.005z" fill="#55405e"/><path d="m411.623 280.752v-9c-5.479-5.479 0-11.605 0-11.605-.29-.393-.569-.783-.844-1.173-16.288-.45-29.401-13.83-29.401-30.224v-22.253c-9.132-2.068-18.28-5.079-27.403-9.1-14.731-6.492-32.055-3.362-43.399 8.059-39.729 39.997-45.307 97.19-42.438 140.06 1.567 23.42 31.206 32.595 45.84 14.244l28.623-35.892c5.69-7.135 14.263-11.367 23.388-11.544h45.636c-16.928-16.924-.002-31.572-.002-31.572z" fill="#45304c"/><path d="m495.651 216.325c-2.916-1.007-6.042-1.563-9.301-1.563-15.746 0-28.511 12.765-28.511 28.511s12.765 28.511 28.511 28.511c5.354 0 10.362-1.479 14.642-4.046.001-.247.01-.493.01-.74 0-3.643-.098-7.263-.256-10.868z" fill="#34243a"/><path d="m495.521 215.309c-1.962-2.943-5.209-4.943-8.962-5.012-6.254-.115-11.36 4.921-11.36 11.149v2.359c0 2.738-1.329 5.159-3.37 6.675.001 3.202.602 12.506 7.102 19.456 4.726 5.053 11.518 7.7 20.19 7.889.461-.627 1.016-1.177 1.631-1.654-.608-13.956-2.384-27.607-5.231-40.862z" fill="#876d93"/><path d="m466.882 254.424c4.593 0 8.317 3.724 8.317 8.317v1.99c0 6.14 4.803 11.407 10.942 11.519 6.254.114 11.36-4.921 11.36-11.149v-2.36c0-2.387 1.011-4.532 2.621-6.049-28.946 0-27.117-27.272-27.117-27.272-1.52 1.657-3.697 2.702-6.123 2.702h-1.99c-6.14 0-11.407 4.803-11.519 10.942-.114 6.254 4.921 11.36 11.149 11.36z" fill="#6e5779"/><path d="m491.478 265.275c0 2.832-2.296 5.128-5.128 5.128s-5.128-2.296-5.128-5.128 2.296-5.128 5.128-5.128c2.832.001 5.128 2.296 5.128 5.128z" fill="#876d93"/><ellipse cx="336px" cy="243px" rx="28px" ry="28px" transform="matrix(0.23 -0.973 0.973 0.23 22.727 515.264)" fill="#34243a"/><path d="m358.353 232.122h-1.99c-4.593 0-8.317-3.724-8.317-8.317v-1.99c0-6.14-4.803-11.406-10.942-11.519-6.254-.115-11.36 4.921-11.36 11.149v2.36c0 2.738-1.329 5.159-3.37 6.675.001 3.202.602 12.506 7.102 19.456 4.726 5.053 11.518 7.7 20.19 7.889 1.514-2.059 3.946-3.401 6.698-3.401h2.36c6.228 0 11.264-5.106 11.149-11.36-.113-6.138-5.38-10.942-11.52-10.942z" fill="#6e5779"/><path d="m317.428 254.424c4.593 0 8.317 3.724 8.317 8.317v1.99c0 6.14 4.803 11.407 10.942 11.519 6.254.114 11.36-4.921 11.36-11.149v-2.36c0-2.387 1.011-4.532 2.621-6.049-28.946 0-27.117-27.272-27.117-27.272-1.52 1.657-3.697 2.702-6.123 2.702h-1.99c-6.14 0-11.407 4.803-11.519 10.942-.114 6.254 4.921 11.36 11.149 11.36z" fill="#55405e"/><path d="m342.023 265.275c0 2.832-2.296 5.128-5.128 5.128s-5.128-2.296-5.128-5.128 2.296-5.128 5.128-5.128c2.832.001 5.128 2.296 5.128 5.128z" fill="#6e5779"/><path d="m314.894 238.146c2.832 0 5.128 2.296 5.128 5.128s-2.296 5.128-5.128 5.128-5.128-2.296-5.128-5.128c0-2.833 2.296-5.128 5.128-5.128z" fill="#6e5779"/><path d="m358.897 238.146c2.832 0 5.128 2.296 5.128 5.128s-2.296 5.128-5.128 5.128-5.128-2.296-5.128-5.128c.001-2.833 2.296-5.128 5.128-5.128z" fill="#876d93"/><path d="m420.367 280.752h-17.488c-2.475 0-4.5-2.025-4.5-4.5 0-2.475 2.025-4.5 4.5-4.5h17.488c2.475 0 4.5 2.025 4.5 4.5-.001 2.475-2.026 4.5-4.5 4.5z" fill="#73c3f9"/><ellipse cx="362px" cy="301px" rx="24px" ry="24px" transform="matrix(0.267 -0.964 0.964 0.267 -24.952 569.893)" fill="#34243a"/><ellipse cx="461px" cy="301px" rx="24px" ry="24px" transform="matrix(0.267 -0.964 0.964 0.267 47.619 665.297)" fill="#45304c"/><ellipse cx="461px" cy="301px" rx="13px" ry="13px" transform="matrix(0.924 -0.383 0.383 0.924 -80.22 199.402)" fill="#6e5779"/><ellipse cx="464px" cy="296px" rx="8px" ry="8px" transform="matrix(0.924 -0.383 0.383 0.924 -78.236 200.476)" fill="#876d93"/><path d="m410.08 209.886c-3.632 4.166-18.675 24.119.091 50.224.482.022.965.037 1.452.037 17.269 0 31.398-14.129 31.398-31.398v-22.522c-10.834 2.548-21.841 3.784-32.941 3.659z" fill="#45304c"/><path d="m411.623 209.908-.001-.002c-10.402.003-20.889-1.197-31.397-3.669v22.513c0 17.269 14.129 31.398 31.398 31.398-21.581-29.176 0-50.24 0-50.24z" fill="#34243a"/><ellipse cx="362px" cy="301px" rx="13px" ry="13px" transform="matrix(0.924 -0.383 0.383 0.924 -87.756 161.518)" fill="#55405e"/><ellipse cx="365px" cy="296px" rx="8px" ry="8px" transform="matrix(0.924 -0.383 0.383 0.924 -85.772 162.591)" fill="#6e5779"/></g><g transform="matrix(0.1171875 0 0 0.1171875 37.00000082969666 179)" id="L1_26"><path d="m425.306 444.084c30.41-29.082 53.328-65.924 65.607-107.341l-5.374-155.555c-34.778-92.985-124.421-159.192-229.539-159.192-135.311 0-245.002 109.691-245.002 245.002 0 28.886 5.014 56.596 14.194 82.329z" fill="#fc90ce"/><path d="m258.232 305.634c-5.8-10.542-7.506-24.923-7.875-35.642-5.298 6.171-10.858 11.333-16.171 15.459-10.352 8.038-23.125 12.404-36.282 12.404-.501 0-1-.018-1.499-.031l-.003.109.015.112c.053.418 5.114 41.759-12.594 59.941-.954.274-3.376 1.052-6.222 2.533 19.717 6.653 42.042 3.301 59.042-9.901 7.93-6.158 21.233-18.195 32.341-36.459-4.566-1.313-8.455-4.351-10.752-8.525z" fill="#ffaa7b"/><path d="m197.904 297.855c-13.156 0-25.93-4.366-36.281-12.404-5.313-4.126-10.874-9.288-16.172-15.459-.369 10.719-2.075 25.101-7.876 35.643-2.297 4.174-6.185 7.212-10.752 8.526 11.109 18.264 24.412 30.301 32.341 36.459 6.266 4.866 13.234 8.376 20.513 10.555 2.825-1.318 4.929-1.846 4.929-1.846 18.766-18.765 13.298-61.474 13.298-61.474z" fill="#fc9460"/><path d="m205.252 506.724c16.375 3.449 33.347 5.276 50.748 5.276 28.727 0 56.291-4.96 81.904-14.044 0-23.193 0-45.5 0-58.658 0-1.356.087-2.747.234-4.16l-130.693 70.57c-.715.386-1.448.723-2.193 1.016z" fill="#45304c"/><path d="m275.041 357.778c-6.973 7.344-13.445 12.889-18.29 16.651-26.715 20.746-61.735 25.366-92.143 14.161.126.479.262.961.413 1.448-2.579.963-7.747 3.455-10.328 8.619-1.905 3.811-2.01 8.26-.318 13.247-3.603.554-11.707 2.17-19.909 6.33-14.474 7.34-22.124 19.102-22.124 34.016v13.196c28.05 20.342 60.572 34.895 95.826 41.872l129.8-70.087c.296-5.456 1.725-11.346 3.937-17.421-14.271-34.477-48.978-53.963-66.864-62.032z" fill="#55405e"/><path d="m113.841 452.25c0-35 42.603-39.106 42.603-39.106-7.306-17.606 10.473-22.148 10.473-22.148-.214-.606-.39-1.191-.563-1.776-9.671-3.352-18.908-8.277-27.296-14.79-4.845-3.763-11.318-9.307-18.29-16.651-16.357 7.379-46.769 24.313-62.766 53.519 15.528 21.27 34.399 39.94 55.839 55.243 0-4.442 0-9.203 0-14.291z" fill="#45304c"/><path d="m275.04 357.778c-6.973 7.344-13.445 12.889-18.29 16.651-26.715 20.746-61.734 25.366-92.143 14.161.126.479.262.962.413 1.448-2.579.963-7.747 3.455-10.328 8.619-1.905 3.811-2.01 8.26-.318 13.247-.229.035-.477.075-.742.119 14.091 5.802 29.116 8.862 44.272 8.862 27.99 0 55.538-10.414 77.57-29.324 5.865-5.034 13.53-12.241 21.846-21.664-8.381-5.412-16.278-9.411-22.28-12.119z" fill="#6faf46"/><path d="m156.444 413.142c-7.304-17.605 10.473-22.147 10.473-22.147-.214-.606-.39-1.191-.563-1.776-9.671-3.352-18.908-8.277-27.296-14.79-4.845-3.763-11.318-9.307-18.29-16.651-6.001 2.707-13.898 6.707-22.279 12.12 8.316 9.423 15.98 16.63 21.845 21.664 10.892 9.348 23.134 16.616 36.11 21.58z" fill="#62992e"/><path d="m382.046 356.711c-6.348-4.401-13.262-8.072-20.632-10.873l-60.677-23.059c-8.391 15.197-18.188 27.28-27.041 36.399 17.281 7.61 52.933 26.93 67.812 61.707 8.077-23.082 27.91-49.082 40.538-64.174z" fill="#88ce65"/><path d="m95.071 322.78-69.879 26.548c8.089 22.676 19.422 43.808 33.445 62.84 16.614-29.324 47.698-46.041 63.476-52.989-8.855-9.12-18.651-21.203-27.042-36.399z" fill="#6faf46"/><path d="m272.209 312.923c-2.451-.675-5.044.324-6.441 2.449-10.512 15.998-22.418 26.699-29.734 32.381-10.818 8.401-24.36 13.028-38.13 13.028-5.449 0-10.859-.736-16.082-2.132-3.948 1.451-11.71 5.123-15.725 12.604-2.901 5.406-3.262 11.72-1.077 18.785-.12.045-.25.096-.381.148 10.613 3.844 21.888 5.883 33.265 5.883 21.568 0 42.796-7.26 59.774-20.444 10.891-8.458 29.825-25.679 44.464-52.25-14.189-6.101-24.356-8.916-29.933-10.452z" fill="#deeeff"/><path d="m159.774 347.753c-7.314-5.68-19.216-16.377-29.726-32.368-1.397-2.126-3.997-3.124-6.449-2.447-5.59 1.545-15.618 4.282-29.933 10.436 14.639 26.57 33.573 43.792 44.464 52.25 8.66 6.725 18.43 11.898 28.784 15.364-8.825-24.998 17.693-31.66 17.693-31.66-9.005-1.971-17.539-5.911-24.833-11.575z" fill="#a9b7ea"/><path d="m380.234 355.486c-16.137 19.258-44.33 56.645-44.33 82.813v60.362c14.465-4.988 28.319-11.288 41.414-18.766 0-11.49 0-21.602 0-28.82 0-19.865 17.026-46.498 31.741-65.811-7.297-11.891-17.141-22.065-28.825-29.778z" fill="#55405e"/><path d="m425.306 444.084c-.713-10.448-2.348-22.646-5.779-34.89-2.545-9.081-6.42-17.596-11.378-25.359-14.95 19.411-32.832 46.882-32.832 67.239v29.938c18.222-10.18 35.015-22.608 49.989-36.928z" fill="#88ce65"/><g><path d="m291.09 58.747c-19.703-46.332-63.98-57.021-94.338-58.539l.035.122s29.386 17.659 8.221 30.71c-21.165 13.052-17.593 31.021-9.221 39.393 7.15 7.15-20.003 69.579-28.08 87.648h125.631c6.505-26.523 11.816-66.266-2.248-99.334z" fill="#55405e"/><path d="m197.904 70.433c-8.372-8.372-11.944-26.341 9.221-39.393s-8.221-30.71-8.221-30.71c-12.504-.792-22.892.009-28.627.667-2.058.236-3.092 2.585-1.921 4.294 11.756 17.162-34.301 1.613-59.334 54.123-15.866 33.28-11.88 72.462-6.079 98.667h66.88c8.078-18.069 35.231-80.497 28.081-87.648z" fill="#34243a"/><path d="m297.161 154.719c-4.103-3.76-13.276-1.854-16.81.448.774 4.821.818 9.753.149 14.623l-4.17 30.372c0 2.448-.077 4.85-.219 7.21 10.169 3.067 16.22-6.062 17.071-12.327.366-2.697.965-5.355 1.796-7.949 2.705-8.445 12.463-22.955 2.183-32.377z" fill="#ffaa7b"/><path d="m98.647 154.719c4.103-3.76 13.276-1.854 16.81.448-.774 4.821-.818 9.753-.149 14.623l4.17 30.372c0 2.448.077 4.85.219 7.21-10.169 3.067-16.22-6.062-17.071-12.327-.366-2.697-.965-5.355-1.796-7.949-2.705-8.445-12.463-22.955-2.183-32.377z" fill="#fc9460"/><path d="m275.229 138.517c-4.621-7.249-3.09-13.17-3.015-20.103 0 0 3.897-31.917-35.411-43.25-11.049-3.185-26.509-5.125-42.459-4.658-7.957 7.924-12.899 18.517-12.899 32.411 0 7.908 1.671 14.086-3.086 22.103-5.129 8.645-8.114 21.116-6.419 34.377l4.269 33.401c0 48.018 23.859 80.657 44.154 97.588 1.731 1.444 3.533 2.771 5.388 3.993 2.948-1.57 5.773-3.39 8.436-5.457 19.831-15.4 43.145-45.085 43.145-88.759l4.171-30.372c1.641-11.966-1.211-23.331-6.274-31.274z" fill="#ffc7ab"/><path d="m220.533 288c-19.831-16.545-43.145-48.438-43.145-95.359l-4.171-32.638c-1.656-12.959 1.26-25.144 6.272-33.592 4.648-7.834 3.015-13.871 3.015-21.599 0-15.218 6.056-26.393 15.542-34.373-35.258.223-74.451 11.924-74.451 47.975 0 7.192 1.633 12.812-3.015 20.104-5.012 7.863-7.928 19.205-6.272 31.267l4.171 30.379c0 43.674 23.314 73.359 43.145 88.759 10.351 8.038 23.125 12.404 36.281 12.404 10.587 0 20.924-2.832 29.952-8.125-2.547-1.533-5-3.262-7.324-5.202z" fill="#ffaa7b"/></g><path d="m204.902 161.169c1.542 8.237 4.957 19.267 12.515 27.741 3.564 3.996 8.711 6.224 14.066 6.224h29.637c5.725 0 11.071-2.979 13.956-7.924 3.087-5.292 6.587-13.214 8.206-23.702 1.123-7.28-3.179-14.32-10.122-16.782-12.981-4.602-35.689-9.88-58.645-2.013-6.839 2.344-10.943 9.351-9.613 16.456z" fill="#45304c"/><path d="m190.906 161.169c-1.542 8.237-4.957 19.267-12.515 27.741-3.564 3.996-8.711 6.224-14.066 6.224h-29.637c-5.725 0-11.071-2.979-13.956-7.924-3.088-5.292-6.587-13.214-8.206-23.702-1.123-7.28 3.179-14.32 10.122-16.782 12.981-4.602 35.689-9.88 58.645-2.013 6.839 2.344 10.943 9.351 9.613 16.456z" fill="#34243a"/><path d="m209.571 173.115c-1.468 0-2.939-.535-4.096-1.617-1.692-1.582-4.523-2.526-7.571-2.526s-5.879.945-7.571 2.526c-2.42 2.264-6.217 2.136-8.48-.285s-2.135-6.217.285-8.48c3.915-3.661 9.662-5.761 15.766-5.761s11.851 2.1 15.766 5.761c2.42 2.263 2.548 6.06.285 8.48-1.181 1.263-2.78 1.902-4.384 1.902z" fill="#876d93"/><path d="m106.871 260.961c6.526-34.191-50.072-74.571-61.574-119.026-21.778 36.611-34.299 79.372-34.299 125.063 0 16.806 1.709 33.21 4.936 49.063 33.109-2.976 83.147-14.287 90.937-55.1z" fill="#fea5da"/><path d="m463.175 136.188c-31.835-50.317-81.489-88.234-140.096-104.884-2.457 13.619-3.022 31.351 4.586 47.737 15.186 32.709 37.67 77.93 77.178 77.93 26.304 0 43.664-4.768 58.332-20.783z" fill="#fea5da"/><path d="m234.597 140.83c-6.509.383-13.284 1.553-20.082 3.883-1.766.605-3.346 1.526-4.701 2.675l47.745 47.745h3.561c5.725 0 11.071-2.979 13.956-7.924.673-1.154 1.366-2.442 2.055-3.846z" fill="#55405e"/><path d="m273.16 146.726c-4.943-1.752-11.298-3.601-18.538-4.786l27.493 27.493c.45-1.875.847-3.848 1.167-5.925 1.123-7.28-3.179-14.32-10.122-16.782z" fill="#55405e"/><path d="m353.974 198.933c1.558.686 3.116 1.333 4.675 1.962 0-10.754-8.615-19.555-19.368-19.725-2.153-.034-4.303.046-6.44.238-10.068.904-17.698 9.511-17.698 19.619v2.039c11.112-8.131 25.961-9.805 38.831-4.133z" fill="#a9b7ea"/><path d="m485.538 181.188c-.524-.005-1.048-.025-1.573-.017-10.753.17-19.368 8.971-19.368 19.725 1.453-.586 2.903-1.186 4.347-1.819 6.943-3.042 14.435-3.991 21.62-2.993-1.52-5.036-3.196-10.003-5.026-14.896z" fill="#d3dcfb"/><path d="m500.992 267.739-5.472-52.43h.007c-1.516-7.058-3.329-14.006-5.439-20.824-7.04-.89-14.354.083-21.144 3.057-8.871 3.886-17.913 6.881-27.076 8.955v22.253c0 16.677-13.569 30.246-30.246 30.246-.775 0-1.541-.039-2.301-.096.276.403.559.807.851 1.214-1.938 2.647-3.762 7.688.299 12.102v8.031c-1.579 1.505-7.213 7.438-7.511 15.699-.205 5.688 2.174 11.194 7.063 16.381h47.236c9.125.177 17.697 4.409 23.387 11.544l10.266 12.874c6.487-21.882 10.012-45.037 10.083-69.008 0-.001-.003.002-.003.002z" fill="#55405e"/><path d="m411.623 280.752v-9c-5.479-5.479 0-11.605 0-11.605-.29-.393-.569-.783-.844-1.173-16.288-.45-29.401-13.83-29.401-30.224v-22.253c-9.132-2.068-18.281-5.079-27.403-9.1-14.731-6.492-32.055-3.362-43.399 8.059-39.729 39.997-45.307 97.19-42.438 140.06 1.567 23.42 31.206 32.595 45.84 14.244l28.623-35.892c5.69-7.135 14.263-11.367 23.388-11.544h45.636c-16.928-16.924-.002-31.572-.002-31.572z" fill="#45304c"/><path d="m495.651 216.326c-2.916-1.007-6.042-1.563-9.301-1.563-15.746 0-28.511 12.765-28.511 28.511s12.765 28.511 28.511 28.511c5.354 0 10.362-1.479 14.642-4.046.001-.247.009-.493.009-.74 0-3.644-.098-7.264-.257-10.869z" fill="#34243a"/><path d="m495.521 215.309c-1.962-2.943-5.209-4.943-8.962-5.012-6.254-.115-11.36 4.921-11.36 11.149v2.359c0 2.738-1.329 5.159-3.37 6.675.001 3.202.602 12.506 7.102 19.456 4.726 5.053 11.518 7.7 20.19 7.889.461-.627 1.016-1.177 1.631-1.654-.608-13.956-2.384-27.607-5.231-40.862z" fill="#876d93"/><path d="m466.882 254.424c4.593 0 8.317 3.724 8.317 8.317v1.99c0 6.14 4.803 11.407 10.942 11.519 6.254.114 11.36-4.921 11.36-11.149v-2.36c0-2.387 1.011-4.532 2.621-6.049-28.946 0-27.117-27.272-27.117-27.272-1.52 1.657-3.697 2.702-6.123 2.702h-1.99c-6.14 0-11.407 4.803-11.519 10.942-.114 6.254 4.921 11.36 11.149 11.36z" fill="#6e5779"/><path d="m491.478 265.275c0 2.832-2.296 5.128-5.128 5.128s-5.128-2.296-5.128-5.128 2.296-5.128 5.128-5.128c2.832.001 5.128 2.296 5.128 5.128z" fill="#876d93"/><ellipse cx="336px" cy="243px" rx="28px" ry="28px" transform="matrix(0.23 -0.973 0.973 0.23 22.727 515.264)" fill="#34243a"/><path d="m358.353 232.122h-1.99c-4.593 0-8.317-3.724-8.317-8.317v-1.99c0-6.14-4.803-11.406-10.942-11.519-6.254-.115-11.36 4.921-11.36 11.149v2.36c0 2.738-1.329 5.159-3.37 6.675.001 3.202.601 12.506 7.102 19.456 4.726 5.053 11.518 7.7 20.19 7.889 1.514-2.059 3.946-3.401 6.698-3.401h2.36c6.228 0 11.264-5.106 11.149-11.36-.113-6.138-5.38-10.942-11.52-10.942z" fill="#6e5779"/><path d="m317.428 254.424c4.593 0 8.317 3.724 8.317 8.317v1.99c0 6.14 4.803 11.407 10.942 11.519 6.254.114 11.36-4.921 11.36-11.149v-2.36c0-2.387 1.011-4.532 2.621-6.049-28.946 0-27.117-27.272-27.117-27.272-1.52 1.657-3.697 2.702-6.123 2.702h-1.99c-6.14 0-11.407 4.803-11.519 10.942-.114 6.254 4.921 11.36 11.149 11.36z" fill="#55405e"/><path d="m342.023 265.275c0 2.832-2.296 5.128-5.128 5.128s-5.128-2.296-5.128-5.128 2.296-5.128 5.128-5.128c2.832.001 5.128 2.296 5.128 5.128z" fill="#6e5779"/><path d="m314.894 238.146c2.832 0 5.128 2.296 5.128 5.128s-2.296 5.128-5.128 5.128-5.128-2.296-5.128-5.128c0-2.833 2.296-5.128 5.128-5.128z" fill="#6e5779"/><path d="m358.897 238.146c2.832 0 5.128 2.296 5.128 5.128s-2.296 5.128-5.128 5.128-5.128-2.296-5.128-5.128c.001-2.833 2.296-5.128 5.128-5.128z" fill="#876d93"/><path d="m420.367 280.752h-17.488c-2.475 0-4.5-2.025-4.5-4.5 0-2.475 2.025-4.5 4.5-4.5h17.488c2.475 0 4.5 2.025 4.5 4.5-.001 2.475-2.026 4.5-4.5 4.5z" fill="#73c3f9"/><ellipse cx="362px" cy="301px" rx="24px" ry="24px" transform="matrix(0.267 -0.964 0.964 0.267 -24.952 569.893)" fill="#34243a"/><ellipse cx="461px" cy="301px" rx="24px" ry="24px" transform="matrix(0.267 -0.964 0.964 0.267 47.619 665.297)" fill="#45304c"/><ellipse cx="461px" cy="301px" rx="13px" ry="13px" transform="matrix(0.924 -0.383 0.383 0.924 -80.22 199.402)" fill="#6e5779"/><ellipse cx="464px" cy="296px" rx="8px" ry="8px" transform="matrix(0.924 -0.383 0.383 0.924 -78.236 200.476)" fill="#876d93"/><path d="m410.08 209.886c-3.632 4.166-18.675 24.119.091 50.224.482.022.965.037 1.452.037 17.269 0 31.398-14.129 31.398-31.398v-22.522c-10.834 2.548-21.841 3.784-32.941 3.659z" fill="#45304c"/><path d="m411.623 209.908-.001-.002c-10.402.003-20.889-1.197-31.397-3.669v22.513c0 17.269 14.129 31.398 31.398 31.398-21.581-29.176 0-50.24 0-50.24z" fill="#34243a"/><ellipse cx="362px" cy="301px" rx="13px" ry="13px" transform="matrix(0.924 -0.383 0.383 0.924 -87.756 161.518)" fill="#55405e"/><ellipse cx="365px" cy="296px" rx="8px" ry="8px" transform="matrix(0.924 -0.383 0.383 0.924 -85.772 162.591)" fill="#6e5779"/></g><g transform="matrix(0.11731351912021637 0 0 0.11731351912021637 267.00000166117775 314.00000343691954)" id="L1_28"><path d="m264.118 58.883c-.167 0-.333-.006-.5-.006-108.654 0-196.735 88.081-196.735 196.735s88.081 196.735 196.735 196.735c.167 0 .333-.006.5-.006z" fill="#fdb441"/><g><path d="m264.118 160.379c-4.142 0-7.5-3.357-7.5-7.5v-145.269c0-4.143 3.358-7.5 7.5-7.5s7.5 3.357 7.5 7.5v145.27c0 4.142-3.358 7.499-7.5 7.499z" fill="#fec165"/><path d="m264.118 511.45c-4.142 0-7.5-3.357-7.5-7.5v-94.38c0-4.143 3.358-7.5 7.5-7.5s7.5 3.357 7.5 7.5v94.38c0 4.142-3.358 7.5-7.5 7.5z" fill="#fec165"/><path d="m264.12 101.986c-85.49 0-154.79 69.3-154.79 154.79 0 82.975 65.284 150.694 147.29 154.606l.185-.433 1.964.306.851.242c1.495.043 2.995.07 4.5.07l51.353-65.952v-189.773z" fill="#fedf30"/><path d="m165.156 258.042c0-67.858 40.253-126.706 99.141-155.864l-.168-.192c-85.49 0-154.801 69.304-154.801 154.794 0 83.984 66.892 152.335 150.3 154.716-56.329-29.909-94.472-87.41-94.472-153.454z" fill="#fed402"/><path d="m264.129 101.986c85.49 0 154.779 69.304 154.779 154.794s-69.3 154.79-154.79 154.79z" fill="#f3eae6" id="XMLID_200_"/><path d="m38.676 264.28h-21.725c-4.142 0-7.5-3.357-7.5-7.5s3.358-7.5 7.5-7.5h21.726c4.142 0 7.5 3.357 7.5 7.5-.001 4.142-3.359 7.5-7.501 7.5z" fill="#fedba6"/><path d="m173.999 62.845c-2.867 0-5.604-1.652-6.851-4.439l-11.635-26.005c-1.691-3.78.002-8.217 3.783-9.908 3.783-1.691 8.218.002 9.909 3.783l11.635 26.005c1.691 3.78-.002 8.217-3.783 9.908-.994.445-2.035.656-3.058.656z" fill="#fedba6"/><path d="m58.049 167.942c-1.064 0-2.144-.228-3.172-.708l-19.653-9.188c-3.752-1.754-5.372-6.218-3.617-9.971 1.754-3.752 6.219-5.371 9.97-3.617l19.653 9.188c3.752 1.754 5.372 6.218 3.618 9.971-1.274 2.724-3.977 4.325-6.799 4.325z" fill="#fedba6"/><path d="m104.006 102.757c-1.931 0-3.86-.74-5.327-2.22l-86.99-87.756c-2.916-2.943-2.895-7.691.047-10.607 2.941-2.917 7.69-2.896 10.606.046l86.991 87.757c2.916 2.942 2.895 7.69-.047 10.606-1.462 1.451-3.371 2.174-5.28 2.174z" fill="#fec165"/><path d="m162.355 491.723c-1.023 0-2.063-.211-3.059-.656-3.781-1.691-5.475-6.128-3.783-9.908l11.635-26.005c1.691-3.781 6.126-5.476 9.909-3.783 3.781 1.691 5.475 6.128 3.783 9.908l-11.635 26.005c-1.245 2.786-3.983 4.439-6.85 4.439z" fill="#fedba6"/><path d="m38.406 369.81c-2.822 0-5.525-1.601-6.799-4.325-1.754-3.753-.135-8.217 3.617-9.971l19.653-9.188c3.754-1.755 8.217-.134 9.971 3.617 1.754 3.753.135 8.217-3.618 9.971l-19.653 9.188c-1.027.481-2.108.708-3.171.708z" fill="#fedba6"/><path d="m18.927 508.139c-1.909 0-3.817-.724-5.28-2.174-2.942-2.916-2.963-7.664-.047-10.606l86.991-87.757c2.917-2.942 7.666-2.963 10.606-.046 2.942 2.916 2.963 7.664.047 10.606l-86.991 87.757c-1.466 1.479-3.396 2.22-5.326 2.22z" fill="#fec165"/><path d="m449.77 53.492c-5.013-3.49-9.256-7.679-12.687-12.603-2.396-3.439-7.428-3.605-9.964-.268-3.463 4.557-7.695 8.662-12.623 12.359-3.454 2.59-3.37 7.75.207 10.166 4.911 3.317 9.133 7.417 12.589 12.39 2.412 3.472 7.532 3.472 10.022.056 3.355-4.602 7.579-8.538 12.476-11.961 3.533-2.471 3.519-7.675-.02-10.139z" fill="#fee97d"/><path d="m474.28 229.171c-4.142 0-7.5-3.357-7.5-7.5v-40.438c0-4.143 3.358-7.5 7.5-7.5s7.5 3.357 7.5 7.5v40.438c0 4.143-3.358 7.5-7.5 7.5z" fill="#fef48b"/><path d="m494.499 208.953h-40.438c-4.142 0-7.5-3.357-7.5-7.5s3.358-7.5 7.5-7.5h40.438c4.142 0 7.5 3.357 7.5 7.5s-3.358 7.5-7.5 7.5z" fill="#fef48b"/><path d="m444.127 391.997 3.653 11.242c.848 2.61 3.28 4.377 6.025 4.377h11.82c6.137 0 8.688 7.853 3.724 11.46l-9.563 6.948c-2.22 1.613-3.149 4.473-2.301 7.083l3.653 11.242c1.896 5.836-4.784 10.69-9.748 7.083l-9.563-6.948c-2.22-1.613-5.227-1.613-7.447 0l-9.563 6.948c-4.965 3.607-11.645-1.246-9.748-7.083l3.653-11.242c.848-2.61-.081-5.469-2.301-7.083l-9.563-6.948c-4.965-3.607-2.413-11.46 3.724-11.46h11.82c2.744 0 5.177-1.767 6.025-4.377l3.653-11.242c1.894-5.837 10.151-5.837 12.047 0z" fill="#fee97d"/><g fill="#efe2dd" id="XMLID_201_"><path d="m360.488 339.48c10.42 0 19.58 5.39 24.87 13.52-12.24 15.43-27.38 28.46-44.59 38.28-6.1-5.43-9.94-13.34-9.94-22.14 0-16.38 13.28-29.66 29.66-29.66z"/><path d="m277.248 314.85c11.71 0 21.2 9.49 21.2 21.2s-9.49 21.19-21.2 21.19c-4.96 0-9.52-1.72-13.13-4.57v-33.24c3.61-2.86 8.17-4.58 13.13-4.58z"/><path d="m403.808 190.03c-5.6 3.11-12.05 4.89-18.91 4.89-21.58 0-39.07-17.5-39.07-39.07 0-9.36 3.29-17.94 8.77-24.66 20.95 15.1 37.96 35.33 49.21 58.84z"/><path d="m345.828 239.29c13.2 0 23.91 10.71 23.91 23.91s-10.71 23.9-23.91 23.9-23.9-10.7-23.9-23.9 10.7-23.91 23.9-23.91z"/><path d="m280.128 148.24c16.56 0 29.98 13.42 29.98 29.97 0 16.56-13.42 29.98-29.98 29.98-5.89 0-11.38-1.71-16.01-4.64v-50.67c4.63-2.94 10.12-4.64 16.01-4.64z"/></g></g></g></defs><g fi:class="KUsePattern"><pattern id="pattern_L1_20" width="350" height="350" patternUnits="userSpaceOnUse"><use xlink:href="#L1_20" x="-350" y="-350"/><use xlink:href="#L1_20" x="0" y="-350"/><use xlink:href="#L1_20" x="350" y="-350"/><use xlink:href="#L1_20" x="-350" y="0"/><use xlink:href="#L1_20" x="0" y="0"/><use xlink:href="#L1_20" x="350" y="0"/><use xlink:href="#L1_20" x="-350" y="350"/><use xlink:href="#L1_20" x="0" y="350"/><use xlink:href="#L1_20" x="350" y="350"/></pattern><rect x="0" y="0" width="100%" height="100%" fill="url(#pattern_L1_20)"/></g><g fi:class="KUsePattern"><pattern id="pattern_L1_22" width="350" height="350" patternUnits="userSpaceOnUse"><use xlink:href="#L1_22" x="-350" y="-350"/><use xlink:href="#L1_22" x="0" y="-350"/><use xlink:href="#L1_22" x="350" y="-350"/><use xlink:href="#L1_22" x="-350" y="0"/><use xlink:href="#L1_22" x="0" y="0"/><use xlink:href="#L1_22" x="350" y="0"/><use xlink:href="#L1_22" x="-350" y="350"/><use xlink:href="#L1_22" x="0" y="350"/><use xlink:href="#L1_22" x="350" y="350"/></pattern><rect x="0" y="0" width="100%" height="100%" fill="url(#pattern_L1_22)"/></g><g fi:class="KUsePattern"><pattern id="pattern_L1_23" width="350" height="350" patternUnits="userSpaceOnUse"><use xlink:href="#L1_23" x="-350" y="-350"/><use xlink:href="#L1_23" x="0" y="-350"/><use xlink:href="#L1_23" x="350" y="-350"/><use xlink:href="#L1_23" x="-350" y="0"/><use xlink:href="#L1_23" x="0" y="0"/><use xlink:href="#L1_23" x="350" y="0"/><use xlink:href="#L1_23" x="-350" y="350"/><use xlink:href="#L1_23" x="0" y="350"/><use xlink:href="#L1_23" x="350" y="350"/></pattern><rect x="0" y="0" width="100%" height="100%" fill="url(#pattern_L1_23)"/></g><g fi:class="KUsePattern"><pattern id="pattern_L1_24" width="350" height="350" patternUnits="userSpaceOnUse"><use xlink:href="#L1_24" x="-350" y="-350"/><use xlink:href="#L1_24" x="0" y="-350"/><use xlink:href="#L1_24" x="350" y="-350"/><use xlink:href="#L1_24" x="-350" y="0"/><use xlink:href="#L1_24" x="0" y="0"/><use xlink:href="#L1_24" x="350" y="0"/><use xlink:href="#L1_24" x="-350" y="350"/><use xlink:href="#L1_24" x="0" y="350"/><use xlink:href="#L1_24" x="350" y="350"/></pattern><rect x="0" y="0" width="100%" height="100%" fill="url(#pattern_L1_24)"/></g><g fi:class="KUsePattern"><pattern id="pattern_L1_25" width="350" height="350" patternUnits="userSpaceOnUse"><use xlink:href="#L1_25" x="-350" y="-350"/><use xlink:href="#L1_25" x="0" y="-350"/><use xlink:href="#L1_25" x="350" y="-350"/><use xlink:href="#L1_25" x="-350" y="0"/><use xlink:href="#L1_25" x="0" y="0"/><use xlink:href="#L1_25" x="350" y="0"/><use xlink:href="#L1_25" x="-350" y="350"/><use xlink:href="#L1_25" x="0" y="350"/><use xlink:href="#L1_25" x="350" y="350"/></pattern><rect x="0" y="0" width="100%" height="100%" fill="url(#pattern_L1_25)"/></g><g fi:class="KUsePattern"><pattern id="pattern_L1_26" width="350" height="350" patternUnits="userSpaceOnUse"><use xlink:href="#L1_26" x="-350" y="-350"/><use xlink:href="#L1_26" x="0" y="-350"/><use xlink:href="#L1_26" x="350" y="-350"/><use xlink:href="#L1_26" x="-350" y="0"/><use xlink:href="#L1_26" x="0" y="0"/><use xlink:href="#L1_26" x="350" y="0"/><use xlink:href="#L1_26" x="-350" y="350"/><use xlink:href="#L1_26" x="0" y="350"/><use xlink:href="#L1_26" x="350" y="350"/></pattern><rect x="0" y="0" width="100%" height="100%" fill="url(#pattern_L1_26)"/></g><g fi:class="KUsePattern"><pattern id="pattern_L1_28" width="350" height="350" patternUnits="userSpaceOnUse"><use xlink:href="#L1_28" x="-350" y="-350"/><use xlink:href="#L1_28" x="0" y="-350"/><use xlink:href="#L1_28" x="350" y="-350"/><use xlink:href="#L1_28" x="-350" y="0"/><use xlink:href="#L1_28" x="0" y="0"/><use xlink:href="#L1_28" x="350" y="0"/><use xlink:href="#L1_28" x="-350" y="350"/><use xlink:href="#L1_28" x="0" y="350"/><use xlink:href="#L1_28" x="350" y="350"/></pattern><rect x="0" y="0" width="100%" height="100%" fill="url(#pattern_L1_28)"/></g></svg>