<?xml version="1.0" standalone="no"?>
<!DOCTYPE svg PUBLIC "-//W3C//DTD SVG 20010904//EN"
 "http://www.w3.org/TR/2001/REC-SVG-20010904/DTD/svg10.dtd">
<svg version="1.0" xmlns="http://www.w3.org/2000/svg"
 width="2500.000000pt" height="2500.000000pt" viewBox="0 0 2500.000000 2500.000000"
 preserveAspectRatio="xMidYMid meet">

<g transform="translate(0.000000,2500.000000) scale(0.100000,-0.100000)"
fill="#012353" stroke="none">
<path d="M11575 24984 c-252 -21 -695 -72 -870 -100 -88 -14 -203 -32 -255
-40 -197 -30 -643 -122 -895 -184 -66 -16 -196 -48 -290 -70 -231 -56 -662
-193 -1015 -322 -74 -28 -175 -63 -225 -80 -129 -42 -409 -163 -790 -338 -38
-18 -110 -50 -160 -72 -111 -49 -327 -161 -545 -283 -91 -50 -199 -109 -240
-130 -81 -42 -289 -169 -495 -303 -71 -47 -168 -108 -215 -137 -187 -114 -703
-496 -1002 -742 -59 -48 -128 -105 -155 -126 -129 -102 -525 -469 -754 -697
-404 -404 -737 -781 -1089 -1234 -119 -154 -380 -514 -448 -619 -31 -49 -102
-157 -156 -240 -128 -195 -279 -445 -376 -622 -42 -77 -116 -212 -165 -300
-81 -147 -272 -538 -329 -673 -13 -31 -48 -106 -76 -167 -29 -60 -60 -130 -69
-155 -10 -25 -43 -106 -74 -180 -30 -74 -66 -169 -80 -210 -14 -41 -44 -124
-67 -185 -98 -262 -271 -795 -305 -940 -9 -38 -27 -113 -40 -165 -130 -515
-203 -875 -274 -1345 -39 -260 -45 -309 -81 -655 -32 -307 -40 -547 -40 -1170
0 -623 8 -863 40 -1170 36 -346 42 -395 81 -655 71 -470 144 -830 274 -1345
13 -52 31 -126 40 -165 34 -145 207 -678 305 -940 23 -60 53 -144 67 -185 14
-41 50 -136 80 -210 31 -74 64 -155 74 -180 9 -25 40 -94 69 -155 28 -60 63
-136 76 -167 57 -135 248 -526 329 -673 49 -88 123 -223 165 -300 97 -176 250
-431 372 -617 52 -79 121 -184 154 -235 240 -372 708 -967 1107 -1408 325
-360 988 -999 1212 -1170 29 -22 113 -90 186 -150 280 -230 766 -589 949 -700
47 -29 144 -90 215 -137 206 -134 414 -261 495 -303 41 -21 149 -80 240 -130
218 -122 434 -234 545 -283 50 -22 122 -54 160 -72 381 -175 661 -296 790
-338 50 -17 151 -52 225 -80 353 -129 784 -266 1015 -322 94 -22 224 -54 290
-70 252 -62 698 -154 895 -184 52 -8 167 -26 256 -40 189 -30 620 -79 889
-101 272 -22 1538 -22 1810 0 269 22 700 71 889 101 89 14 204 32 256 40 197
30 643 122 895 184 66 16 197 48 290 70 231 56 662 193 1015 322 74 28 175 63
225 80 129 42 409 163 790 338 39 18 111 50 160 72 111 49 327 161 545 283 91
50 199 109 240 130 81 42 289 169 495 303 72 47 168 108 215 137 183 111 669
470 949 700 73 60 157 128 186 150 225 171 884 807 1212 1170 399 441 867
1036 1107 1408 33 51 102 156 154 235 122 186 275 441 372 617 42 77 116 212
165 300 81 147 272 538 329 673 13 31 48 107 76 167 29 61 60 130 69 155 10
25 43 106 74 180 30 74 66 169 80 210 14 41 44 125 67 185 98 262 271 795 305
940 9 39 27 113 40 165 130 515 203 875 274 1345 39 260 45 309 81 655 32 307
40 547 40 1170 0 623 -8 863 -40 1170 -36 346 -42 395 -81 655 -71 470 -144
830 -274 1345 -13 52 -31 127 -40 165 -34 145 -207 678 -305 940 -23 61 -53
144 -67 185 -14 41 -50 136 -80 210 -31 74 -64 155 -74 180 -9 25 -40 95 -69
155 -28 61 -63 136 -76 167 -57 135 -248 526 -329 673 -49 88 -123 223 -165
300 -97 176 -250 431 -372 617 -52 79 -121 184 -154 235 -240 372 -709 968
-1107 1408 -329 363 -987 999 -1212 1170 -29 22 -113 90 -186 150 -280 230
-766 589 -949 700 -47 29 -143 90 -215 137 -206 134 -414 261 -495 303 -41 21
-149 80 -240 130 -218 122 -434 234 -545 283 -49 22 -121 54 -160 72 -381 175
-661 296 -790 338 -50 17 -151 52 -225 80 -353 129 -784 266 -1015 322 -93 22
-224 54 -290 70 -252 62 -698 154 -895 184 -52 8 -167 26 -256 40 -189 30
-620 79 -889 101 -252 20 -1585 20 -1830 -1z m1052 -4305 c226 -77 392 -329
654 -993 33 -83 71 -176 84 -206 13 -30 45 -104 70 -165 26 -60 57 -132 69
-160 13 -27 47 -106 76 -175 28 -69 75 -181 104 -250 29 -69 63 -152 75 -185
31 -81 58 -146 99 -235 19 -41 45 -100 57 -130 52 -126 105 -251 148 -350 25
-58 66 -157 90 -220 25 -64 63 -156 84 -205 22 -50 57 -130 78 -180 21 -49 55
-128 75 -175 21 -47 51 -119 68 -160 17 -41 54 -129 82 -194 27 -66 50 -123
50 -128 0 -4 9 -27 19 -51 27 -57 141 -323 207 -482 30 -71 67 -159 83 -195
53 -118 82 -190 86 -209 2 -11 11 -33 19 -50 9 -17 15 -31 12 -31 -2 0 25 -64
61 -142 35 -79 87 -198 115 -265 l50 -122 2416 -4 c1622 -3 2440 -8 2487 -15
39 -6 90 -13 114 -17 123 -18 278 -94 352 -172 209 -219 99 -540 -319 -932
-69 -64 -215 -202 -326 -308 -110 -105 -214 -202 -231 -214 -16 -12 -107 -97
-200 -188 -204 -198 -624 -595 -680 -641 -22 -19 -112 -104 -200 -189 -186
-181 -609 -580 -675 -636 -25 -22 -110 -103 -190 -181 -80 -78 -184 -177 -232
-220 -89 -82 -311 -291 -597 -563 -90 -86 -205 -194 -255 -240 -50 -46 -131
-123 -179 -170 l-89 -85 22 -81 c12 -44 34 -123 50 -175 16 -52 47 -165 70
-250 23 -85 51 -184 61 -219 11 -35 22 -78 25 -94 7 -41 34 -138 153 -557 56
-195 118 -411 137 -480 20 -69 44 -154 55 -190 10 -36 36 -135 58 -220 55
-211 120 -444 256 -910 18 -63 47 -167 65 -230 17 -63 44 -162 60 -220 16 -58
45 -168 66 -245 40 -153 68 -252 108 -390 43 -144 69 -308 68 -430 -1 -232
-75 -388 -219 -461 -56 -28 -63 -29 -198 -29 -132 1 -146 3 -235 34 -135 46
-272 116 -440 222 -80 50 -166 102 -192 115 -51 26 -518 309 -583 354 -22 15
-65 40 -95 55 -30 15 -188 109 -350 209 -162 100 -304 187 -315 194 -158 89
-259 150 -467 279 -135 84 -250 153 -254 153 -9 0 -371 219 -529 321 -66 42
-147 90 -180 107 -33 16 -181 106 -330 198 -148 92 -288 177 -310 189 -65 34
-180 102 -342 202 l-152 94 -218 -132 c-120 -73 -231 -139 -248 -147 -16 -8
-156 -93 -310 -187 -154 -95 -316 -191 -360 -215 -43 -23 -122 -69 -174 -103
-152 -96 -497 -304 -548 -331 -27 -13 -133 -77 -238 -143 -104 -65 -252 -154
-328 -198 -75 -44 -266 -159 -425 -256 -158 -97 -326 -196 -373 -222 -48 -25
-131 -75 -185 -110 -125 -80 -486 -298 -539 -325 -22 -11 -103 -59 -180 -107
-322 -201 -537 -272 -745 -246 -143 18 -250 103 -308 243 -46 112 -55 177 -49
351 6 166 -6 106 175 837 39 157 83 337 98 400 36 150 135 545 223 890 39 151
96 381 127 510 30 129 96 397 145 595 50 198 101 405 115 460 13 55 48 195 79
310 30 116 67 262 81 325 15 63 56 233 90 376 35 144 64 264 64 267 0 7 -214
202 -306 277 -43 36 -135 117 -204 180 -69 63 -152 138 -185 165 -71 59 -186
159 -352 310 -67 60 -136 121 -154 134 -17 14 -125 108 -239 210 -114 103
-232 206 -261 231 -30 25 -124 108 -209 185 -85 78 -166 150 -179 161 -48 39
-190 162 -342 299 -86 77 -210 186 -275 242 -136 118 -177 154 -254 227 -30
28 -95 85 -145 126 -49 41 -165 143 -256 225 -92 83 -211 188 -265 234 -175
148 -359 337 -431 441 -79 117 -129 266 -117 355 14 102 69 190 154 245 123
79 238 109 499 129 90 7 912 11 2435 11 l2301 0 39 93 c39 92 174 401 224 511
15 33 26 63 25 68 -2 4 2 8 7 8 5 0 9 3 7 8 -2 7 15 50 60 149 12 28 23 54 23
57 0 8 78 192 145 341 29 66 78 176 108 245 30 69 64 145 75 170 11 25 29 70
41 100 33 92 222 529 295 685 26 55 58 129 72 165 60 154 131 321 313 735 70
160 99 227 131 305 13 30 31 73 41 95 9 22 34 81 54 130 21 50 71 167 112 260
159 360 194 441 231 535 56 140 79 195 151 355 94 206 138 286 218 393 87 116
116 146 193 196 127 84 243 101 377 55z"/>
</g>
</svg>
