<svg id="visual" viewBox="0 0 540 960" width="540" height="960" xmlns="http://www.w3.org/2000/svg" xmlns:xlink="http://www.w3.org/1999/xlink" version="1.1"><rect x="0" y="0" width="540" height="960" fill="#ffffff"></rect><defs><linearGradient id="grad1_0" x1="0%" y1="0%" x2="100%" y2="100%"><stop offset="30%" stop-color="#ffffff" stop-opacity="1"></stop><stop offset="70%" stop-color="#ffffff" stop-opacity="1"></stop></linearGradient></defs><defs><linearGradient id="grad2_0" x1="0%" y1="0%" x2="100%" y2="100%"><stop offset="30%" stop-color="#ffffff" stop-opacity="1"></stop><stop offset="70%" stop-color="#ffffff" stop-opacity="1"></stop></linearGradient></defs><g transform="translate(540, 0)"><path d="M0 486C-46.2 438.6 -92.3 391.3 -155.4 375.1C-218.4 358.9 -298.3 373.9 -343.7 343.7C-389 313.4 -399.6 237.8 -417.6 173C-435.5 108.1 -460.8 54.1 -486 0L0 0Z" fill="#f7f7f7"></path></g><g transform="translate(0, 960)"><path d="M0 -486C43.5 -433 87.1 -380.1 151.2 -364.9C215.2 -349.8 299.8 -372.4 343.7 -343.7C387.5 -314.9 390.5 -234.6 407.4 -168.8C424.4 -102.9 455.2 -51.5 486 0L0 0Z" fill="#f7f7f7"></path></g></svg>