<svg xmlns="http://www.w3.org/2000/svg" xmlns:xlink="http://www.w3.org/1999/xlink" xmlns:fi="http://pattern.flaticon.com/" x="0" y="0" width="900" height="1600" viewBox="0 0 900 1600"><rect x="0px" y="0px" width="100%" height="100%" opacity="1" fill="#ffffff"/><defs><g transform="matrix(0.1489361673593521 0 0 0.1489361673593521 96 256)" id="L1_20"><path d="M317.496,346.251L210.158,453.589C218.315,454.51,226.601,455,235,455   c7.242,0,14.401-0.362,21.466-1.049l131.977-131.977c6.433-6.434,6.433-16.901,0-23.334c-3.117-3.116-7.26-4.833-11.667-4.833   s-8.551,1.716-11.667,4.833l-26.398,26.398c-2.929,2.929-7.678,2.929-10.606,0l-10.607,10.607   C320.425,338.573,320.425,343.322,317.496,346.251z" fill="#e7453f"/><path d="M228.165,371.943l20.564-20.564c3.704-3.704,3.704-9.731,0-13.435   c-1.794-1.794-4.18-2.783-6.718-2.783c-2.537,0-4.923,0.988-6.717,2.783l-46.55,46.549c-1.794,1.794-2.782,4.18-2.782,6.718   s0.988,4.923,2.782,6.717c1.794,1.795,4.18,2.783,6.718,2.783c2.537,0,4.923-0.988,6.717-2.783l4.773-4.772   c2.929-2.928,7.678-2.928,10.607,0l10.607-10.606C225.235,379.62,225.235,374.872,228.165,371.943z" fill="#f5b5b2"/><path d="M289.801,124.337l-14.614,14.614c-1.464,1.464-3.384,2.197-5.303,2.197s-3.839-0.732-5.303-2.197   c0,0-10.607,10.607-10.607,10.607c2.929,2.929,2.929,7.678,0,10.606l-67.411,67.411c-3.704,3.704-3.704,9.731,0,13.435   c1.794,1.794,4.18,2.783,6.718,2.783s4.923-0.988,6.718-2.783l43.847-43.847c1.998-1.999,4.95-2.705,7.635-1.825   c2.686,0.878,4.65,3.192,5.081,5.985c1.106,7.175,4.409,13.685,9.551,18.828c13.257,13.257,34.826,13.257,48.083,0l105.122-105.122   c-15.635-23.939-35.802-44.656-59.276-60.932l-49.028,49.028c-1.464,1.464-3.384,2.197-5.303,2.197s-3.839-0.732-5.303-2.197   c0,0-10.607,10.607-10.607,10.607C292.73,116.66,292.73,121.408,289.801,124.337z" fill="#03e6ff"/><path d="M164.778,139.793l21.086-21.086c10.337-10.337,10.337-27.157,0-37.494s-27.157-10.337-37.494,0   L16.049,213.534C15.362,220.599,15,227.758,15,235c0,16.856,1.912,33.274,5.519,49.052l123.046-123.046   c2.928-2.928,7.674-2.928,10.603-0.003l10.607-10.607C161.849,147.467,161.85,142.721,164.778,139.793z" fill="#ffcb59"/><path d="M427.307,128.253L324.802,230.757c-9.255,9.255-21.56,14.352-34.648,14.352   s-25.393-5.097-34.648-14.352c-4.158-4.158-7.482-8.938-9.881-14.161l-35.02,35.02c-4.776,4.776-11.05,7.165-17.324,7.165   s-12.548-2.388-17.324-7.165c-9.552-9.552-9.552-25.095,0-34.648l67.411-67.411c2.929-2.929,7.678-2.929,10.606,0l10.607-10.607   c-2.929-2.929-2.929-7.677,0-10.606l14.614-14.614c2.929-2.929,7.678-2.93,10.606,0l10.607-10.607   c-2.929-2.929-2.929-7.678,0-10.606l46.724-46.724C314.274,26.247,275.929,15,235,15C129.683,15,41.43,89.392,19.987,188.384   L137.764,70.606c7.841-7.841,18.265-12.159,29.354-12.159s21.513,4.318,29.354,12.159c16.185,16.185,16.186,42.521,0,58.707   l-21.086,21.086c-2.929,2.929-7.678,2.929-10.606,0c-0.003-0.003-10.61,10.604-10.61,10.604c2.932,2.931,2.932,7.68,0.003,10.609   L25.037,300.747c23.813,75.881,87.711,134.18,166.766,149.984L306.89,335.645c2.929-2.929,7.678-2.929,10.606,0l10.607-10.607   c-2.929-2.929-2.929-7.678,0-10.606l26.398-26.398c5.95-5.95,13.86-9.226,22.274-9.226s16.324,3.276,22.274,9.226   c12.282,12.282,12.282,32.266,0,44.547L281.617,450.013C380.608,428.57,455,340.317,455,235   C455,196.287,444.936,159.886,427.307,128.253z M259.336,361.985l-20.565,20.564c-2.929,2.929-7.678,2.93-10.606,0l-10.607,10.606   c2.929,2.929,2.929,7.678,0,10.607l-4.772,4.772c-4.627,4.627-10.78,7.176-17.324,7.176c-6.544,0-12.697-2.549-17.324-7.176   c-9.553-9.552-9.553-25.095,0-34.648l46.55-46.549c4.627-4.627,10.779-7.176,17.324-7.176s12.697,2.549,17.324,7.176   C268.888,336.89,268.888,352.433,259.336,361.985z" fill="#ffffff"/><path d="M401.17,68.83C356.785,24.444,297.771,0,235,0S113.215,24.444,68.83,68.83   C24.444,113.215,0,172.229,0,235s24.444,121.785,68.83,166.17C113.215,445.556,172.229,470,235,470s121.785-24.444,166.17-68.83   C445.556,356.785,470,297.771,470,235S445.556,113.215,401.17,68.83z M281.617,450.013l117.432-117.432   c12.282-12.282,12.282-32.266,0-44.547c-5.95-5.95-13.86-9.226-22.274-9.226s-16.324,3.276-22.274,9.226l-26.398,26.398   c-2.929,2.929-2.929,7.678,0,10.606c2.929,2.929,7.678,2.929,10.606,0l26.398-26.398c3.117-3.116,7.26-4.833,11.667-4.833   s8.551,1.716,11.667,4.833c6.433,6.434,6.433,16.901,0,23.334L256.466,453.951C249.401,454.638,242.242,455,235,455   c-8.399,0-16.685-0.49-24.842-1.411l107.338-107.338c2.929-2.929,2.929-7.678,0-10.606c-2.929-2.929-7.678-2.929-10.606,0   L191.803,450.731c-79.056-15.803-142.954-74.102-166.766-149.984l129.134-129.135c2.929-2.929,2.929-7.678,0-10.606   c-2.932-2.928-7.679-2.928-10.606,0L20.519,284.052C16.912,268.274,15,251.856,15,235c0-7.242,0.362-14.401,1.049-21.466   L148.371,81.213c10.337-10.337,27.157-10.337,37.494,0s10.337,27.156,0,37.494l-21.086,21.086   c-2.928,2.928-2.929,7.674-0.003,10.603c2.932,2.932,7.681,2.932,10.609,0.003l21.086-21.086c16.186-16.186,16.185-42.521,0-58.707   c-7.841-7.841-18.265-12.159-29.354-12.159s-21.513,4.318-29.354,12.159L19.987,188.384C41.43,89.392,129.683,15,235,15   c40.929,0,79.274,11.247,112.132,30.794l-46.724,46.724c-2.929,2.929-2.929,7.678,0,10.606c1.464,1.464,3.384,2.197,5.303,2.197   s3.839-0.732,5.303-2.197l49.028-49.028c23.474,16.276,43.641,36.993,59.276,60.932L314.196,220.151   c-13.257,13.257-34.826,13.257-48.083,0c-5.143-5.143-8.445-11.653-9.551-18.828c-0.431-2.792-2.395-5.106-5.081-5.985   c-2.685-0.88-5.638-0.174-7.635,1.825l-43.847,43.847c-1.794,1.794-4.18,2.783-6.718,2.783s-4.923-0.988-6.718-2.783   c-3.704-3.704-3.704-9.731,0-13.435l67.411-67.411c2.929-2.929,2.929-7.678,0-10.606c-2.929-2.929-7.678-2.929-10.607,0   l-67.411,67.411c-9.552,9.553-9.552,25.096,0,34.648c4.776,4.776,11.05,7.165,17.324,7.165s12.548-2.388,17.324-7.165l35.02-35.02   c2.399,5.222,5.723,10.002,9.881,14.161c9.255,9.255,21.56,14.352,34.648,14.352s25.393-5.097,34.648-14.352l102.504-102.504   C444.936,159.886,455,196.287,455,235C455,340.317,380.608,428.57,281.617,450.013z" fill="#3d2a20"/><path d="M269.884,141.148c1.919,0,3.839-0.732,5.303-2.197l14.614-14.614c2.929-2.929,2.929-7.678,0-10.606   c-2.929-2.93-7.678-2.929-10.607,0l-14.614,14.614c-2.929,2.929-2.929,7.678,0,10.606   C266.045,140.417,267.964,141.148,269.884,141.148z" fill="#3d2a20"/><path d="M242.011,320.161c-6.544,0-12.697,2.549-17.324,7.176l-46.55,46.549   c-9.552,9.553-9.552,25.096,0,34.648c4.627,4.627,10.78,7.176,17.324,7.176c6.544,0,12.697-2.549,17.324-7.176l4.772-4.772   c2.929-2.929,2.929-7.678,0-10.607c-2.929-2.929-7.678-2.928-10.607,0l-4.773,4.772c-1.794,1.794-4.18,2.783-6.717,2.783   c-2.538,0-4.923-0.988-6.718-2.783c-1.794-1.794-2.782-4.179-2.782-6.717s0.988-4.923,2.782-6.718l46.55-46.549   c1.794-1.794,4.18-2.783,6.717-2.783c2.538,0,4.923,0.988,6.718,2.783c3.704,3.704,3.704,9.731,0,13.435l-20.564,20.564   c-2.929,2.929-2.929,7.677,0,10.606c2.929,2.93,7.677,2.929,10.606,0l20.565-20.564c9.552-9.553,9.552-25.096,0-34.648   C254.708,322.71,248.556,320.161,242.011,320.161z" fill="#3d2a20"/></g><g transform="matrix(0.1171875 0 0 0.1171875 260 205)" id="L1_22"><path d="m256 392c-33.084 0-60 26.916-60 60s26.916 60 60 60 60-26.916 60-60-26.916-60-60-60zm0 90c-16.542 0-30-13.458-30-30s13.458-30 30-30 30 13.458 30 30-13.458 30-30 30z"/><path d="m256 0c-86.019 0-156 69.981-156 156v15h120v-15c0-19.851 16.149-36 36-36s36 16.149 36 36c0 10.578-4.643 20.59-12.74 27.471l-83.26 70.787v107.742h120v-52.258l40.976-34.837c34.968-29.714 55.024-73.052 55.024-118.905 0-86.019-69.981-156-156-156zm81.547 252.047-51.547 43.824v36.129h-60v-63.871l72.688-61.8c14.815-12.589 23.312-30.933 23.312-50.329 0-36.393-29.607-66-66-66-31.235 0-57.471 21.81-64.281 51h-60.832c7.441-62.431 60.712-111 125.113-111 69.477 0 126 56.523 126 126 0 37.034-16.201 72.04-44.453 96.047z"/></g><g transform="matrix(0.1171875 0 0 0.1171875 149 58)" id="L1_23"><g><path d="m118.33 136.8h-92.358c-10.202 0-18.471-8.27-18.471-18.471v-92.358c0-10.201 8.27-18.471 18.471-18.471h92.357c10.202 0 18.471 8.27 18.471 18.471v92.357c.001 10.202-8.269 18.472-18.47 18.472z" fill="#df75a5"/><path d="m119.883 7.5c.195 2.565.294 5.157.294 7.772 0 55.853-45.278 101.131-101.131 101.131-3.905 0-7.755-.229-11.545-.66v2.507c0 10.202 8.27 18.471 18.471 18.471h92.357c10.201 0 18.471-8.27 18.471-18.471v-92.357c.001-9.677-7.444-17.603-16.917-18.393z" fill="#dd5790"/></g><g><path d="m118.33 298.426h-92.358c-10.202 0-18.471-8.27-18.471-18.471v-92.357c0-10.202 8.27-18.471 18.471-18.471h92.357c10.202 0 18.471 8.27 18.471 18.471v92.357c.001 10.201-8.269 18.471-18.47 18.471z" fill="#ffe07d"/><path d="m119.883 169.165c.195 2.565.294 5.157.294 7.772 0 55.853-45.278 101.131-101.131 101.131-3.905 0-7.755-.229-11.545-.66v2.507c0 10.202 8.27 18.471 18.471 18.471h92.357c10.201 0 18.471-8.27 18.471-18.471v-92.357c.001-9.678-7.444-17.603-16.917-18.393z" fill="#ffd064"/></g><g><g><path d="m399.154 136.8h-92.357c-10.202 0-18.471-8.27-18.471-18.471v-92.358c0-10.202 8.27-18.471 18.471-18.471h92.357c10.202 0 18.471 8.27 18.471 18.471v92.357c0 10.202-8.27 18.472-18.471 18.472z" fill="#b3e59f"/><path d="m400.707 7.578c.195 2.565.294 5.157.294 7.772 0 55.853-45.278 101.131-101.131 101.131-3.905 0-7.755-.229-11.545-.66v2.507c0 10.202 8.27 18.471 18.471 18.471h92.357c10.201 0 18.471-8.27 18.471-18.471v-92.357c.001-9.677-7.444-17.602-16.917-18.393z" fill="#95d6a4"/></g><g><path d="m399.154 298.426h-92.357c-10.202 0-18.471-8.27-18.471-18.471v-92.357c0-10.202 8.27-18.471 18.471-18.471h92.357c10.202 0 18.471 8.27 18.471 18.471v92.357c0 10.201-8.27 18.471-18.471 18.471z" fill="#90d8f9"/><path d="m400.707 169.204c.195 2.565.294 5.157.294 7.772 0 55.853-45.278 101.131-101.131 101.131-3.905 0-7.755-.229-11.545-.66v2.507c0 10.202 8.27 18.471 18.471 18.471h92.357c10.201 0 18.471-8.27 18.471-18.471v-92.357c.001-9.677-7.444-17.603-16.917-18.393z" fill="#75cef9"/></g></g><g><path d="m91.13 495.129 12.913 9.369h182.404l-10.913-35.326-2.004-36.621c-.18-3.299-.765-6.563-1.74-9.719l-31.486-101.916c-3.234-10.467-14.127-16.867-24.702-14.007-11.102 3.002-17.413 14.577-14.047 25.471l-6.119-19.805c-3.234-10.467-14.126-16.867-24.702-14.007-11.102 3.002-17.413 14.577-14.047 25.471l-5.82-18.84c-3.234-10.467-14.127-16.867-24.702-14.007-11.102 3.002-17.413 14.577-14.047 25.471l-20.133-65.167c-3.234-10.467-14.127-16.867-24.702-14.007-11.102 3.002-17.413 14.577-14.047 25.471l35.781 115.818c-3.294-10.661-14.606-16.633-25.266-13.339-10.661 3.294-16.633 14.606-13.339 25.266l25.842 83.646c2.58 8.353 7.8 15.644 14.876 20.778z" fill="#ffddce"/><path d="m165.501 504.498h120.946l-10.913-35.326-2.004-36.621c-.18-3.299-.765-6.563-1.74-9.719l-20.235-65.499c-7.816 43.744-29.016 106.115-86.054 147.165z" fill="#ffcbbe"/></g><g><path d="m25.971 144.299h92.36c14.319 0 25.97-11.65 25.97-25.97v-92.359c-.001-14.32-11.651-25.97-25.97-25.97h-51.12c-4.143 0-7.5 3.358-7.5 7.5s3.357 7.5 7.5 7.5h51.12c6.049 0 10.97 4.921 10.97 10.97v92.36c0 6.049-4.921 10.97-10.97 10.97h-92.36c-6.049 0-10.97-4.921-10.97-10.97v-92.36c0-6.049 4.921-10.97 10.97-10.97h6.24c4.143 0 7.5-3.358 7.5-7.5s-3.358-7.5-7.5-7.5h-6.24c-14.32 0-25.97 11.65-25.97 25.97v92.36c0 14.319 11.65 25.969 25.97 25.969z"/><path d="m43.96 111.484c3.87 1.473 8.204-.468 9.679-4.339l4.206-11.044h28.651l4.16 11.022c1.133 3.003 3.987 4.854 7.018 4.854.88 0 1.775-.156 2.647-.485 3.875-1.462 5.831-5.79 4.368-9.665l-24.056-63.742c-.025-.068-.052-.136-.08-.204-1.388-3.375-4.642-5.556-8.291-5.556-.003 0-.006 0-.009 0-3.652.003-6.906 2.19-8.289 5.571-.023.056-.046.113-.067.17l-24.276 63.74c-1.475 3.871.469 8.204 4.339 9.678zm28.276-53.169 8.599 22.786h-17.277z"/><path d="m169.126 47.325h54.549c4.143 0 7.5-3.358 7.5-7.5s-3.357-7.5-7.5-7.5h-54.549c-4.143 0-7.5 3.358-7.5 7.5s3.358 7.5 7.5 7.5z"/><path d="m169.126 79.65h34.346c4.143 0 7.5-3.358 7.5-7.5s-3.357-7.5-7.5-7.5h-34.346c-4.143 0-7.5 3.358-7.5 7.5s3.358 7.5 7.5 7.5z"/><path d="m169.126 111.975h34.346c4.143 0 7.5-3.358 7.5-7.5s-3.357-7.5-7.5-7.5h-34.346c-4.143 0-7.5 3.358-7.5 7.5s3.358 7.5 7.5 7.5z"/><path d="m169.126 208.95h54.549c4.143 0 7.5-3.358 7.5-7.5s-3.357-7.5-7.5-7.5h-54.549c-4.143 0-7.5 3.358-7.5 7.5s3.358 7.5 7.5 7.5z"/><path d="m169.126 241.275h34.346c4.143 0 7.5-3.358 7.5-7.5s-3.357-7.5-7.5-7.5h-34.346c-4.143 0-7.5 3.358-7.5 7.5s3.358 7.5 7.5 7.5z"/><path d="m169.126 273.601h34.346c4.143 0 7.5-3.358 7.5-7.5s-3.357-7.5-7.5-7.5h-34.346c-4.143 0-7.5 3.358-7.5 7.5s3.358 7.5 7.5 7.5z"/><path d="m306.797 144.3h92.357c14.321 0 25.972-11.651 25.972-25.972v-92.356c-.001-14.321-11.651-25.972-25.972-25.972h-92.357c-14.321 0-25.972 11.651-25.972 25.972v92.357c0 14.32 11.65 25.971 25.972 25.971zm-10.972-118.328c0-6.05 4.922-10.972 10.972-10.972h92.357c6.05 0 10.972 4.922 10.972 10.972v92.357c0 6.05-4.922 10.972-10.972 10.972h-92.357c-6.05 0-10.972-4.922-10.972-10.972z"/><path d="m358.956 111.975c8.76 0 16.619-2.876 22.729-8.317 1.197-1.067 2.336-2.241 3.383-3.491 2.661-3.174 2.244-7.905-.931-10.565-3.174-2.66-7.905-2.244-10.565.93-.581.693-1.207 1.34-1.863 1.924-3.367 2.999-7.657 4.519-12.753 4.519-13.688 0-24.825-11.137-24.825-24.825s11.137-24.825 24.825-24.825c4.976 0 9.773 1.464 13.875 4.235 3.432 2.318 8.094 1.416 10.413-2.017 2.318-3.432 1.416-8.094-2.017-10.413-6.591-4.452-14.292-6.806-22.271-6.806-21.96 0-39.825 17.866-39.825 39.825s17.865 39.826 39.825 39.826z"/><path d="m399.15 161.629h-46.17c-4.143 0-7.5 3.358-7.5 7.5s3.357 7.5 7.5 7.5h46.17c6.054 0 10.979 4.921 10.979 10.97v92.36c0 6.049-4.926 10.97-10.979 10.97h-92.35c-6.049 0-10.97-4.921-10.97-10.97v-92.36c0-6.049 4.921-10.97 10.97-10.97h11.181c4.143 0 7.5-3.358 7.5-7.5s-3.357-7.5-7.5-7.5h-11.181c-14.319 0-25.97 11.65-25.97 25.97v92.36c0 14.32 11.65 25.97 25.97 25.97h92.35c14.325 0 25.979-11.65 25.979-25.97v-92.36c0-14.319-11.654-25.97-25.979-25.97z"/><path d="m323.266 265.05c.067 2.327.603 4.711 2.348 6.373 1.404 1.395 3.304 2.177 5.283 2.177h.028c.554-.002 13.605-.053 18.817-.143 19.088-.334 32.941-17.023 32.941-39.682 0-23.821-13.506-39.825-33.607-39.825h-18.31c-1.991 0-3.901.792-5.309 2.202-1.406 1.41-2.195 3.321-2.191 5.312v.051.002zm25.811-56.1c13.72 0 18.607 12.824 18.607 24.825 0 12.128-5.629 24.464-18.203 24.684-2.541.044-7.126.08-11.109.104-.024-7.646-.059-19.162-.059-24.859 0-4.758-.02-16.802-.033-24.754z"/><path d="m449.95 47.325h54.549c4.143 0 7.5-3.358 7.5-7.5s-3.357-7.5-7.5-7.5h-54.549c-4.143 0-7.5 3.358-7.5 7.5s3.358 7.5 7.5 7.5z"/><path d="m449.95 79.65h34.346c4.143 0 7.5-3.358 7.5-7.5s-3.357-7.5-7.5-7.5h-34.346c-4.143 0-7.5 3.358-7.5 7.5s3.358 7.5 7.5 7.5z"/><path d="m449.95 111.975h34.346c4.143 0 7.5-3.358 7.5-7.5s-3.357-7.5-7.5-7.5h-34.346c-4.143 0-7.5 3.358-7.5 7.5s3.358 7.5 7.5 7.5z"/><path d="m504.499 193.95h-54.549c-4.143 0-7.5 3.358-7.5 7.5s3.357 7.5 7.5 7.5h54.549c4.143 0 7.5-3.358 7.5-7.5s-3.357-7.5-7.5-7.5z"/><path d="m484.296 226.275h-34.346c-4.143 0-7.5 3.358-7.5 7.5s3.357 7.5 7.5 7.5h34.346c4.143 0 7.5-3.358 7.5-7.5s-3.357-7.5-7.5-7.5z"/><path d="m484.296 258.601h-34.346c-4.143 0-7.5 3.358-7.5 7.5s3.357 7.5 7.5 7.5h34.346c4.143 0 7.5-3.358 7.5-7.5 0-4.143-3.357-7.5-7.5-7.5z"/><path d="m259.396 357.304-11.931-38.608c-4.426-14.338-19.601-22.873-33.823-19.028-4.773 1.29-9.006 3.754-12.389 7.15-5.658-12.357-19.239-19.071-32.48-15.491-4.829 1.305-9.103 3.81-12.505 7.265-2.807-5.648-7.306-10.037-12.65-12.702.45-1.927.682-3.914.682-5.933v-92.36c0-14.32-11.65-25.97-25.97-25.97h-92.36c-14.319 0-25.97 11.65-25.97 25.97v92.36c0 14.32 11.65 25.97 25.97 25.97h32.695l15.918 51.529c-4.299-.772-8.753-.51-13.048.815-11.685 3.612-19.535 14.248-19.535 26.466 0 2.738.417 5.487 1.244 8.183l25.843 83.658c3.091 9.968 9.188 18.482 17.641 24.631l12.91 9.36c1.33.964 2.87 1.428 4.396 1.428 2.321 0 4.611-1.075 6.078-3.098 2.431-3.353 1.684-8.043-1.67-10.475l-12.9-9.353c-5.809-4.225-10.002-10.081-12.126-16.928l-25.836-83.635c-2.132-6.602 1.725-13.943 8.382-15.904 6.477-2.149 14.02 1.821 15.889 8.387l14.29 46.254-4.552 8.622c-1.935 3.663-.533 8.2 3.13 10.134 1.117.59 2.314.869 3.495.869 2.692 0 5.295-1.454 6.64-3.999l6.003-11.37c.929-1.759 1.12-3.815.533-5.716l-50.984-165.043c-4.226-16.574 18.733-23.298 24.409-7.039l38.624 125.014c3.293 9.417 16.94 5.115 14.332-4.428l-18.487-59.839c-.006-.018-.014-.035-.019-.053-1.007-3.309-.643-6.799 1.03-9.834 1.678-3.045 4.457-5.224 7.817-6.132 6.516-1.755 13.512 2.275 15.585 8.997l18.348 59.362c3.293 9.417 16.94 5.115 14.332-4.428 0 0-12.514-40.516-12.52-40.538-1.028-3.326-.67-6.836 1.009-9.883 1.677-3.043 4.455-5.221 7.823-6.131 6.521-1.759 13.509 2.271 15.586 8.981l12.377 40.072c2.793 9.376 17.328 4.798 14.332-4.428l-6.287-20.352c-.994-3.299-.629-6.776 1.038-9.801 1.679-3.045 4.457-5.223 7.823-6.133 6.522-1.766 13.505 2.263 15.577 8.974l11.931 38.61c1.223 3.957 5.418 6.178 9.38 4.951 3.956-1.223 6.173-5.422 4.95-9.38zm-188.196-133.601c-1.345 0-3.846.007-6.594.017h-4.685v-14.77h11.279c4.067 0 7.376 3.309 7.376 7.376 0 4.068-3.309 7.377-7.376 7.377zm40.806 67.205-12.664-41.001c.001-.02.005-.04.006-.06.021-.407.032-.817.032-1.229 0-8.009-3.804-15.141-9.696-19.699 2.454-3.59 3.892-7.927 3.892-12.594 0-12.338-10.038-22.376-22.376-22.376h-18.779c-4.143 0-7.5 3.358-7.5 7.5v64.649c0 2.002.801 3.921 2.224 5.33.355.351.741.663 1.152.933l5.736 18.567h-28.062c-6.049 0-10.97-4.921-10.97-10.97v-92.36c0-6.049 4.921-10.97 10.97-10.97h92.36c6.049 0 10.97 4.921 10.97 10.97v92.36c0 1.084-.162 2.144-.466 3.158-1.539.144-3.087.416-4.63.832-4.685 1.266-8.848 3.663-12.199 6.96z"/><path d="m282.978 467.836-1.959-35.686c-.215-3.935-.911-7.817-2.063-11.525l-9.23-29.88c-1.223-3.957-5.419-6.173-9.38-4.952-3.957 1.223-6.175 5.422-4.952 9.38l9.234 29.892c.791 2.542 1.266 5.201 1.414 7.905l2.01 36.61c.033.611.142 1.217.322 1.802l10.91 35.33c.994 3.221 3.961 5.289 7.163 5.289.733 0 1.479-.108 2.216-.336 3.958-1.222 6.176-5.421 4.953-9.379z"/></g></g><g transform="matrix(0.1171875 0 0 0.1171875 -23.999999656677232 83.00000068664554)" id="L1_24"><path d="m384.339 401.347 5.257-16.976v-363.313c0-5.211-4.224-9.436-9.435-9.436h-248.302c-5.211 0-9.435 4.224-9.435 9.436v363.313l5.257 16.976z" fill="#407093"/><path d="m122.424 384.371v65.395c0 5.211 4.224 9.436 9.435 9.436h248.301c5.211 0 9.435-4.224 9.435-9.436v-65.395z" fill="#dae7ef"/><path d="m380.161 11.623h-25.364v389.725h29.543l5.257-16.976v-363.314c-.001-5.211-4.225-9.435-9.436-9.435z" fill="#2b4d66"/><path d="m354.797 384.371v30.596c0 5.211-4.224 9.436-9.435 9.436h-222.938v25.364c0 5.211 4.224 9.436 9.435 9.436h248.301c5.211 0 9.435-4.224 9.435-9.436v-65.395h-34.798z" fill="#c1d5e4"/><path d="m380.16 467.087h-248.301c-9.551 0-17.321-7.77-17.321-17.321v-428.708c0-9.551 7.77-17.321 17.321-17.321h248.301c9.551 0 17.321 7.77 17.321 17.321v428.708c0 9.551-7.77 17.321-17.321 17.321zm-248.301-447.579c-.855 0-1.55.695-1.55 1.55v428.708c0 .855.695 1.55 1.55 1.55h248.301c.855 0 1.55-.695 1.55-1.55v-428.708c0-.855-.695-1.55-1.55-1.55z" fill="#98b9d3"/><path d="m509.242 405.167c-.335-2.106-.799-4.19-1.343-6.251l-31.147-117.963c-2.34-8.863-6.653-17.082-12.617-24.043-3.803-4.439-6.946-9.402-9.332-14.738l-49.757-111.249c-1.663-3.718-4.35-6.641-7.565-8.635v108.108l5.594 17.876c.959 3.065 1.445 6.259 1.439 9.471l-.084 52.396c-.021 12.76-10.37 23.093-23.13 23.093h-.116c-7.337-.067-14.244-3.468-18.771-9.243-8.056-10.278-20.001-25.552-20.001-25.552-6.737-8.678-17.531-14.082-28.527-14.105-8.069-.1-16.225 2.436-23.077 7.794-4.886 3.821-5.749 10.878-1.928 15.764l49.963 63.888c2.812 3.596 4.217 8.047 4.229 12.612.052 19.47 13.598 36.308 32.617 40.521l21.712 4.81c2.16.478 3.697 2.394 3.697 4.606v64.588c0 5.163 4.185 9.348 9.348 9.348l92.204-.186c5.163 0 9.348-4.185 9.348-9.348v-58.692c.002-11.68-.92-23.339-2.756-34.87z" fill="#eaac9d"/><circle cx="179" cy="92" r="20" fill="#dd5790"/><circle cx="332" cy="92" r="20" fill="#dd5790"/><circle cx="179" cy="162" r="20" fill="#dd5790"/><circle cx="254" cy="231" r="20" fill="#dd5790"/><path d="m247.784 76.432-13.434 23.269c-3.189 5.523.797 12.426 7.174 12.426h26.869c6.377 0 10.363-6.903 7.174-12.426l-13.434-23.269c-3.189-5.523-11.16-5.523-14.349 0z" fill="#f6e266"/><path d="m324.839 146.527-13.434 23.269c-3.189 5.523.797 12.426 7.174 12.426h26.869c6.377 0 10.363-6.903 7.174-12.426l-13.434-23.269c-3.189-5.523-11.16-5.523-14.349 0z" fill="#f6e266"/><path d="m172.015 216.621-13.434 23.269c-3.189 5.523.797 12.426 7.174 12.426h26.869c6.377 0 10.363-6.903 7.174-12.426l-13.434-23.269c-3.189-5.522-11.161-5.522-14.349 0z" fill="#f6e266"/><path d="m281.441 432.964h-50.862c-4.355 0-7.885-3.53-7.885-7.885s3.53-7.885 7.885-7.885h50.862c4.355 0 7.885 3.53 7.885 7.885s-3.53 7.885-7.885 7.885z" fill="#407093"/><path d="m352.029 252.317h-40.032c-2.761 0-5-2.239-5-5v-24.072c0-2.761 2.239-5 5-5h40.032c2.761 0 5 2.239 5 5v24.072c0 2.761-2.238 5-5 5z" fill="#61a2f9"/><path d="m274.985 179.552h-40.032c-2.761 0-5-2.239-5-5v-24.072c0-2.761 2.239-5 5-5h40.032c2.761 0 5 2.239 5 5v24.072c0 2.762-2.239 5-5 5z" fill="#61a2f9"/><path d="m509.242 405.167c-.335-2.106-.799-4.19-1.343-6.251l-31.147-117.963c-2.34-8.863-6.653-17.082-12.617-24.043-3.803-4.439-6.946-9.402-9.332-14.738l-49.757-111.249c-1.663-3.718-4.35-6.641-7.565-8.635v42.158l34.764 77.725c2.386 5.335 5.529 10.299 9.332 14.738 5.964 6.961 10.277 15.18 12.617 24.043l31.147 117.963c.544 2.062 1.008 4.145 1.343 6.251 1.836 11.531 2.758 23.19 2.758 34.87v58.692c0 5.163-4.185 9.348-9.348 9.348l-70.513.142c.286.026.574.044.867.044l92.204-.186c5.163 0 9.348-4.185 9.348-9.348v-58.692c0-11.679-.922-23.338-2.758-34.869z" fill="#df9380"/><path d="m221.19 292.125c-6.851-5.358-15.007-7.893-23.076-7.794-10.995.023-21.79 5.428-28.527 14.105 0 0-11.945 15.275-20.001 25.552-4.527 5.775-11.433 9.175-18.771 9.243h-.116c-12.76 0-23.11-10.333-23.13-23.093l-.084-52.396c-.005-3.212.48-6.406 1.44-9.471l5.614-17.938v-108.056c-3.223 1.995-5.918 4.921-7.584 8.647l-49.758 111.248c-2.386 5.335-5.529 10.299-9.332 14.738-5.964 6.961-10.277 15.18-12.617 24.043l-31.147 117.963c-.544 2.062-1.008 4.145-1.343 6.251-1.835 11.531-2.758 23.19-2.758 34.87v58.692c0 5.163 4.185 9.348 9.348 9.348l92.204.186c5.163 0 9.348-4.185 9.348-9.348v-64.588c0-2.212 1.537-4.128 3.697-4.606l21.712-4.81c19.018-4.213 32.565-21.052 32.617-40.521.012-4.565 1.417-9.017 4.229-12.612l49.963-63.888c3.821-4.887 2.958-11.944-1.928-15.765z" fill="#eaac9d"/><path d="m221.19 292.125c-3.481-2.722-7.299-4.712-11.271-6.001-.395 1.102-.962 2.163-1.722 3.136l-49.963 63.888c-2.812 3.596-4.217 8.048-4.229 12.613-.052 19.47-13.599 36.309-32.617 40.522l-28.134 7.279c-2.16.478-3.697 2.394-3.697 4.606v90.071l11.995.024c5.163 0 9.348-4.185 9.348-9.348v-64.588c0-2.212 1.537-4.128 3.697-4.606l21.712-4.81c19.018-4.213 32.566-21.052 32.617-40.522.012-4.565 1.417-9.017 4.229-12.613l49.963-63.888c3.821-4.885 2.958-11.942-1.928-15.763z" fill="#df9380"/></g></defs><g fi:class="KUsePattern"><pattern id="pattern_L1_20" width="350" height="350" patternUnits="userSpaceOnUse"><use xlink:href="#L1_20" x="-350" y="-350"/><use xlink:href="#L1_20" x="0" y="-350"/><use xlink:href="#L1_20" x="350" y="-350"/><use xlink:href="#L1_20" x="-350" y="0"/><use xlink:href="#L1_20" x="0" y="0"/><use xlink:href="#L1_20" x="350" y="0"/><use xlink:href="#L1_20" x="-350" y="350"/><use xlink:href="#L1_20" x="0" y="350"/><use xlink:href="#L1_20" x="350" y="350"/></pattern><rect x="0" y="0" width="100%" height="100%" fill="url(#pattern_L1_20)"/></g><g fi:class="KUsePattern"><pattern id="pattern_L1_22" width="350" height="350" patternUnits="userSpaceOnUse"><use xlink:href="#L1_22" x="-350" y="-350"/><use xlink:href="#L1_22" x="0" y="-350"/><use xlink:href="#L1_22" x="350" y="-350"/><use xlink:href="#L1_22" x="-350" y="0"/><use xlink:href="#L1_22" x="0" y="0"/><use xlink:href="#L1_22" x="350" y="0"/><use xlink:href="#L1_22" x="-350" y="350"/><use xlink:href="#L1_22" x="0" y="350"/><use xlink:href="#L1_22" x="350" y="350"/></pattern><rect x="0" y="0" width="100%" height="100%" fill="url(#pattern_L1_22)"/></g><g fi:class="KUsePattern"><pattern id="pattern_L1_23" width="350" height="350" patternUnits="userSpaceOnUse"><use xlink:href="#L1_23" x="-350" y="-350"/><use xlink:href="#L1_23" x="0" y="-350"/><use xlink:href="#L1_23" x="350" y="-350"/><use xlink:href="#L1_23" x="-350" y="0"/><use xlink:href="#L1_23" x="0" y="0"/><use xlink:href="#L1_23" x="350" y="0"/><use xlink:href="#L1_23" x="-350" y="350"/><use xlink:href="#L1_23" x="0" y="350"/><use xlink:href="#L1_23" x="350" y="350"/></pattern><rect x="0" y="0" width="100%" height="100%" fill="url(#pattern_L1_23)"/></g><g fi:class="KUsePattern"><pattern id="pattern_L1_24" width="350" height="350" patternUnits="userSpaceOnUse"><use xlink:href="#L1_24" x="-350" y="-350"/><use xlink:href="#L1_24" x="0" y="-350"/><use xlink:href="#L1_24" x="350" y="-350"/><use xlink:href="#L1_24" x="-350" y="0"/><use xlink:href="#L1_24" x="0" y="0"/><use xlink:href="#L1_24" x="350" y="0"/><use xlink:href="#L1_24" x="-350" y="350"/><use xlink:href="#L1_24" x="0" y="350"/><use xlink:href="#L1_24" x="350" y="350"/></pattern><rect x="0" y="0" width="100%" height="100%" fill="url(#pattern_L1_24)"/></g></svg>