<svg width="723" height="703" viewBox="0 0 723 703" fill="none" xmlns="http://www.w3.org/2000/svg">
<g filter="url(#filter0_d_1_260)">
<rect x="333.896" y="201.466" width="12.8422" height="12.8422" rx="6.42109" fill="url(#paint0_linear_1_260)"/>
</g>
<g filter="url(#filter1_d_1_260)">
<rect x="681.491" y="366.701" width="12.8422" height="12.8422" rx="6.42109" fill="url(#paint1_linear_1_260)"/>
</g>
<g filter="url(#filter2_d_1_260)">
<rect x="544.508" y="496.836" width="12.8422" height="12.8422" rx="6.42109" fill="url(#paint2_linear_1_260)"/>
</g>
<g filter="url(#filter3_d_1_260)">
<rect x="300.507" y="486.562" width="26.5405" height="26.5405" rx="13.2702" fill="url(#paint3_linear_1_260)"/>
</g>
<g filter="url(#filter4_d_1_260)">
<rect x="536.803" y="447.179" width="15.4106" height="15.4106" rx="7.7053" fill="url(#paint4_linear_1_260)"/>
</g>
<g filter="url(#filter5_d_1_260)">
<rect x="124.141" y="446.323" width="15.4106" height="15.4106" rx="7.7053" fill="url(#paint5_linear_1_260)"/>
</g>
<g filter="url(#filter6_d_1_260)">
<rect x="455.469" y="516.527" width="7.7053" height="7.7053" rx="3.85265" fill="url(#paint6_linear_1_260)"/>
</g>
<path d="M385.664 78.0968C385.664 78.0968 310.109 80.5413 290.986 115.374C272.362 149.296 307.754 213.039 307.754 213.039C307.754 213.039 359.454 298.12 345.202 352.797C320.872 446.14 165.578 349.703 110.126 428.633C48.3711 516.535 143.794 701.645 143.794 701.645" stroke="#01FF88" stroke-width="0.8"/>
<path d="M633.083 654.917C633.083 654.917 684.779 599.764 673.671 561.611C662.853 524.455 592.754 504.408 592.754 504.408C592.754 504.408 496.036 480.805 467.451 432.065C418.652 348.857 596.652 307.238 580.051 212.215C561.562 106.393 363.194 42.9741 363.194 42.9741" stroke="#01FF88" stroke-width="0.8"/>
<path d="M429.473 344.121C439.601 347.71 451.267 352.71 463.703 374.248C476.138 395.785 486.01 427.195 477.804 437.066C469.6 446.937 456.011 444.502 453.96 438.732C451.907 432.964 429.473 344.121 429.473 344.121Z" fill="#FF04AA"/>
<path d="M376.842 345.644C362.508 350.82 348.174 363.165 341.205 380.086C334.237 397.008 330.673 417.068 337.224 426.075C345.188 437.025 364.3 431.053 369.278 421.297C374.254 411.542 376.842 345.644 376.842 345.644Z" fill="#FF04AA"/>
<path d="M406.352 340.699C384.498 341.336 369.817 342.387 366.133 359.58C362.898 374.676 362.989 443.274 361.373 460.744C358.821 488.343 358.457 494.669 360.606 495.59C362.755 496.511 385.32 501.577 420.167 500.196C455.014 498.813 464.226 497.125 465.454 493.133C466.681 489.142 464.685 481.62 464.072 477.016C463.458 472.411 448.697 382.178 445.343 365.413C441.966 348.529 437.974 339.777 406.352 340.699Z" fill="#FF7BBB"/>
<path d="M458.569 410.908C467.084 409.702 478.056 414.755 477.927 425.908C477.799 437.061 465.748 445.137 450.108 443.214C434.468 441.293 403.059 435.138 390.88 432.317C378.7 429.497 366.65 426.934 363.188 423.472C359.727 420.011 361.778 416.036 364.727 416.036C367.675 416.036 370.366 420.011 394.342 420.011C418.314 420.011 441.39 413.344 458.569 410.908Z" fill="#FDC68A"/>
<path d="M347.969 428.27C338.725 426.375 336.82 414.334 338.811 400.199C340.205 390.31 350.507 365.811 355.625 350.992C361.114 335.097 364.098 330.881 366.891 332.17C370.492 333.836 366.248 339.543 366.646 346.908C367.044 354.274 368.156 382.153 368.299 396.489C368.499 416.397 359.548 430.643 347.969 428.27Z" fill="#FDC68A"/>
<path d="M373.264 248.88C373.264 248.88 354.578 241.712 366.842 230.131C379.103 218.548 399.538 217.998 405.963 222.959C412.384 227.925 410.632 247.228 408.297 248.329C405.963 249.434 376.183 251.638 373.264 248.88Z" fill="#5A381D"/>
<path d="M415.601 344.253L412.469 301.907L395.843 300.798L395.141 342.514C396.829 353.176 414.375 350.004 415.601 344.253Z" fill="#ED9F5E"/>
<path d="M444.48 281.876C448.178 304.703 435.587 331.617 415.475 334.901C388.861 339.244 371.338 312.797 367.637 289.965C363.933 267.135 380.404 247.959 403.058 244.257C425.71 240.554 440.777 259.048 444.48 281.876Z" fill="#FDC68A"/>
<path d="M408.576 302.872C409.718 302.416 410.947 302.133 412.211 302.141C413.454 302.152 414.824 302.451 415.774 303.5C416.218 304.014 416.473 304.834 416.204 305.504C416.138 305.86 415.894 306.113 415.741 306.413C415.516 306.65 415.294 306.895 415.05 307.104C414.051 307.919 412.862 308.34 411.689 308.686C412.756 308.082 413.86 307.542 414.704 306.716C415.564 305.945 416.021 304.719 415.254 303.932C414.558 303.123 413.34 302.773 412.182 302.657C410.997 302.547 409.792 302.684 408.576 302.872Z" fill="#9D5F54"/>
<path d="M399.902 316.669C401.878 317.296 403.792 317.814 405.751 318.365C407.693 318.929 409.953 318.399 411.837 319.176C409.661 319.062 407.289 319.731 405.286 319.176C404.292 318.884 403.311 318.56 402.39 318.152C401.471 317.749 400.588 317.271 399.902 316.669Z" fill="#9D5F54"/>
<path d="M407.064 319.354C408.996 318.889 410.763 318.334 412.596 317.791C414.435 317.273 416.261 316.717 418.313 316.483C416.86 317.671 415.127 318.456 413.263 319.022C412.319 319.284 411.344 319.499 410.309 319.581C409.279 319.666 408.184 319.643 407.064 319.354Z" fill="#9D5F54"/>
<path d="M420.79 296.444C420.983 297.181 421.735 297.624 422.472 297.432C423.208 297.241 423.652 296.488 423.461 295.751C423.269 295.014 422.516 294.572 421.778 294.763C421.041 294.955 420.599 295.708 420.79 296.444Z" fill="#5B3118"/>
<path d="M418.909 282.546C428.373 284.022 437.177 286.41 431.08 285.911C424.982 285.413 412.666 281.572 418.909 282.546Z" fill="#935025"/>
<path d="M398.583 296.444C398.392 297.181 397.639 297.624 396.902 297.432C396.165 297.241 395.722 296.488 395.913 295.751C396.105 295.014 396.858 294.572 397.595 294.763C398.331 294.955 398.775 295.708 398.583 296.444Z" fill="#5B3118"/>
<path d="M400.459 282.546C390.993 284.022 382.19 286.41 388.287 285.911C394.385 285.413 406.701 281.572 400.459 282.546Z" fill="#935025"/>
<path d="M390.792 300.183C390.792 300.961 388.775 301.592 386.287 301.592C383.798 301.592 381.78 300.961 381.78 300.183C381.78 299.405 383.798 298.774 386.287 298.774C388.775 298.774 390.792 299.405 390.792 300.183Z" fill="#F69D98"/>
<path d="M438.294 300.183C438.294 300.961 436.277 301.592 433.789 301.592C431.302 301.592 429.283 300.961 429.283 300.183C429.283 299.405 431.302 298.774 433.789 298.774C436.277 298.774 438.294 299.405 438.294 300.183Z" fill="#F69D98"/>
<path d="M417.304 243.135L413.633 239.953C408.054 235.793 398.959 234.451 383.619 238.536C371.387 241.793 357.311 248.409 358.8 269.612C359.422 278.474 363.713 285.346 365.834 293.714C367.894 293.814 369.453 293.48 371.151 294.708C372.471 295.663 374.208 298.55 374.723 299.456C373.81 289.568 373.618 281.296 382.631 275.647C390.854 270.495 393.484 261.944 392.17 257.779C398.176 256.166 408.625 258.356 413.078 254.152C418.239 249.283 421.265 246.693 417.304 243.135Z" fill="#794D2E"/>
<path d="M406.673 238.256C400.697 238.973 389.802 246.196 386.822 251.421L386.395 251.81C380.734 258.697 405.92 276.421 411.747 279.255C418.192 282.391 427.403 288.703 434.093 289.838C434.187 288.775 431.478 280.367 431.386 279.858C433.06 283.538 434.462 284.904 435.4 286.019C442.171 294.07 444.389 299.548 445.263 305.131C450.851 288.275 452.196 261.951 438.386 248.282C430.767 240.74 422.197 236.394 406.673 238.256Z" fill="#794D2E"/>
<path d="M376.585 297.305C378.242 301.941 378.187 305.386 375.345 306.421C372.501 307.459 366.375 305.193 364.72 300.556C363.063 295.923 364.03 291.328 366.875 290.292C369.723 289.248 374.933 292.679 376.585 297.305Z" fill="#FDC68A"/>
<path d="M360.581 337.791C360.149 333.064 360.73 327.255 362.061 324.401C364.397 319.402 369.459 319.79 372.494 321.165C375.53 322.54 375.551 329.022 374.532 331.126C371.807 336.754 367.321 337.437 366.437 339.88C365.281 341.173 360.59 339.813 360.581 337.791Z" fill="#FDC68A"/>
<path d="M367.772 318.548C372.952 319.59 372.849 321.986 372.741 325.79C372.653 328.846 369.064 329.37 365.191 328.781C362.442 328.362 361.367 326.361 361.367 326.361C361.367 326.361 363.195 317.628 367.772 318.548Z" fill="#FDC68A"/>
<path d="M363.946 324.491C363.867 325.315 363.895 326.161 364.153 326.917C364.399 327.684 365.001 328.25 365.729 328.555C366.451 328.877 367.26 329.02 368.068 329.107C368.872 329.2 369.681 329.186 370.436 328.975C371.191 328.767 371.871 328.324 372.333 327.691C372.806 327.065 373.064 326.287 373.172 325.501C373.303 324.695 373.132 323.916 372.898 323.118C372.686 322.329 372.432 321.527 371.902 320.881C372.498 321.469 372.86 322.26 373.146 323.04C373.276 323.443 373.418 323.819 373.503 324.254C373.577 324.68 373.591 325.11 373.557 325.539C373.493 326.394 373.211 327.246 372.695 327.957C372.188 328.676 371.413 329.2 370.574 329.443C369.734 329.703 368.847 329.689 368.013 329.579C367.181 329.47 366.336 329.309 365.548 328.936C364.765 328.557 364.107 327.845 363.899 326.996C363.689 326.153 363.782 325.301 363.946 324.491Z" fill="#D28C56"/>
<path d="M369.812 331.562C371.637 334.612 374.642 333.386 376.601 331.214C378.559 329.041 379.37 327.165 378.381 325.762C377.393 324.36 370.494 324.168 369.931 326.195C369.367 328.222 371.041 328.892 372.733 328.674C369.64 329.881 369.812 331.562 369.812 331.562Z" fill="#FCBC81"/>
<path d="M363.823 323.131C363.97 323.504 363.986 323.833 364.084 324.12C364.103 324.27 364.161 324.387 364.212 324.474C364.256 324.57 364.403 324.623 364.606 324.656C364.488 324.811 364.234 324.918 363.989 324.788C363.755 324.661 363.668 324.43 363.6 324.244C363.534 323.846 363.561 323.452 363.823 323.131Z" fill="#D28C56"/>
<path d="M370.274 332.39C369.932 331.857 369.926 331.145 370.163 330.543C370.398 329.933 370.863 329.444 371.374 329.065C371.902 328.702 372.494 328.444 373.105 328.295C373.712 328.127 374.341 328.086 374.961 328.076C373.759 328.351 372.54 328.635 371.574 329.346C371.082 329.678 370.667 330.122 370.406 330.65C370.156 331.175 370.052 331.804 370.274 332.39Z" fill="#D28C56"/>
<path d="M370.474 325.571C370.011 326.21 369.883 327.049 370.308 327.636C370.491 327.942 370.796 328.162 371.127 328.342C371.457 328.525 371.835 328.632 372.216 328.757C371.819 328.759 371.404 328.741 371.018 328.583C370.631 328.441 370.268 328.184 370.018 327.825C369.79 327.456 369.689 326.994 369.796 326.578C369.89 326.16 370.145 325.8 370.474 325.571Z" fill="#D28C56"/>
<path d="M437.19 394.708C437.325 396.938 424.297 399.544 408.091 400.53C391.883 401.515 378.636 400.507 378.501 398.278C378.366 396.047 391.394 393.441 407.6 392.457C423.807 391.471 437.054 392.479 437.19 394.708Z" fill="#FF04AA"/>
<path d="M122.33 337.764C122.536 335.07 122.208 332.204 120.065 330.814C115.978 328.163 111.007 324.737 108.908 322.584C106.942 320.566 109.571 316.051 111.524 313.713C113.479 311.377 115.921 310.967 117.776 312.519C119.784 314.199 122.087 315.853 126.82 320.561C129.729 323.456 127.96 326.143 129.251 336.809C128.183 338.644 123.938 339.174 122.33 337.764Z" fill="#FDC68A"/>
<path d="M120.997 317.542C116.719 311.944 114.486 308.42 113.072 305.838C111.657 303.256 111.207 301.999 109.827 302.968C108.447 303.936 111.47 311.283 111.47 311.283C111.47 311.283 101.135 305.477 99.7632 308.397C97.9914 312.173 97.1799 314.249 100.257 317.134C103.335 320.019 110.503 322.596 113.703 325.582C116.902 328.569 120.084 325.014 120.997 317.542Z" fill="#FDC68A"/>
<path d="M104.043 316.487L103.037 293.243L125.004 292.293L126.01 315.537L104.043 316.487ZM102.028 279.799C101.942 277.814 101.95 275.85 102.058 273.905C102.162 271.961 102.553 270.098 103.235 268.315C103.915 266.536 104.976 264.81 106.418 263.139C107.86 261.466 109.83 259.915 112.323 258.481C113.337 257.87 114.793 257.051 116.688 256.022C118.584 254.993 120.472 253.775 122.353 252.367C124.231 250.963 125.845 249.401 127.191 247.685C128.536 245.971 129.167 244.123 129.08 242.138C128.986 239.965 128.062 238.275 126.305 237.076C124.55 235.873 122.537 235.322 120.27 235.418C118.569 235.493 117.117 235.889 115.92 236.601C114.719 237.316 113.692 238.167 112.835 239.147C111.978 240.132 111.264 241.133 110.693 242.153C110.121 243.171 109.568 244.025 109.029 244.71L91.3538 233.262C93.5601 227.394 97.2385 222.738 102.391 219.296C107.543 215.857 113.522 213.987 120.323 213.694C123.913 213.537 127.573 213.901 131.304 214.78C135.033 215.66 138.435 217.168 141.51 219.309C144.584 221.446 147.122 224.318 149.123 227.923C151.125 231.528 152.242 235.976 152.469 241.266C152.665 245.802 152.017 249.973 150.527 253.775C149.034 257.58 146.224 260.991 142.096 264.007C140.078 265.517 138.005 266.836 135.878 267.968C133.748 269.103 131.787 270.229 129.989 271.347C128.192 272.468 126.726 273.618 125.595 274.803C124.461 275.988 123.931 277.338 123.996 278.847L102.028 279.799Z" fill="url(#paint7_linear_1_260)"/>
<path d="M222.865 326.337C210.32 328.73 192.993 330.639 175.344 355.54C157.696 380.441 142.937 398.89 138.618 405.653C134.3 412.418 129.282 423.618 137.419 433.099C145.553 442.582 160.218 431.25 172.949 416.629C185.681 402.008 198.778 385.349 206.476 373.545C214.172 361.742 226.061 331.52 222.865 326.337Z" fill="#ECECE8"/>
<path d="M120.06 336.414C122.541 336.57 128.65 335.455 130.977 334.165C133.559 342.684 139.591 363.706 145.031 379.391C152.389 400.606 167.619 422.214 153.139 431.523C140.177 439.856 133.132 434.034 127.979 410.982C122.364 385.859 120.06 336.414 120.06 336.414Z" fill="#ECECE8"/>
<path d="M316.582 274.992C303.482 286.951 262.102 332.371 258.412 338.468C254.722 344.563 278.868 385.543 284.765 377.61C292.143 367.688 319.467 334.164 331.832 315.025C341.36 300.277 346.311 289.667 348.225 283.707C351.636 273.097 350.398 264.943 341.784 262.676C334.583 260.78 325.299 267.033 316.582 274.992Z" fill="#ECECE8"/>
<path d="M236.461 322.662C209.571 322.182 194.704 334.884 190.77 354.533C186.835 374.184 185.305 475.31 185.742 486.094C186.179 496.876 254.387 505.264 293.957 486.094C292.425 470.516 287.835 383.29 287.398 374.423C286.961 365.557 280.402 323.445 236.461 322.662Z" fill="#E0E0E0"/>
<path d="M248.033 328.784L245.851 291.239L223.974 292.259L220.834 328.94C227.291 331.986 241.033 332.049 248.033 328.784Z" fill="#EDA76A"/>
<path d="M207.912 272.04C210.307 278.248 210.259 283.026 206.206 284.825C202.156 286.624 193.396 284.257 191 278.047C188.602 271.831 189.946 265.343 194.001 263.545C198.051 261.748 205.516 265.829 207.912 272.04Z" fill="#FDC68A"/>
<path d="M197.901 279.41C201.158 300.671 216.314 314.943 237.701 313.055C257.157 311.338 270.611 284.145 271.157 259.337C271.704 234.53 258.411 214.907 234.92 215.271C198.942 215.827 191.04 234.607 197.901 279.41Z" fill="#FDC68A"/>
<path d="M259.684 270.06C257.21 276.239 257.199 281.016 261.231 282.865C265.258 284.714 274.044 282.457 276.517 276.275C278.994 270.092 277.727 263.589 273.698 261.739C269.672 259.891 262.156 263.878 259.684 270.06Z" fill="#FDC68A"/>
<path d="M226.025 268.61C228.185 267.717 230.535 267.16 232.946 267.206C235.31 267.259 237.917 267.796 239.743 269.786C240.62 270.782 241.013 272.343 240.564 273.626C240.152 274.914 239.297 275.905 238.352 276.669C236.453 278.218 234.195 279.064 231.945 279.672C234.018 278.602 236.065 277.452 237.683 275.918C238.469 275.147 239.155 274.261 239.392 273.293C239.676 272.339 239.413 271.365 238.759 270.615C238.121 269.842 237.153 269.302 236.139 268.919C235.118 268.522 234.009 268.325 232.889 268.205C230.64 267.997 228.327 268.194 226.025 268.61Z" fill="#9D5F54"/>
<path d="M222.398 267.561C222.189 268.362 221.371 268.844 220.567 268.636C219.765 268.426 219.284 267.608 219.492 266.806C219.7 266.003 220.519 265.522 221.322 265.729C222.124 265.937 222.606 266.759 222.398 267.561Z" fill="#5B3118"/>
<path d="M223.674 251.706C211.065 252.583 204.149 257.594 212.162 257.53C220.175 257.468 231.988 251.127 223.674 251.706Z" fill="#935025"/>
<path d="M242.062 267.561C242.27 268.362 243.089 268.844 243.892 268.636C244.693 268.426 245.175 267.608 244.967 266.806C244.758 266.003 243.939 265.522 243.137 265.729C242.334 265.937 241.854 266.759 242.062 267.561Z" fill="#5B3118"/>
<path d="M240.777 251.706C253.385 252.583 260.301 257.594 252.288 257.53C244.276 257.468 232.463 251.127 240.777 251.706Z" fill="#935025"/>
<path d="M211.382 271.628C211.382 272.475 209.185 273.162 206.477 273.162C203.769 273.162 201.573 272.475 201.573 271.628C201.573 270.783 203.769 270.097 206.477 270.097C209.185 270.097 211.382 270.783 211.382 271.628Z" fill="#F69D98"/>
<path d="M263.082 271.628C263.082 272.475 260.886 273.162 258.178 273.162C255.47 273.162 253.274 272.475 253.274 271.628C253.274 270.783 255.47 270.097 258.178 270.097C260.886 270.097 263.082 270.783 263.082 271.628Z" fill="#F69D98"/>
<path d="M199.604 294.152C204.19 304.538 210.596 312.028 217.932 314.911C231.209 320.129 242.711 318.506 252.54 312.967C274.66 300.502 270.243 237.363 270.243 237.363L263.996 238.583C263.996 238.583 265.636 280.029 259.876 286.818C257.423 289.71 247.498 284.075 234.364 283.949C218.837 283.795 206.082 290.711 203.815 287.612C201.096 283.905 196.962 262.229 201.847 238.266C203.793 228.715 192.298 237.959 192.298 237.959C192.298 237.959 193.677 280.724 199.604 294.152Z" fill="#AB662D"/>
<path d="M219.934 212.951L223.877 210.117C229.121 205.762 246.739 201.257 253.11 206.501C251.603 206.53 252.647 207.422 251.132 207.501C259.92 209.475 274.338 213.242 275.35 232.401C275.809 241.094 274.472 253.09 272.823 261.385C270.811 261.59 270.914 260.683 269.317 261.969C268.073 262.971 267.785 263.468 267.327 264.385C267.716 254.663 264.567 241.471 257.532 233.781C254.248 230.193 245.488 231.799 240.731 230.784C234.774 229.509 229.2 227.399 224.63 223.515C219.334 219.014 216.241 216.633 219.934 212.951Z" fill="#AB662D"/>
<path d="M227.494 209.95C233.181 211.892 240.568 213.407 243.796 218.894L242.029 218.363C247.993 225.508 230.258 244.95 225.685 249.588C220.463 254.89 213.68 257.571 207.156 259.139C207.001 257.993 207.136 256.733 207.4 255.538C207.666 254.858 207.864 254.206 207.924 253.652C207.726 254.238 207.542 254.879 207.4 255.538C206.669 257.375 205.358 259.438 204.312 260.511C201.876 263.012 196.122 270.825 195.574 276.9C187.638 245.315 186.153 227.028 200.899 213.76C208.378 207.028 223.585 208.617 227.494 209.95Z" fill="#AB662D"/>
<path d="M221.259 293.725C222.929 293.843 224.591 294.295 226.147 294.864C227.71 295.413 229.218 295.958 230.796 296.297C233.941 297.044 237.22 297.292 240.524 297.832C238.868 298.063 237.197 298.202 235.522 298.143C233.845 298.122 232.162 297.928 230.503 297.551C228.846 297.167 227.246 296.528 225.763 295.788C224.272 295.065 222.825 294.332 221.259 293.725Z" fill="#3F211B"/>
<path d="M286.738 210.673C283.582 207.862 279.621 200.657 273.109 198.606C266.596 196.555 260.025 198.858 254.959 205.24C249.893 211.623 252.05 213.615 253.603 212.604C255.158 211.592 262.455 205.479 266.253 205.472C270.05 205.463 273.478 209.984 279.499 212.431C285.563 214.894 286.529 213.512 286.738 210.673Z" fill="#FDC68A"/>
<path d="M285.95 205.801C285.117 207.988 282.09 211.148 277.811 213.002C290.212 225.464 309.753 268.539 314.971 281.213C320.189 293.886 337.98 296.183 345.562 286.831C352.845 277.848 353.877 267.388 330.833 245.238C310.152 225.359 285.95 205.801 285.95 205.801Z" fill="#ECECE8"/>
<path d="M125.426 324.975C120.573 326.007 119.072 320.169 119.945 317.544C120.82 314.919 121.049 311.907 120.565 309.569C120.079 307.232 120.249 304.78 122.157 304.444C124.065 304.107 123.79 307.233 124.689 312.358C125.59 317.485 130.807 323.832 125.426 324.975Z" fill="#FDC68A"/>
<path d="M599.6 309.01C607.721 305.73 620.953 308.69 632.474 322.825C644.963 338.15 649.379 360.819 652.029 418.23C653.654 453.448 649.148 496.957 649.148 496.957C649.148 496.957 601.983 518.635 559.818 496.481C559.105 475.281 562.678 387.858 567.919 355.46C573.159 323.064 587.212 314.011 599.6 309.01Z" fill="#5497FF"/>
<path d="M525.887 413.156C525.887 413.156 510.16 411.311 501.229 410.05C492.299 408.787 487.675 404.882 483.697 401.575C480.409 398.842 478.169 396.306 479.678 394.905C481.692 393.034 488.065 399.817 489.639 400.956C492.066 402.713 493.699 403.628 496.613 404.004C500.229 404.468 507.151 404.515 509.675 402.769C512.198 401.022 507.054 396.361 505.404 394.225C503.754 392.09 502.977 390.828 504.82 390.051C506.666 389.274 513.85 395.972 516.179 399.565C518.509 403.156 524.626 407.33 527.732 407.816C528.759 409.858 525.887 413.156 525.887 413.156Z" fill="#FABE7C"/>
<path d="M614.487 314.034L604.095 258.022L570.308 263L582.073 327.71C590.231 333.153 607.208 319.846 614.487 314.034Z" fill="#ED9F5E"/>
<path d="M608.239 295.752C608.239 295.752 573.966 331.92 560.355 324.46C558.303 323.338 547.154 303.682 546.392 302.239C539.421 289.028 532.493 265.647 532.158 255.197C531.258 227.1 550.444 202.582 571.565 204.7C592.683 206.822 641.842 222.401 608.239 295.752Z" fill="#FABE7C"/>
<path d="M545.239 273.144L545.32 273.065L543.676 270.759C539.815 278.037 534.562 283.828 529.906 289.767C544.577 298.42 554.146 285.087 547.962 271.731C546.795 272.041 545.784 272.726 545.239 273.144C544.717 273.549 544.645 273.705 545.239 273.144Z" fill="#FABE7C"/>
<path d="M591.634 267.317C596.427 276.147 603.184 295.305 611.088 296.262C617.454 285.133 625.968 268.606 628.027 255.806C630.034 243.343 627.881 219.247 607.919 210.236C588.296 199.443 581.46 198.514 573.056 200.668C566.264 202.409 553.103 206.991 546.485 213.347C543.432 216.277 540.531 219.847 538.4 223.452C537.166 225.538 536.427 230.77 535.409 233.93L536.064 232.732C542.873 235.25 553.759 222.017 559.355 226.93C565.844 232.613 567.325 255.477 572.978 261.918C577.806 267.427 584.848 260.555 591.634 267.317Z" fill="#935025"/>
<path d="M595.958 266.247C596.016 273.153 591.381 281.989 586.843 282.025C582.304 282.061 578.574 276.498 578.516 269.592C578.458 262.688 580.569 253.285 586.601 253.576C591.133 253.795 595.9 259.341 595.958 266.247Z" fill="#FABE7C"/>
<path d="M532.935 238.35C538.493 240.511 550.638 239.335 554.739 238.686C556.985 238.329 559.209 237.894 561.417 237.397C558.839 235.473 556.217 233.278 554.462 231.248C552.283 228.728 544.991 221.492 543.317 220.602C543.246 221.916 543.891 223.592 544.239 225.137C541.08 221.43 535.871 219.319 532.79 215.436C532.547 217.753 532.728 219.977 533.174 222.367C530.742 220.855 529.04 218.227 527.537 216.083C526.368 219.48 527.91 224.212 528.866 227.913C529.447 230.168 530.856 234.756 532.935 238.35Z" fill="#CA8D51"/>
<path d="M572.272 296.846C571.874 297.698 571.262 298.425 570.625 299.078C569.987 299.74 569.291 300.322 568.591 300.892C567.159 301.997 565.698 303.021 564.02 303.838C565.07 302.291 566.434 301.068 567.837 299.94C569.262 298.815 570.739 297.873 572.272 296.846Z" fill="#935025"/>
<path d="M544.479 279.235C545.048 280.077 546.19 280.298 547.033 279.729C547.874 279.161 548.097 278.018 547.528 277.177C546.96 276.334 545.817 276.112 544.976 276.68C544.134 277.249 543.911 278.392 544.479 279.235Z" fill="#5B3118"/>
<path d="M536.532 261.429C551.458 257.295 561.497 260.262 552.212 263.458C542.927 266.656 526.689 264.154 536.532 261.429Z" fill="#935025"/>
<path d="M592.051 226.408C576.496 197.072 516.701 199.616 516.701 199.616C508.06 230.464 521.223 239.28 529.163 242.727C548.23 251.005 574.516 228.737 588.541 241.389C595.601 247.76 606.799 292.846 606.799 292.846C606.799 292.846 624.123 248.265 616.051 230.525C610.126 217.504 592.051 226.408 592.051 226.408Z" fill="#935025"/>
<path d="M609.774 205.272C606.239 205.488 605.268 207.059 605.268 207.059C608.202 202.712 607.052 196.309 607.052 196.309C599.886 199.576 600.057 205.07 600.057 205.07C597.371 197.776 587.305 194.654 587.305 194.654C587.1 200.457 592.71 206.918 593.026 207.128L597.6 215.745L608.806 215.034L608.174 210.003C610.215 207.605 609.774 205.272 609.774 205.272Z" fill="#935025"/>
<path d="M540.134 195.353C539.96 199.529 543.15 204.084 543.15 204.084C543.15 204.084 601.165 251.901 592.048 226.402C582.93 200.901 540.134 195.353 540.134 195.353Z" fill="#935025"/>
<path d="M621.382 321.611C609.63 321.456 599.949 331.635 598.891 358.073C598.158 376.397 599.536 398.446 600.172 407.195C600.321 409.229 598.641 410.919 596.605 410.782C582.06 409.794 531.262 406.359 527.908 406.359C523.991 406.359 521.677 414.371 526.305 416.864C530.935 419.356 572.597 436.27 595.387 441.255C618.177 446.241 636.595 445.3 638.118 436.449C641.114 419.032 642.212 368.257 640.075 351.522C637.939 334.785 634.913 321.789 621.382 321.611Z" fill="#0467FF"/>
<circle cx="470.88" cy="319.614" r="5.13687" fill="url(#paint8_linear_1_260)"/>
<circle cx="496.564" cy="351.876" r="5.13687" fill="url(#paint9_linear_1_260)"/>
<circle cx="512.831" cy="351.876" r="2.56843" fill="url(#paint10_linear_1_260)"/>
<circle cx="508.066" cy="363.378" r="2.56843" transform="rotate(45 508.066 363.378)" fill="url(#paint11_linear_1_260)"/>
<circle cx="496.288" cy="368.142" r="2.56843" transform="rotate(90 496.288 368.142)" fill="url(#paint12_linear_1_260)"/>
<circle cx="484.786" cy="363.378" r="2.56843" transform="rotate(135 484.786 363.378)" fill="url(#paint13_linear_1_260)"/>
<circle cx="480.297" cy="351.876" r="2.56843" fill="url(#paint14_linear_1_260)"/>
<circle cx="485.062" cy="340.373" r="2.56843" transform="rotate(45 485.062 340.373)" fill="url(#paint15_linear_1_260)"/>
<circle cx="496.288" cy="335.609" r="2.56843" transform="rotate(90 496.288 335.609)" fill="url(#paint16_linear_1_260)"/>
<circle cx="507.79" cy="340.373" r="2.56843" transform="rotate(135 507.79 340.373)" fill="url(#paint17_linear_1_260)"/>
<defs>
<filter id="filter0_d_1_260" x="305.896" y="191.466" width="68.8422" height="68.8422" filterUnits="userSpaceOnUse" color-interpolation-filters="sRGB">
<feFlood flood-opacity="0" result="BackgroundImageFix"/>
<feColorMatrix in="SourceAlpha" type="matrix" values="0 0 0 0 0 0 0 0 0 0 0 0 0 0 0 0 0 0 127 0" result="hardAlpha"/>
<feMorphology radius="12" operator="erode" in="SourceAlpha" result="effect1_dropShadow_1_260"/>
<feOffset dy="18"/>
<feGaussianBlur stdDeviation="20"/>
<feColorMatrix type="matrix" values="0 0 0 0 0.243137 0 0 0 0 0.741176 0 0 0 0 1 0 0 0 0.45 0"/>
<feBlend mode="normal" in2="BackgroundImageFix" result="effect1_dropShadow_1_260"/>
<feBlend mode="normal" in="SourceGraphic" in2="effect1_dropShadow_1_260" result="shape"/>
</filter>
<filter id="filter1_d_1_260" x="653.491" y="356.701" width="68.8422" height="68.8422" filterUnits="userSpaceOnUse" color-interpolation-filters="sRGB">
<feFlood flood-opacity="0" result="BackgroundImageFix"/>
<feColorMatrix in="SourceAlpha" type="matrix" values="0 0 0 0 0 0 0 0 0 0 0 0 0 0 0 0 0 0 127 0" result="hardAlpha"/>
<feMorphology radius="12" operator="erode" in="SourceAlpha" result="effect1_dropShadow_1_260"/>
<feOffset dy="18"/>
<feGaussianBlur stdDeviation="20"/>
<feColorMatrix type="matrix" values="0 0 0 0 0.243137 0 0 0 0 0.741176 0 0 0 0 1 0 0 0 0.45 0"/>
<feBlend mode="normal" in2="BackgroundImageFix" result="effect1_dropShadow_1_260"/>
<feBlend mode="normal" in="SourceGraphic" in2="effect1_dropShadow_1_260" result="shape"/>
</filter>
<filter id="filter2_d_1_260" x="516.508" y="486.836" width="68.8422" height="68.8422" filterUnits="userSpaceOnUse" color-interpolation-filters="sRGB">
<feFlood flood-opacity="0" result="BackgroundImageFix"/>
<feColorMatrix in="SourceAlpha" type="matrix" values="0 0 0 0 0 0 0 0 0 0 0 0 0 0 0 0 0 0 127 0" result="hardAlpha"/>
<feMorphology radius="12" operator="erode" in="SourceAlpha" result="effect1_dropShadow_1_260"/>
<feOffset dy="18"/>
<feGaussianBlur stdDeviation="20"/>
<feColorMatrix type="matrix" values="0 0 0 0 0.243137 0 0 0 0 0.741176 0 0 0 0 1 0 0 0 0.45 0"/>
<feBlend mode="normal" in2="BackgroundImageFix" result="effect1_dropShadow_1_260"/>
<feBlend mode="normal" in="SourceGraphic" in2="effect1_dropShadow_1_260" result="shape"/>
</filter>
<filter id="filter3_d_1_260" x="272.507" y="476.562" width="82.5405" height="82.5405" filterUnits="userSpaceOnUse" color-interpolation-filters="sRGB">
<feFlood flood-opacity="0" result="BackgroundImageFix"/>
<feColorMatrix in="SourceAlpha" type="matrix" values="0 0 0 0 0 0 0 0 0 0 0 0 0 0 0 0 0 0 127 0" result="hardAlpha"/>
<feMorphology radius="12" operator="erode" in="SourceAlpha" result="effect1_dropShadow_1_260"/>
<feOffset dy="18"/>
<feGaussianBlur stdDeviation="20"/>
<feColorMatrix type="matrix" values="0 0 0 0 0.243137 0 0 0 0 0.741176 0 0 0 0 1 0 0 0 0.45 0"/>
<feBlend mode="normal" in2="BackgroundImageFix" result="effect1_dropShadow_1_260"/>
<feBlend mode="normal" in="SourceGraphic" in2="effect1_dropShadow_1_260" result="shape"/>
</filter>
<filter id="filter4_d_1_260" x="508.803" y="437.179" width="71.4106" height="71.4106" filterUnits="userSpaceOnUse" color-interpolation-filters="sRGB">
<feFlood flood-opacity="0" result="BackgroundImageFix"/>
<feColorMatrix in="SourceAlpha" type="matrix" values="0 0 0 0 0 0 0 0 0 0 0 0 0 0 0 0 0 0 127 0" result="hardAlpha"/>
<feMorphology radius="12" operator="erode" in="SourceAlpha" result="effect1_dropShadow_1_260"/>
<feOffset dy="18"/>
<feGaussianBlur stdDeviation="20"/>
<feColorMatrix type="matrix" values="0 0 0 0 0.243137 0 0 0 0 0.741176 0 0 0 0 1 0 0 0 0.45 0"/>
<feBlend mode="normal" in2="BackgroundImageFix" result="effect1_dropShadow_1_260"/>
<feBlend mode="normal" in="SourceGraphic" in2="effect1_dropShadow_1_260" result="shape"/>
</filter>
<filter id="filter5_d_1_260" x="96.141" y="436.323" width="71.4106" height="71.4106" filterUnits="userSpaceOnUse" color-interpolation-filters="sRGB">
<feFlood flood-opacity="0" result="BackgroundImageFix"/>
<feColorMatrix in="SourceAlpha" type="matrix" values="0 0 0 0 0 0 0 0 0 0 0 0 0 0 0 0 0 0 127 0" result="hardAlpha"/>
<feMorphology radius="12" operator="erode" in="SourceAlpha" result="effect1_dropShadow_1_260"/>
<feOffset dy="18"/>
<feGaussianBlur stdDeviation="20"/>
<feColorMatrix type="matrix" values="0 0 0 0 0.243137 0 0 0 0 0.741176 0 0 0 0 1 0 0 0 0.45 0"/>
<feBlend mode="normal" in2="BackgroundImageFix" result="effect1_dropShadow_1_260"/>
<feBlend mode="normal" in="SourceGraphic" in2="effect1_dropShadow_1_260" result="shape"/>
</filter>
<filter id="filter6_d_1_260" x="427.469" y="506.527" width="63.7053" height="63.7053" filterUnits="userSpaceOnUse" color-interpolation-filters="sRGB">
<feFlood flood-opacity="0" result="BackgroundImageFix"/>
<feColorMatrix in="SourceAlpha" type="matrix" values="0 0 0 0 0 0 0 0 0 0 0 0 0 0 0 0 0 0 127 0" result="hardAlpha"/>
<feMorphology radius="12" operator="erode" in="SourceAlpha" result="effect1_dropShadow_1_260"/>
<feOffset dy="18"/>
<feGaussianBlur stdDeviation="20"/>
<feColorMatrix type="matrix" values="0 0 0 0 0.243137 0 0 0 0 0.741176 0 0 0 0 1 0 0 0 0.45 0"/>
<feBlend mode="normal" in2="BackgroundImageFix" result="effect1_dropShadow_1_260"/>
<feBlend mode="normal" in="SourceGraphic" in2="effect1_dropShadow_1_260" result="shape"/>
</filter>
<linearGradient id="paint0_linear_1_260" x1="333.896" y1="201.466" x2="347.818" y2="202.768" gradientUnits="userSpaceOnUse">
<stop stop-color="#1884FF"/>
<stop offset="1" stop-color="#49CDFF"/>
</linearGradient>
<linearGradient id="paint1_linear_1_260" x1="681.491" y1="366.701" x2="695.413" y2="368.003" gradientUnits="userSpaceOnUse">
<stop stop-color="#1884FF"/>
<stop offset="1" stop-color="#49CDFF"/>
</linearGradient>
<linearGradient id="paint2_linear_1_260" x1="544.508" y1="496.836" x2="558.43" y2="498.138" gradientUnits="userSpaceOnUse">
<stop stop-color="#1884FF"/>
<stop offset="1" stop-color="#49CDFF"/>
</linearGradient>
<linearGradient id="paint3_linear_1_260" x1="300.507" y1="486.562" x2="329.278" y2="489.253" gradientUnits="userSpaceOnUse">
<stop stop-color="#1884FF"/>
<stop offset="1" stop-color="#49CDFF"/>
</linearGradient>
<linearGradient id="paint4_linear_1_260" x1="536.803" y1="447.179" x2="553.509" y2="448.742" gradientUnits="userSpaceOnUse">
<stop stop-color="#1884FF"/>
<stop offset="1" stop-color="#49CDFF"/>
</linearGradient>
<linearGradient id="paint5_linear_1_260" x1="124.141" y1="446.323" x2="140.847" y2="447.885" gradientUnits="userSpaceOnUse">
<stop stop-color="#1884FF"/>
<stop offset="1" stop-color="#49CDFF"/>
</linearGradient>
<linearGradient id="paint6_linear_1_260" x1="455.469" y1="516.527" x2="463.822" y2="517.308" gradientUnits="userSpaceOnUse">
<stop stop-color="#1884FF"/>
<stop offset="1" stop-color="#49CDFF"/>
</linearGradient>
<linearGradient id="paint7_linear_1_260" x1="121.929" y1="213.659" x2="121.929" y2="316.487" gradientUnits="userSpaceOnUse">
<stop stop-color="#01FF88"/>
<stop offset="1" stop-color="#43F3DB"/>
</linearGradient>
<linearGradient id="paint8_linear_1_260" x1="470.88" y1="314.477" x2="470.88" y2="324.75" gradientUnits="userSpaceOnUse">
<stop stop-color="#01FF88"/>
<stop offset="1" stop-color="#42F4DA"/>
</linearGradient>
<linearGradient id="paint9_linear_1_260" x1="496.564" y1="346.739" x2="496.564" y2="357.013" gradientUnits="userSpaceOnUse">
<stop stop-color="#01FF88"/>
<stop offset="1" stop-color="#42F4DA"/>
</linearGradient>
<linearGradient id="paint10_linear_1_260" x1="512.831" y1="349.307" x2="512.831" y2="354.444" gradientUnits="userSpaceOnUse">
<stop stop-color="#01FF88"/>
<stop offset="1" stop-color="#42F4DA"/>
</linearGradient>
<linearGradient id="paint11_linear_1_260" x1="508.066" y1="360.81" x2="508.066" y2="365.946" gradientUnits="userSpaceOnUse">
<stop stop-color="#01FF88"/>
<stop offset="1" stop-color="#42F4DA"/>
</linearGradient>
<linearGradient id="paint12_linear_1_260" x1="496.288" y1="365.574" x2="496.288" y2="370.711" gradientUnits="userSpaceOnUse">
<stop stop-color="#01FF88"/>
<stop offset="1" stop-color="#42F4DA"/>
</linearGradient>
<linearGradient id="paint13_linear_1_260" x1="484.786" y1="360.81" x2="484.786" y2="365.946" gradientUnits="userSpaceOnUse">
<stop stop-color="#01FF88"/>
<stop offset="1" stop-color="#42F4DA"/>
</linearGradient>
<linearGradient id="paint14_linear_1_260" x1="480.297" y1="349.307" x2="480.297" y2="354.444" gradientUnits="userSpaceOnUse">
<stop stop-color="#01FF88"/>
<stop offset="1" stop-color="#42F4DA"/>
</linearGradient>
<linearGradient id="paint15_linear_1_260" x1="485.062" y1="337.805" x2="485.062" y2="342.942" gradientUnits="userSpaceOnUse">
<stop stop-color="#01FF88"/>
<stop offset="1" stop-color="#42F4DA"/>
</linearGradient>
<linearGradient id="paint16_linear_1_260" x1="496.288" y1="333.04" x2="496.288" y2="338.177" gradientUnits="userSpaceOnUse">
<stop stop-color="#01FF88"/>
<stop offset="1" stop-color="#42F4DA"/>
</linearGradient>
<linearGradient id="paint17_linear_1_260" x1="507.79" y1="337.805" x2="507.79" y2="342.942" gradientUnits="userSpaceOnUse">
<stop stop-color="#01FF88"/>
<stop offset="1" stop-color="#42F4DA"/>
</linearGradient>
</defs>
</svg>
