<?xml version="1.0" encoding="utf-8"?>
<!-- Generator: Adobe Illustrator 27.5.0, SVG Export Plug-In . SVG Version: 6.00 Build 0)  -->
<svg version="1.1" xmlns="http://www.w3.org/2000/svg" xmlns:xlink="http://www.w3.org/1999/xlink" x="0px" y="0px"
	 viewBox="0 0 500 500" style="enable-background:new 0 0 500 500;" xml:space="preserve">
<g id="BACKGROUND">
	<g>
		<defs>
			<path id="SVGID_1_" d="M58.262,176.652c1.09-25.642,8.384-50.438,24.597-73.26c60.975-85.828,213.808-83.654,298.377-35.33
				c25.393,14.51,47.238,36.758,55.988,64.275c7.067,22.225,5.243,46.026,5.116,69.274c-0.143,26.212,5.466,45.653,16.225,69.175
				c8.611,18.827,10.421,41.205,6.936,61.328c-7.562,43.662-40.094,78.998-79.131,99.037c-62.045,31.85-160.49,32.24-236.181,13.892
				c-38.254-9.273-74.788-28.041-93.365-54.445c-14.781-21.008-17.07-45.036-12.351-67.162c3.795-17.791,12.768-33.688,20.27-50.464
				c6.013-13.447,3.47-25.137-0.129-39.756C59.934,214.204,57.474,195.207,58.262,176.652z"/>
		</defs>
		<clipPath id="SVGID_00000031905182837570491900000001782417903944447162_">
			<use xlink:href="#SVGID_1_"  style="overflow:visible;"/>
		</clipPath>
		<g style="clip-path:url(#SVGID_00000031905182837570491900000001782417903944447162_);">
			<g>
				<rect x="14.923" y="1.183" style="fill:#F2D1C8;" width="482.512" height="482.513"/>
				<path style="opacity:0.46;fill:#E8BBB1;" d="M245.007,1.212c0,0,76.087,116.154-57.005,160.154S14.923,354.499,14.923,354.499
					V1.183L245.007,1.212z"/>
				<path style="opacity:0.46;fill:#E8BBB1;" d="M352.417,483.696c0,0-83.864-115.912,36.462-159.801
					c81.007-31.519,108.556-175.67,108.556-175.67v335.471H352.417z"/>
				<path style="opacity:0.46;fill:#E8BBB1;" d="M209.974,483.696c0,0-11.64-191.712-124.468-128.408
					c-34.422,20.276-30.252,99.457-70.584,72.296c0,56.112,0,56.112,0,56.112H209.974z"/>
			</g>
			
				<ellipse transform="matrix(0.7071 -0.7071 0.7071 0.7071 34.3996 273.7625)" style="opacity:0.3;fill:#FFFFFF;" cx="347.66" cy="95.357" rx="21.888" ry="21.888"/>
		</g>
	</g>
</g>
<g id="OBJECTS">
	<g>
		<g>
			<path style="fill:#D66562;" d="M366.501,133.839l-23.078-10.983c1.977-4.977,4.172-8.886,6.587-11.729
				c2.413-2.843,4.873-4.993,7.383-6.451c2.508-1.458,5.003-2.419,7.486-2.885c2.482-0.465,4.832-0.771,7.051-0.915
				c2.217-0.144,4.214-0.353,5.991-0.624c1.775-0.271,3.239-0.971,4.39-2.098c0.708-0.668,1.249-1.568,1.622-2.703
				c0.372-1.134,0.387-2.37,0.046-3.704c-0.343-1.335-1.141-2.705-2.397-4.114c-1.257-1.407-3.137-2.707-5.64-3.898
				c-1.639-0.78-3.655-1.557-6.049-2.334c-2.394-0.776-4.966-1.442-7.716-1.997c-2.75-0.555-5.532-0.958-8.344-1.207
				c-2.812-0.25-5.445-0.26-7.898-0.032l9.733-28.194c2.16-0.2,4.553-0.33,7.18-0.393c2.625-0.062,5.413,0.092,8.363,0.463
				c2.948,0.371,6.057,0.998,9.321,1.882c3.264,0.884,6.625,2.148,10.085,3.795c5.599,2.665,10.522,5.957,14.77,9.876
				c4.247,3.921,7.522,8.269,9.826,13.05c2.302,4.78,3.501,9.888,3.596,15.319c0.094,5.433-1.213,10.994-3.92,16.683
				c-2.058,4.325-4.325,7.503-6.799,9.535c-2.475,2.033-5.069,3.436-7.782,4.21c-2.714,0.775-5.525,1.168-8.433,1.179
				c-2.91,0.012-5.809,0.153-8.701,0.423c-2.893,0.271-5.749,0.935-8.569,1.993C371.784,129.041,369.083,130.993,366.501,133.839z
				 M361.337,153.489c-0.953,2.003-2.229,3.685-3.825,5.046c-1.598,1.362-3.353,2.382-5.267,3.062
				c-1.915,0.68-3.916,0.983-6.003,0.912c-2.088-0.072-4.11-0.574-6.067-1.505c-2.003-0.953-3.691-2.217-5.063-3.791
				c-1.373-1.574-2.398-3.319-3.078-5.233c-0.68-1.915-0.984-3.915-0.912-6.003c0.072-2.086,0.585-4.132,1.538-6.135
				c0.931-1.957,2.195-3.645,3.791-5.063c1.596-1.418,3.351-2.467,5.266-3.146c1.915-0.68,3.92-0.995,6.019-0.946
				c2.097,0.05,4.148,0.55,6.151,1.504c1.957,0.931,3.616,2.196,4.978,3.793c1.36,1.597,2.382,3.353,3.062,5.268
				c0.68,1.915,0.984,3.943,0.913,6.087C362.768,149.481,362.268,151.532,361.337,153.489z"/>
		</g>
		<g>
			<path style="fill:#D66562;" d="M145.574,141.1l-14.546,9.376c-2.161-2.911-3.631-5.568-4.407-7.972
				c-0.777-2.402-1.139-4.585-1.085-6.55c0.054-1.963,0.39-3.743,1.006-5.339c0.617-1.595,1.278-3.057,1.985-4.386
				c0.707-1.328,1.298-2.552,1.775-3.672c0.477-1.119,0.595-2.211,0.356-3.275c-0.132-0.646-0.458-1.278-0.979-1.897
				c-0.521-0.618-1.227-1.067-2.117-1.346c-0.891-0.279-1.964-0.307-3.223-0.085c-1.258,0.222-2.676,0.842-4.254,1.859
				c-1.033,0.666-2.199,1.55-3.499,2.651c-1.3,1.102-2.6,2.346-3.899,3.732c-1.3,1.386-2.522,2.844-3.668,4.374
				c-1.146,1.53-2.09,3.043-2.833,4.537l-12.768-15.65c0.655-1.315,1.432-2.74,2.331-4.274c0.9-1.534,1.981-3.084,3.246-4.651
				c1.264-1.565,2.733-3.132,4.404-4.697c1.672-1.565,3.597-3.05,5.778-4.455c3.529-2.275,7.179-3.937,10.949-4.986
				c3.771-1.049,7.442-1.385,11.015-1.008c3.573,0.377,6.941,1.507,10.102,3.387c3.162,1.881,5.899,4.615,8.21,8.201
				c1.757,2.726,2.78,5.163,3.068,7.312c0.289,2.149,0.173,4.143-0.348,5.981c-0.52,1.839-1.296,3.597-2.326,5.276
				c-1.03,1.68-1.982,3.4-2.856,5.161c-0.874,1.762-1.51,3.644-1.905,5.644C144.693,136.349,144.855,138.6,145.574,141.1z
				 M155.049,151.075c0.814,1.263,1.328,2.597,1.543,4.001c0.215,1.405,0.177,2.779-0.113,4.124
				c-0.291,1.345-0.829,2.605-1.614,3.781c-0.785,1.176-1.795,2.162-3.028,2.957c-1.263,0.814-2.592,1.336-3.987,1.564
				c-1.396,0.23-2.765,0.199-4.11-0.092c-1.345-0.291-2.605-0.828-3.781-1.614c-1.176-0.785-2.171-1.809-2.985-3.071
				c-0.795-1.233-1.317-2.563-1.565-3.987c-0.248-1.424-0.226-2.808,0.064-4.153c0.291-1.345,0.824-2.612,1.6-3.803
				c0.776-1.19,1.795-2.192,3.057-3.006c1.233-0.795,2.553-1.299,3.958-1.515c1.404-0.214,2.779-0.177,4.124,0.113
				c1.345,0.291,2.621,0.838,3.831,1.643C153.251,148.823,154.254,149.842,155.049,151.075z"/>
		</g>
		<g>
			<path style="fill:#D66562;" d="M186.503,98.124l-10.801,3.374c-0.855-2.211-1.318-4.142-1.388-5.792
				c-0.071-1.649,0.081-3.088,0.458-4.317c0.376-1.228,0.898-2.291,1.564-3.189c0.667-0.898,1.338-1.704,2.015-2.418
				c0.677-0.714,1.263-1.382,1.759-2.005c0.495-0.622,0.76-1.29,0.795-2.002c0.029-0.43-0.066-0.885-0.286-1.366
				c-0.22-0.481-0.587-0.886-1.099-1.217c-0.513-0.331-1.185-0.536-2.016-0.615c-0.831-0.079-1.833,0.064-3.005,0.43
				c-0.767,0.24-1.656,0.594-2.667,1.061c-1.011,0.468-2.047,1.025-3.108,1.672c-1.06,0.647-2.085,1.353-3.074,2.118
				c-0.989,0.765-1.847,1.554-2.576,2.365l-5.319-12.088c0.642-0.715,1.38-1.477,2.214-2.287c0.834-0.81,1.786-1.598,2.856-2.366
				c1.07-0.766,2.268-1.498,3.594-2.192c1.326-0.695,2.798-1.295,4.418-1.801c2.62-0.819,5.21-1.23,7.769-1.234
				c2.559-0.004,4.931,0.424,7.118,1.284c2.186,0.86,4.112,2.159,5.777,3.895c1.665,1.737,2.913,3.937,3.745,6.599
				c0.632,2.024,0.852,3.739,0.66,5.143c-0.192,1.405-0.613,2.641-1.262,3.709c-0.648,1.068-1.444,2.041-2.385,2.92
				c-0.942,0.879-1.841,1.797-2.7,2.755c-0.858,0.958-1.587,2.033-2.184,3.225C186.776,94.976,186.486,96.423,186.503,98.124z
				 M190.737,106.061c0.293,0.938,0.384,1.868,0.275,2.79c-0.109,0.923-0.373,1.783-0.79,2.579
				c-0.417,0.797-0.976,1.498-1.676,2.102c-0.7,0.604-1.508,1.05-2.424,1.336c-0.938,0.293-1.866,0.39-2.785,0.291
				c-0.92-0.098-1.777-0.357-2.574-0.774c-0.797-0.418-1.497-0.976-2.102-1.676c-0.604-0.699-1.053-1.518-1.346-2.456
				c-0.286-0.916-0.383-1.845-0.291-2.785c0.092-0.941,0.347-1.81,0.764-2.606c0.417-0.797,0.974-1.503,1.671-2.118
				c0.696-0.615,1.513-1.069,2.451-1.362c0.916-0.286,1.835-0.374,2.758-0.265c0.922,0.11,1.783,0.373,2.579,0.79
				c0.797,0.418,1.506,0.985,2.128,1.703C189.996,104.328,190.451,105.146,190.737,106.061z"/>
		</g>
	</g>
	<g>
		<g>
			<path style="fill:#924D3E;" d="M307.039,363.372c0,0,8.217,84.981,7.395,136.628c-52.468,0-52.468,0-52.468,0l-8.732-68.314
				L245.542,500h-52.658c0,0,1.459-92.024,6.631-129.585C204.686,332.854,307.039,363.372,307.039,363.372z"/>
			<path style="fill:#56221C;" d="M199.514,370.415c-0.886,6.433-1.663,14.465-2.342,23.357
				c50.098,8.79,98.075-13.472,110.812-20.045c-0.575-6.52-0.946-10.355-0.946-10.355S204.686,332.854,199.514,370.415z"/>
			<path style="fill:none;stroke:#56221C;stroke-width:1.0662;stroke-miterlimit:10;" d="M253.234,431.686
				c0,0,10.023-12.514,7.5-47.926c-18.017-1.138-18.017-1.138-18.017-1.138L253.234,431.686z"/>
			<path style="fill:none;stroke:#56221C;stroke-width:1.0662;stroke-miterlimit:10;" d="M229.57,384.5
				c0,0-8.921,20.659-25.823,22.067"/>
			<path style="fill:none;stroke:#56221C;stroke-width:1.0662;stroke-miterlimit:10;" d="M280.656,383.092
				c0,0,5.724,12.677,20.749,16.433"/>
			<path style="fill:none;stroke:#56221C;stroke-width:1.0662;stroke-miterlimit:10;" d="M299.286,375.11
				c0,0,8.593,90.146,6.06,123.951"/>
			<path style="fill:none;stroke:#56221C;stroke-width:1.0662;stroke-miterlimit:10;" d="M206.564,383.092
				c0,0-7.043,61.506-6.104,115.969"/>
			<path style="fill:#723328;" d="M254.72,431.686c0,0,20.478-11.033,23.855-4.46C281.951,433.799,254.72,431.686,254.72,431.686z"
				/>
			<path style="fill:#723328;" d="M252.995,431.686c0,0-20.478-11.033-23.855-4.46C225.764,433.799,252.995,431.686,252.995,431.686
				z"/>
		</g>
		<g>
			<g>
				<path style="fill:#D59880;" d="M461.128,203.573c-2.395-6.385-17.715-5.029-17.715-5.029s0,0-14.633-1.965
					c14.287-4.426,8.696-10.638,6.116-10.261c-2.58,0.376-17.536,0.215-31.178,1.034c-13.642,0.819-19.662,15.751-19.662,15.751
					l-16.715,24.314c3.145,5.679,9.647,13.258,22.395,15.39c6.605-12.44,12.245-22.546,13.953-23.536
					c4.049-2.347,29.595,4.175,34.266,4.079c4.671-0.095,18.635-2.718,18.294-7.06c4.014-0.585,8.392-2.688,7.233-6.618
					C466.712,207.736,467.28,205.603,461.128,203.573z"/>
				<path style="fill:none;stroke:#924D3E;stroke-width:0.4707;stroke-miterlimit:10;" d="M456.248,216.289
					c0,0-1.526-3.437-6.952-2.499s-11.614,0.669-15.777-0.773"/>
				<path style="fill:none;stroke:#924D3E;stroke-width:0.4707;stroke-miterlimit:10;" d="M463.481,209.671
					c0,0-0.901-2.165-6.474-1.229c-5.573,0.936-17.892-1.22-19.982-1.5"/>
				<path style="fill:none;stroke:#924D3E;stroke-width:0.4707;stroke-miterlimit:10;" d="M461.128,203.573
					c0,0-9.443,0.499-13.337-0.104c-3.894-0.603-8.015-1.759-8.015-1.759"/>
				<path style="fill:none;stroke:#924D3E;stroke-width:0.4707;stroke-miterlimit:10;" d="M428.779,196.579
					c0,0-8.039-2.927-12.839-4.715"/>
				<path style="opacity:0.24;fill:#EFEEE4;" d="M391.632,192.582c3.041-2.694,7.04-4.928,12.085-5.23
					c13.642-0.818,28.598-0.658,31.178-1.034s8.171,5.835-6.116,10.261c14.633,1.965,14.633,1.965,14.633,1.965
					s15.32-1.356,17.715,5.029c6.152,2.031,5.585,4.163,2.353,6.098c1.159,3.93-3.219,6.032-7.233,6.618
					c0.064,0.816-0.378,1.572-1.168,2.261c-1.021-0.61-2.2-1.166-3.562-1.571c-11.947-0.112-21.931-1.974-43.752-9.722
					C392.415,201.805,391.077,195.716,391.632,192.582z"/>
			</g>
			<path style="fill:#D66562;" d="M313.177,173.554c0,0,19.052,18.76,22.74,47.952c2.766,23.969,3.688,30.115,3.688,30.115
				s17.516-31.036,26.734-34.724c4.917-12.599,11.37-11.062,11.37-11.062s12.877,18.83,23.632,16.679
				c2.151,8.604-3.044,13.743-3.044,13.743s3.38,19.667-11.677,44.25c-15.057,24.583-30.729,49.781-49.781,43.328
				c-19.052-6.453-29.193-23.969-31.651-35.953C302.729,275.897,313.177,173.554,313.177,173.554z"/>
			<path style="fill:#BF5151;" d="M377.708,205.835c0,0-6.453-1.536-11.37,11.062c0,0,3.38,17.003,31.958,19.359
				c0,0,5.195-5.139,3.044-13.743C390.585,224.664,377.708,205.835,377.708,205.835z"/>
			<path style="fill:#D66562;" d="M394.703,221.574c-2.393-1.02-4.74-2.646-6.894-4.482l-4.014,16.161c0,0,0.001,0,0.001,0
				c0.587,0.214,1.193,0.42,1.819,0.618c0.01,0.003,0.021,0.007,0.031,0.01c0.626,0.197,1.272,0.386,1.938,0.565
				c0.001,0,0.003,0.001,0.004,0.001c1.345,0.361,2.774,0.684,4.291,0.962c0,0,0,0,0.001,0
				C393.485,230.15,394.293,225.169,394.703,221.574z"/>
			<path style="fill:#D66562;" d="M375.538,229.031c2.726-6.662,6.266-12.832,8.244-16.084c-1.269-1.235-2.384-2.465-3.304-3.549
				c-4.398,2.952-8.258,9.669-10.561,14.367C371.257,225.468,373.075,227.299,375.538,229.031z"/>
			<path style="fill:#EFEEE4;" d="M395.229,261.892c1.339-4.186,2.178-8.015,2.682-11.361
				c-24.605-4.685-36.767-17.245-41.735-24.099c-2.387,3.017-4.785,6.406-6.988,9.7C361.755,253.88,385.027,260,395.229,261.892z"/>
			<path style="fill:#EFEEE4;" d="M368.757,307.375c4.017-5.103,7.927-10.951,11.774-17.04
				c-30.161-1.994-40.927-38.714-40.927-38.714C339.018,287.759,357.944,302.125,368.757,307.375z"/>
			<path style="fill:#EFEEE4;" d="M336.234,323.616c-13.138-12.927-8.922-50.587-8.922-50.587
				c-10.666,7.364-15.819,18.502-18.199,25.91C313.983,308.697,322.881,318.88,336.234,323.616z"/>
			<path style="fill:#EFEEE4;" d="M337.424,234.355c-11.13,1.792-24.857,12.3-31.189,17.598c-0.383,5.411-0.71,10.546-0.953,15.17
				c0.223,1.057,0.463,2.197,0.726,3.447c11.275-18.628,26.969-23.306,32.865-24.438
				C338.531,243.468,338.058,239.659,337.424,234.355z"/>
			<path style="fill:#EFEEE4;" d="M335.08,216.306c-0.712-3.663-1.655-7.134-2.747-10.4c-8.471,1.284-17.688,5.908-23.084,8.977
				c-0.444,4.984-0.892,10.143-1.324,15.317C317.469,218.706,328.897,216.537,335.08,216.306z"/>
			
				<line style="fill:none;stroke:#924D3E;stroke-width:0.9304;stroke-miterlimit:10;" x1="339.604" y1="251.621" x2="327.313" y2="273.029"/>
			<path style="opacity:0.16;fill:#56221C;" d="M361.093,315.928c-1.775-10.006-10.509-17.606-21.025-17.606
				c-9.584,0-17.694,6.312-20.399,15.006c4.607,4.419,10.307,8.182,17.169,10.506C345.541,326.782,353.537,323.114,361.093,315.928z
				"/>
		</g>
		<g>
			<g>
				<path style="fill:#D59880;" d="M43.239,201.713c2.395-6.385,17.715-5.029,17.715-5.029s0,0,14.633-1.965
					c-14.287-4.426-8.696-10.638-6.116-10.261c2.58,0.376,17.536,0.215,31.178,1.034c13.642,0.819,19.662,15.751,19.662,15.751
					l16.715,24.314c-3.145,5.679-9.647,13.258-22.395,15.39c-6.605-12.44-12.245-22.546-13.953-23.536
					c-4.05-2.347-29.595,4.175-34.266,4.079c-4.671-0.096-18.635-2.718-18.295-7.06c-4.014-0.585-8.392-2.688-7.233-6.618
					C37.655,205.876,37.087,203.744,43.239,201.713z"/>
				<path style="fill:none;stroke:#924D3E;stroke-width:0.4707;stroke-miterlimit:10;" d="M48.119,214.43c0,0,1.526-3.437,6.952-2.5
					c5.426,0.938,11.614,0.669,15.777-0.773"/>
				<path style="fill:none;stroke:#924D3E;stroke-width:0.4707;stroke-miterlimit:10;" d="M40.886,207.812
					c0,0,0.901-2.165,6.474-1.229c5.573,0.936,17.892-1.22,19.982-1.5"/>
				<path style="fill:none;stroke:#924D3E;stroke-width:0.4707;stroke-miterlimit:10;" d="M43.239,201.713
					c0,0,9.443,0.499,13.337-0.104c3.894-0.603,8.015-1.759,8.015-1.759"/>
				<path style="fill:none;stroke:#924D3E;stroke-width:0.4707;stroke-miterlimit:10;" d="M75.588,194.72
					c0,0,8.039-2.927,12.838-4.715"/>
				<path style="opacity:0.17;fill:#6B3C39;" d="M112.735,190.722c-3.041-2.694-7.041-4.928-12.085-5.23
					c-13.642-0.818-28.598-0.658-31.178-1.034c-2.58-0.376-8.171,5.835,6.116,10.261c-14.633,1.965-14.633,1.965-14.633,1.965
					s-15.32-1.356-17.715,5.029c-6.152,2.031-5.585,4.163-2.353,6.098c-1.159,3.93,3.219,6.033,7.233,6.618
					c-0.064,0.816,0.378,1.572,1.168,2.261c1.021-0.61,2.2-1.166,3.562-1.571c11.946-0.112,21.931-1.974,43.752-9.722
					C111.952,199.946,113.289,193.857,112.735,190.722z"/>
			</g>
			<path style="fill:#D66562;" d="M191.19,171.695c0,0-19.052,18.76-22.74,47.952c-2.766,23.969-3.688,30.115-3.688,30.115
				s-17.516-31.036-26.734-34.724c-4.917-12.599-11.37-11.062-11.37-11.062s-12.877,18.83-23.632,16.679
				c-2.151,8.604,3.044,13.743,3.044,13.743s-3.38,19.667,11.677,44.25c15.057,24.583,30.729,49.781,49.781,43.328
				s29.193-23.969,31.651-35.953C201.637,274.038,191.19,171.695,191.19,171.695z"/>
			<path style="fill:#BF5151;" d="M126.658,203.975c0,0,6.453-1.536,11.37,11.062c0,0-3.38,17.003-31.958,19.359
				c0,0-5.195-5.139-3.044-13.743C113.781,222.805,126.658,203.975,126.658,203.975z"/>
			<path style="fill:#D66562;" d="M109.664,219.715c2.393-1.02,4.74-2.646,6.893-4.482l4.014,16.161c0,0-0.001,0-0.001,0.001
				c-0.586,0.214-1.193,0.42-1.819,0.617c-0.01,0.003-0.021,0.007-0.031,0.01c-0.626,0.197-1.272,0.386-1.938,0.565
				c-0.001,0-0.003,0.001-0.004,0.001c-1.345,0.361-2.774,0.684-4.291,0.962c0,0,0,0-0.001,0
				C110.882,228.291,110.073,223.31,109.664,219.715z"/>
			<path style="fill:#D66562;" d="M128.829,227.171c-2.726-6.662-6.266-12.832-8.244-16.084c1.269-1.235,2.384-2.465,3.305-3.549
				c4.398,2.952,8.258,9.669,10.561,14.367C133.11,223.609,131.292,225.44,128.829,227.171z"/>
			<path style="fill:#EFEEE4;" d="M109.138,260.033c-1.339-4.186-2.178-8.015-2.682-11.361
				c24.605-4.685,36.767-17.245,41.735-24.099c2.387,3.017,4.785,6.406,6.989,9.7C142.612,252.021,119.339,258.141,109.138,260.033z
				"/>
			<path style="fill:#EFEEE4;" d="M135.61,305.516c-4.017-5.103-7.927-10.951-11.774-17.04
				c30.161-1.995,40.927-38.714,40.927-38.714C165.349,285.9,146.423,300.266,135.61,305.516z"/>
			<path style="fill:#EFEEE4;" d="M168.133,321.756c13.138-12.927,8.921-50.587,8.921-50.587
				c10.666,7.364,15.82,18.502,18.199,25.91C190.384,306.837,181.485,317.021,168.133,321.756z"/>
			<path style="fill:#EFEEE4;" d="M166.943,232.495c11.13,1.792,24.857,12.3,31.189,17.598c0.383,5.411,0.71,10.546,0.953,15.17
				c-0.223,1.057-0.463,2.197-0.726,3.447c-11.275-18.628-26.969-23.306-32.865-24.438
				C165.836,241.609,166.309,237.8,166.943,232.495z"/>
			<path style="fill:#EFEEE4;" d="M169.286,214.447c0.713-3.663,1.655-7.134,2.747-10.4c8.47,1.284,17.688,5.909,23.084,8.977
				c0.444,4.984,0.892,10.143,1.324,15.317C186.898,216.847,175.47,214.678,169.286,214.447z"/>
			
				<line style="fill:none;stroke:#924D3E;stroke-width:0.9304;stroke-miterlimit:10;" x1="164.763" y1="249.762" x2="177.054" y2="271.17"/>
			<path style="opacity:0.16;fill:#56221C;" d="M143.274,314.069c1.775-10.006,10.509-17.606,21.025-17.606
				c9.584,0,17.694,6.312,20.399,15.006c-4.607,4.419-10.307,8.182-17.169,10.506C158.825,324.923,150.829,321.254,143.274,314.069z
				"/>
		</g>
		<g>
			<g>
				<path style="fill:#D66562;" d="M255.749,175.216c0,0,16.077-10.412,40.022-7.847c12.677,1.156,17.607,6.421,17.607,6.421
					s4.93,38.048,0,78.543s-4.226,98.245,1.056,112.33c-25.354,22.184-89.09,26.058-123.246,11.62
					c-9.156-15.142,2.113-37.678,3.521-70.074c1.408-32.396-12.677-118.317-3.521-134.515c32.396-9.86,51.059,0.352,51.059,0.352
					L255.749,175.216z"/>
				<path style="fill:#EFEEE4;" d="M293.661,167.176c-22.774-1.761-37.912,8.04-37.912,8.04l-13.502-3.169
					c0,0-10.219-5.578-28.643-4.498c3.363,9.87,13.924,30.908,42.905,30.908C280.905,198.457,290.161,180.176,293.661,167.176z"/>
				<path style="fill:#D59880;" d="M255.127,191.062c16.718,0,25.372-13.417,29.604-24.01c-17.714,0.873-28.983,8.164-28.983,8.164
					l-13.502-3.169c0,0-6.975-3.804-19.777-4.523C225.835,175.698,234.853,191.062,255.127,191.062z"/>
				<path style="fill:#EFEEE4;" d="M188.781,215.117c0.377,6.353,0.877,13.033,1.428,19.811c19.645,3.363,54.92,5.93,77.268-1.744
					c17.239-5.92,35.719-7.744,47.922-8.248c0.196-6.409,0.207-12.508,0.101-18.11c-12.433,0.436-32.216,2.073-54.766,7.477
					C233.664,220.79,203.859,217.555,188.781,215.117z"/>
				<path style="fill:#EFEEE4;" d="M260.734,265.03c-24.795,5.942-51.885,3.726-67.85,1.439c0.575,7.003,1.079,13.707,1.428,19.844
					c20.163,3.002,52.303,4.762,73.165-2.402c15.378-5.281,31.742-7.302,43.759-8.035c0.406-6.245,0.917-12.37,1.537-18.211
					C300.273,258.238,281.704,260.004,260.734,265.03z"/>
				<path style="fill:#EFEEE4;" d="M267.476,334.638c14.957-5.136,30.84-7.187,42.756-7.969c-0.158-5.757-0.215-11.86-0.167-18.138
					c-12.4,0.698-29.827,2.552-49.331,7.226c-24.307,5.825-50.82,3.81-66.896,1.574c-0.76,6.882-1.844,13.265-2.897,19.176
					C210.721,339.807,245.405,342.217,267.476,334.638z"/>
				<path style="fill:#EFEEE4;" d="M188.027,367.174c0.491,3.295,1.479,6.328,3.161,9.109
					c34.157,14.438,97.893,10.564,123.246-11.62c-0.534-1.424-1.02-3.301-1.46-5.555c-12.501,0.564-31.158,2.322-52.241,7.374
					C233.207,373.079,202.849,369.622,188.027,367.174z"/>
				<path style="fill:none;stroke:#723328;stroke-width:1.0662;stroke-miterlimit:10;" d="M191.188,171.695
					c0,0-3.654,31.692-0.979,63.233c2.675,31.541,5.005,62.278,5.005,62.278"/>
				<path style="fill:none;stroke:#723328;stroke-width:1.0662;stroke-miterlimit:10;" d="M313.378,173.79
					c0,0,4.727,45.135,0.955,69.41c-3.772,24.275-4.101,57.741-4.101,57.741"/>
			</g>
			<path style="opacity:0.16;fill:#56221C;" d="M213.315,236.948c0,0,19.191,64.689,61.427,80.927
				c42.236,16.237-23.576-28.279-31.022-41.394C236.274,263.365,206.077,223.632,213.315,236.948z"/>
		</g>
		<g>
			<path style="fill:#D59880;" d="M233.326,139.885l2.113,41.082c0,0,14.555,6.573,31.457,0
				c-5.165-33.101-5.165-33.101-5.165-33.101l-23.945-14.79L233.326,139.885z"/>
			<path style="fill:#312A2E;" d="M263.674,160.318l-23.998-5.878c0,0,2.636,22.431,27.116,25.86
				C265.41,171.443,264.404,164.996,263.674,160.318z"/>
			<path style="fill:#723328;" d="M223.701,133.782c0,0-6.338-9.86-5.869-19.954c-5.634,8.216-12.207-8.686,8.686-26.293
				c-5.165-1.878,0-6.338,3.756-3.521c5.634-10.095,13.146-16.433,8.686-2.113c15.494-15.024,29.579-15.729,37.326-14.79
				c7.747,0.939,7.277,11.973,1.409,15.024c21.363-4.93,30.049,12.207,11.268,16.668c9.155,2.582,19.954,15.963-13.146,15.963
				c-29.11,1.643-33.335,27.701-33.335,27.701l-15.963-1.643L223.701,133.782z"/>
			<path style="fill:#D59880;" d="M234.5,136.129c0,0,2.817,28.405,22.302,36.152c15.729,6.573,24.884-9.86,24.414-19.954
				c-0.469-10.094,0.704-30.283,1.174-36.622c0.47-6.338-7.982-18.546-19.719-20.189c4.695,6.338,11.503,12.442,2.348,11.972
				c-9.155-0.469-16.433-6.104-19.485-6.808c5.634,7.043-0.704,12.677-12.207,9.155C234.5,118.992,244.36,134.486,234.5,136.129z"/>
			<path style="fill:#EFEEE4;" d="M261.466,129.85c0,2.431-3.383,4.402-7.555,4.402c-4.173,0-7.555-1.971-7.555-4.402
				c0-2.431,3.383-4.402,7.555-4.402C258.083,125.448,261.466,127.419,261.466,129.85z"/>
			<path style="fill:#924D3E;" d="M248.367,129.926c0,2.006,1.327,3.683,3.145,4.253c0.433,0.045,0.877,0.072,1.332,0.072
				c0.455,0,0.899-0.028,1.332-0.072c1.818-0.57,3.145-2.248,3.145-4.253c0-2.473-2.005-4.478-4.478-4.478
				S248.367,127.453,248.367,129.926z"/>
			<path style="fill:#EFEEE4;" d="M279.968,125.448c-4.173,0-7.555,1.971-7.555,4.402c0,2.431,3.383,4.402,7.555,4.402
				c0.486,0,0.96-0.029,1.421-0.08c0.115-2.98,0.253-5.913,0.394-8.59C281.201,125.497,280.595,125.448,279.968,125.448z"/>
			<path style="fill:#924D3E;" d="M277.175,125.568c-2.084,0.284-3.834,1.069-4.857,2.127c-0.382,0.659-0.617,1.414-0.617,2.231
				c0,0.655,0.148,1.272,0.4,1.832c1.029,1.242,3.024,2.159,5.423,2.417c1.811-0.574,3.132-2.248,3.132-4.249
				C280.656,127.796,279.167,126.022,277.175,125.568z"/>
			<path style="fill:#924D3E;" d="M256.481,116.1c-3.012-0.217-6.88,0.265-9.609,3.34c-0.801,0.902-2.168,1.012-3.071,0.212l0,0
				c-0.806-0.714-0.984-1.921-0.376-2.81c1.557-2.276,5.367-6.002,13.378-5.314c0.682,0.059,1.295,0.453,1.665,1.029
				c0.016,0.026,0.033,0.052,0.049,0.077C259.512,114.19,258.323,116.233,256.481,116.1z"/>
			<path style="fill:#924D3E;" d="M277.874,111.528c-0.682,0.059-1.295,0.453-1.665,1.029c-0.017,0.026-0.033,0.051-0.049,0.077
				c-0.994,1.555,0.195,3.599,2.037,3.465c1.279-0.092,2.712-0.056,4.147,0.249c0.016-0.228,0.032-0.443,0.047-0.644
				c0.09-1.209-0.148-2.633-0.669-4.156C280.56,111.429,279.286,111.407,277.874,111.528z"/>
			<path style="fill:none;stroke:#A0564A;stroke-width:1.0662;stroke-linecap:round;stroke-miterlimit:10;" d="M260.734,156.553
				c0,0,12.325-8.627,15.846-1.232"/>
			
				<ellipse transform="matrix(0.2465 -0.9691 0.9691 0.2465 86.8781 372.3548)" style="fill:none;stroke:#381612;stroke-width:2.1324;stroke-miterlimit:10;" cx="282.907" cy="130.305" rx="10.967" ry="10.967"/>
			<path style="fill:none;stroke:#381612;stroke-width:2.1324;stroke-miterlimit:10;" d="M266.601,126.006
				c0,0,2.007-1.81,6.55-0.714"/>
			
				<line style="fill:none;stroke:#381612;stroke-width:2.1324;stroke-miterlimit:10;" x1="245.81" y1="127.896" x2="231.485" y2="128.827"/>
			<path style="fill:none;stroke:#723328;stroke-width:1.0662;stroke-linecap:round;stroke-miterlimit:10;" d="M246.355,129.85
				c0-2.431,3.383-4.402,7.555-4.402c4.173,0,7.555,1.971,7.555,4.402"/>
			<path style="fill:none;stroke:#723328;stroke-width:1.0662;stroke-linecap:round;stroke-miterlimit:10;" d="M272.413,129.85
				c0-2.431,3.383-4.402,7.555-4.402c0.522,0,1.031,0.031,1.523,0.089"/>
			<path style="fill:#D59880;" d="M271.298,126.006c0,0,5.018,9.772,3.961,21.656c-5.81,1.409-9.067,0.528-9.067,0.528
				S266.28,131.904,271.298,126.006z"/>
			<path style="fill:none;stroke:#A0564A;stroke-width:1.0662;stroke-linecap:round;stroke-miterlimit:10;" d="M271.298,126.006
				c0,0,5.018,9.772,3.961,21.656c-5.81,1.409-3.903,0.8-3.903,0.8"/>
			<path style="fill:#56221C;" d="M270.153,147.398c0,0.243-0.985,0.44-2.201,0.44c-1.216,0-2.201-0.197-2.201-0.44
				s0.985-0.44,2.201-0.44C269.168,146.957,270.153,147.154,270.153,147.398z"/>
			
				<ellipse transform="matrix(0.7071 -0.7071 0.7071 0.7071 -30.264 201.073)" style="fill:#D59880;" cx="227.585" cy="137.068" rx="9.625" ry="9.625"/>
			<path style="fill:#A06653;" d="M223.359,133.077c-1.853,0-3.578,0.533-5.047,1.441c-0.223,0.813-0.353,1.666-0.353,2.55
				c0,5.316,4.309,9.625,9.625,9.625c1.853,0,3.578-0.533,5.047-1.44c0.223-0.814,0.353-1.666,0.353-2.55
				C232.984,137.387,228.675,133.077,223.359,133.077z"/>
			
				<ellipse transform="matrix(0.7071 -0.7071 0.7071 0.7071 -17.0095 219.5446)" style="fill:none;stroke:#381612;stroke-width:2.1324;stroke-miterlimit:10;" cx="256.509" cy="130.305" rx="10.967" ry="10.967"/>
			<path style="fill:none;stroke:#A0564A;stroke-width:0.5331;stroke-linecap:round;stroke-miterlimit:10;" d="M275.457,168.135
				c0,0-4.042,5.139-9.706,5.523"/>
			<path style="fill:#924D3E;" d="M273.763,160.074c0,0,0.273,5.582-0.611,8.275c-0.885,2.693-1.45-0.831-1.45-0.831
				s-0.227,7.345-2.34,9.282c-2.113,1.937-5.634-4.93-5.986-7.747c-2.289,2.465-0.88-8.451-0.88-8.451
				S272.178,155.673,273.763,160.074z"/>
			<g style="opacity:0.31;">
				<path style="fill:#EFEEE4;" d="M238.96,81.901c0.223-0.717,0.409-1.368,0.574-1.984L238.96,81.901z"/>
				<path style="fill:#EFEEE4;" d="M288.963,98.803c18.78-4.46,10.094-21.597-11.268-16.668c5.869-3.052,6.338-14.085-1.409-15.024
					c-7.747-0.939-21.832-0.235-37.326,14.79l-0.763,6.514c0,0,5.81-4.754,13.977-8.627c8.166-3.873-0.595,12.501-13.526,17.607
					c9.606,5.458,1.667,13.512,1.667,13.512s3.693,12.898,6.041,33.322c2.348,20.424,15.711,29.43,15.711,29.43l0.04,0.033
					c1.044,0.112,2.05,0.12,3.017,0.033c1.284,2.323,3.001,4.212,4.238,3.077c1.015-0.93,1.592-3.107,1.92-5.119
					c6.659-4.019,10.232-12.956,9.935-19.354c-0.469-10.094,0.704-30.283,1.174-36.622c0.027-0.363,0.021-0.747-0.01-1.146
					C307.342,112.867,297.45,101.197,288.963,98.803z"/>
			</g>
		</g>
	</g>
</g>
</svg>
